<svg xmlns="http://www.w3.org/2000/svg" width="128" height="128" viewBox="0 0 128 128">
  <g id="img30_1" transform="translate(-383.746 -8400)">
    <path id="Path_997401" data-name="Path 997401" d="M64,0A64,64,0,1,1,0,64,64,64,0,0,1,64,0Z" transform="translate(383.746 8400)" fill="#fff"/>
    <g id="Group_1178418" data-name="Group 1178418" transform="translate(406.457 8421.464)">
      <path id="Path_999728" data-name="Path 999728" d="M41.289,0A41.289,41.289,0,1,0,82.578,41.289,41.336,41.336,0,0,0,41.289,0Zm0,80A38.708,38.708,0,1,1,80,41.289,38.752,38.752,0,0,1,41.289,80Z" fill="#283760"/>
      <path id="Path_999729" data-name="Path 999729" d="M19.29,30.9a1.289,1.289,0,0,0,1.29-1.29V21.871a1.291,1.291,0,0,1,1.29-1.29h7.742a1.29,1.29,0,0,0,0-2.581H21.871A3.876,3.876,0,0,0,18,21.871v7.742A1.289,1.289,0,0,0,19.29,30.9Z" transform="translate(5.225 5.225)" fill="#283760"/>
      <path id="Path_999730" data-name="Path 999730" d="M45.032,18H37.29a1.29,1.29,0,0,0,0,2.581h7.742a1.291,1.291,0,0,1,1.29,1.29v7.742a1.29,1.29,0,0,0,2.581,0V21.871A3.876,3.876,0,0,0,45.032,18Z" transform="translate(10.45 5.225)" fill="#283760"/>
      <path id="Path_999731" data-name="Path 999731" d="M47.613,36a1.289,1.289,0,0,0-1.29,1.29v7.742a1.291,1.291,0,0,1-1.29,1.29H37.29a1.29,1.29,0,0,0,0,2.581h7.742A3.876,3.876,0,0,0,48.9,45.032V37.29A1.289,1.289,0,0,0,47.613,36Z" transform="translate(10.45 10.45)" fill="#283760"/>
      <path id="Path_999732" data-name="Path 999732" d="M29.613,46.322H21.871a1.291,1.291,0,0,1-1.29-1.29V37.29a1.29,1.29,0,0,0-2.581,0v7.742A3.876,3.876,0,0,0,21.871,48.9h7.742a1.29,1.29,0,0,0,0-2.581Z" transform="translate(5.225 10.45)" fill="#283760"/>
      <path id="Path_999733" data-name="Path 999733" d="M33.161,28a5.161,5.161,0,1,0,5.161,5.161A5.166,5.166,0,0,0,33.161,28Zm0,7.742a2.581,2.581,0,1,1,2.581-2.581A2.583,2.583,0,0,1,33.161,35.742Z" transform="translate(8.128 8.128)" fill="#283760"/>
    </g>
  </g>
</svg>
