<svg xmlns="http://www.w3.org/2000/svg" width="128" height="128" viewBox="0 0 128 128">
  <g id="img32" transform="translate(-381.746 -8402)">
    <path id="Path_997402" data-name="Path 997402" d="M64,0A64,64,0,1,1,0,64,64,64,0,0,1,64,0Z" transform="translate(381.746 8402)" fill="#b1ec6f"/>
    <g id="icon_55_" transform="translate(407.545 8428.25)">
      <path id="XMLID_13_" d="M35.461,53.068H31.7a3.433,3.433,0,0,1-3.441-3.416V48.064a.711.711,0,0,0-.465-.638.727.727,0,0,0-.8.11l-1.138,1.129a3.467,3.467,0,0,1-4.868,0l-2.657-2.637a3.4,3.4,0,0,1,0-4.829l1.138-1.129a.691.691,0,0,0,.124-.762.726.726,0,0,0-.655-.49h-1.6A3.433,3.433,0,0,1,13.9,35.4V31.674a3.432,3.432,0,0,1,3.442-3.415h1.6a.714.714,0,0,0,.644-.463.706.706,0,0,0-.113-.79l-1.138-1.129a3.4,3.4,0,0,1,0-4.83L21,18.411a3.543,3.543,0,0,1,4.868,0L27,19.54a.7.7,0,0,0,.769.123.721.721,0,0,0,.494-.649v-1.59a3.433,3.433,0,0,1,3.441-3.416h3.757A3.433,3.433,0,0,1,38.9,17.424v1.59a.708.708,0,0,0,.465.638.719.719,0,0,0,.8-.112L41.3,18.411a3.541,3.541,0,0,1,4.866,0l2.657,2.636a3.4,3.4,0,0,1,0,4.83l-1.138,1.129a.689.689,0,0,0-.123.764.726.726,0,0,0,.653.49h1.6a3.433,3.433,0,0,1,3.442,3.415V35.4a3.433,3.433,0,0,1-3.442,3.416h-1.6a.712.712,0,0,0-.642.461.7.7,0,0,0,.112.792L48.827,41.2a3.4,3.4,0,0,1,0,4.829l-2.657,2.637a3.466,3.466,0,0,1-4.866,0l-1.138-1.129a.691.691,0,0,0-.768-.121l-.029.011a.72.72,0,0,0-.465.638v1.589a3.437,3.437,0,0,1-3.444,3.416Zm-8-8.451a3.588,3.588,0,0,1,1.357.268,3.441,3.441,0,0,1,2.2,3.179v1.589a.681.681,0,0,0,.684.678h3.757a.682.682,0,0,0,.684-.678V48.064a3.433,3.433,0,0,1,2.175-3.169l.078-.032a3.466,3.466,0,0,1,3.716.738l1.138,1.129a.688.688,0,0,0,.967,0l2.657-2.637a.675.675,0,0,0,0-.959l-1.138-1.129a3.4,3.4,0,0,1-.755-3.66l.056-.134a3.446,3.446,0,0,1,3.18-2.13h1.6A.682.682,0,0,0,50.5,35.4V31.674A.682.682,0,0,0,49.82,31h-1.6a3.455,3.455,0,0,1-3.193-2.16,3.411,3.411,0,0,1,.712-3.765l1.138-1.129a.677.677,0,0,0,0-.96l-2.657-2.636a.684.684,0,0,0-.966,0l-1.138,1.129a3.531,3.531,0,0,1-5.969-2.461v-1.59a.682.682,0,0,0-.684-.678H31.706a.682.682,0,0,0-.684.678v1.59a3.433,3.433,0,0,1-2.176,3.17,3.479,3.479,0,0,1-3.793-.708l-1.138-1.129a.686.686,0,0,0-.967,0l-2.657,2.636a.677.677,0,0,0,0,.96l1.138,1.129a3.4,3.4,0,0,1,.723,3.741A3.468,3.468,0,0,1,18.948,31h-1.6a.682.682,0,0,0-.684.678V35.4a.682.682,0,0,0,.684.678h1.6a3.459,3.459,0,0,1,3.194,2.158,3.414,3.414,0,0,1-.713,3.766l-1.138,1.129a.675.675,0,0,0,0,.959l2.657,2.637a.688.688,0,0,0,.967,0L25.053,45.6a3.407,3.407,0,0,1,2.411-.986Z" transform="translate(4.119 3.963)" fill="#283760"/>
      <path id="XMLID_10_" d="M30.175,37.767a7.609,7.609,0,1,1,7.667-7.609A7.647,7.647,0,0,1,30.175,37.767Zm0-12.481a4.872,4.872,0,1,0,4.91,4.872A4.9,4.9,0,0,0,30.175,25.286Z" transform="translate(7.526 7.345)" fill="#283760"/>
      <g id="XMLID_2100_" transform="translate(3.5 4)">
        <path id="XMLID_9_" d="M7.72,33.159a1.385,1.385,0,0,1-.2-.014A1.37,1.37,0,0,1,6.353,31.6,30.524,30.524,0,0,1,30.012,6.355a1.368,1.368,0,1,1,.59,2.672A27.767,27.767,0,0,0,9.082,31.987,1.375,1.375,0,0,1,7.72,33.159Z" transform="translate(-2.377 -3.081)" fill="#283760"/>
        <path id="XMLID_8_" d="M30.331,56.575a1.456,1.456,0,0,1-.3-.032A30.423,30.423,0,0,1,6.3,30.714a1.379,1.379,0,0,1,2.737-.339,27.677,27.677,0,0,0,21.594,23.5,1.367,1.367,0,0,1-.3,2.7Z" transform="translate(-2.398 5.969)" fill="#283760"/>
        <path id="XMLID_7_" d="M32.044,56.812a1.368,1.368,0,0,1-.236-2.717A27.851,27.851,0,0,0,54.549,30.374a1.379,1.379,0,0,1,2.737.339,30.618,30.618,0,0,1-25,26.079,1.593,1.593,0,0,1-.242.02Z" transform="translate(7.256 5.968)" fill="#283760"/>
        <path id="XMLID_6_" d="M55.838,33.227a1.374,1.374,0,0,1-1.362-1.173A27.6,27.6,0,0,0,31.808,8.869a1.369,1.369,0,1,1,.476-2.7A30.329,30.329,0,0,1,57.2,31.662a1.369,1.369,0,0,1-1.166,1.55A1.2,1.2,0,0,1,55.838,33.227Z" transform="translate(7.256 -3.148)" fill="#283760"/>
        <path id="XMLID_5_" d="M24.063,15.188a1.376,1.376,0,0,1-1.3-1.836l1.785-4.886L19.509,6.655A1.367,1.367,0,0,1,18.681,4.9a1.383,1.383,0,0,1,1.766-.821L26.786,6.36a1.387,1.387,0,0,1,.78.706,1.359,1.359,0,0,1,.047,1.046l-2.253,6.173a1.379,1.379,0,0,1-1.3.9Z" transform="translate(2.478 -4)" fill="#283760"/>
        <path id="XMLID_4_" d="M51.139,28.434a1.368,1.368,0,0,1-.681-.18L44.711,25a1.359,1.359,0,0,1-.514-1.866,1.381,1.381,0,0,1,1.88-.511L50.627,25.2l2.658-4.623a1.382,1.382,0,0,1,1.88-.511,1.359,1.359,0,0,1,.514,1.866l-3.341,5.811a1.381,1.381,0,0,1-1.2.691Z" transform="translate(12.541 2.289)" fill="#283760"/>
        <path id="XMLID_3_" d="M36.494,55.422a1.378,1.378,0,0,1-.885-.32l-5.166-4.3a1.362,1.362,0,0,1-.17-1.928l4.252-5.031a1.39,1.39,0,0,1,1.943-.17,1.362,1.362,0,0,1,.172,1.928l-3.366,3.983,4.11,3.42a1.362,1.362,0,0,1,.172,1.928,1.394,1.394,0,0,1-1.061.489Z" transform="translate(6.972 11.583)" fill="#283760"/>
        <path id="XMLID_2_" d="M4.878,36.947a1.371,1.371,0,0,1-1.114-2.175l3.967-5.409a1.385,1.385,0,0,1,1.926-.3l5.349,3.863a1.364,1.364,0,0,1,.3,1.912,1.387,1.387,0,0,1-1.926.3L9.149,32.079l-3.156,4.3a1.378,1.378,0,0,1-1.115.564Z" transform="translate(-3.5 5.819)" fill="#283760"/>
      </g>
    </g>
  </g>
</svg>
