<svg xmlns="http://www.w3.org/2000/svg" width="128" height="128" viewBox="0 0 128 128">
  <g id="img31_1" transform="translate(-383.746 -8399.753)">
    <circle id="Ellipse_13609" data-name="Ellipse 13609" cx="64" cy="64" r="64" transform="translate(383.746 8399.753)" fill="#fff"/>
    <g id="icons" transform="translate(411.446 8426.753)">
      <g id="Group_1178422" data-name="Group 1178422" transform="translate(6.3 2)">
        <path id="Path_999734" data-name="Path 999734" d="M13.7,5.2h2.278" transform="translate(-5.27 -1.555)" fill="none" stroke="#283760" stroke-linecap="round" stroke-linejoin="round" stroke-miterlimit="10" stroke-width="2"/>
        <path id="Path_999735" data-name="Path 999735" d="M67.119,68.073a4.57,4.57,0,0,1-4.557,4.557H10.957A4.57,4.57,0,0,1,6.4,68.073V6.557A4.57,4.57,0,0,1,10.957,2H62.562a4.57,4.57,0,0,1,4.557,4.557Z" transform="translate(-6.286 -2)" fill="none" stroke="#283760" stroke-linecap="round" stroke-linejoin="round" stroke-miterlimit="10" stroke-width="2"/>
        <path id="Path_999736" data-name="Path 999736" d="M6.3,8.9H67.019V64.265H6.3Z" transform="translate(-6.3 -1.04)" fill="none" stroke="#283760" stroke-linecap="round" stroke-linejoin="round" stroke-miterlimit="10" stroke-width="2"/>
        <path id="Path_999737" data-name="Path 999737" d="M24.6,5.2h2.164" transform="translate(-3.753 -1.555)" fill="none" stroke="#283760" stroke-linecap="round" stroke-linejoin="round" stroke-miterlimit="10" stroke-width="2"/>
        <g id="Group_1178419" data-name="Group 1178419" transform="translate(14.582 3.645)">
          <path id="Path_999738" data-name="Path 999738" d="M19.1,5.2h2.278" transform="translate(-19.1 -5.2)" fill="none" stroke="#283760" stroke-linecap="round" stroke-linejoin="round" stroke-miterlimit="10" stroke-width="2"/>
        </g>
        <g id="Group_1178421" data-name="Group 1178421" transform="translate(8.886 16.518)">
          <path id="Path_999739" data-name="Path 999739" d="M31.6,60.7h3.19" transform="translate(-11.664 -10.348)" fill="none" stroke="#283760" stroke-linecap="round" stroke-linejoin="round" stroke-miterlimit="10" stroke-width="2"/>
          <g id="Group_1178420" data-name="Group 1178420" transform="translate(10.481 22.556)">
            <path id="Path_999740" data-name="Path 999740" d="M29.2,43.507l4.443,4.329L44.579,36.9" transform="translate(-22.479 -36.216)" fill="none" stroke="#283760" stroke-linecap="round" stroke-linejoin="round" stroke-miterlimit="10" stroke-width="2"/>
            <path id="Path_999741" data-name="Path 999741" d="M41.755,45.527A9.227,9.227,0,1,1,32.527,36.3a9.483,9.483,0,0,1,5.81,2.051" transform="translate(-23.3 -36.3)" fill="none" stroke="#283760" stroke-linecap="round" stroke-linejoin="round" stroke-miterlimit="10" stroke-width="2"/>
          </g>
          <path id="Path_999742" data-name="Path 999742" d="M14.1,16.5H41.9" transform="translate(-14.1 -16.5)" fill="none" stroke="#283760" stroke-linecap="round" stroke-linejoin="round" stroke-miterlimit="10" stroke-width="2"/>
          <path id="Path_999743" data-name="Path 999743" d="M14.1,21.5H29.023" transform="translate(-14.1 -15.804)" fill="none" stroke="#283760" stroke-linecap="round" stroke-linejoin="round" stroke-miterlimit="10" stroke-width="2"/>
          <path id="Path_999744" data-name="Path 999744" d="M14.1,26.5H32.9" transform="translate(-14.1 -15.108)" fill="none" stroke="#283760" stroke-linecap="round" stroke-linejoin="round" stroke-miterlimit="10" stroke-width="2"/>
          <path id="Path_999745" data-name="Path 999745" d="M42.7,16.5H54.32" transform="translate(-10.119 -16.5)" fill="none" stroke="#283760" stroke-linecap="round" stroke-linejoin="round" stroke-miterlimit="10" stroke-width="2"/>
          <path id="Path_999746" data-name="Path 999746" d="M31,21.5H55.948" transform="translate(-11.748 -15.804)" fill="none" stroke="#283760" stroke-linecap="round" stroke-linejoin="round" stroke-miterlimit="10" stroke-width="2"/>
          <path id="Path_999747" data-name="Path 999747" d="M34.5,26.5H55.461" transform="translate(-11.26 -15.108)" fill="none" stroke="#283760" stroke-linecap="round" stroke-linejoin="round" stroke-miterlimit="10" stroke-width="2"/>
          <path id="Path_999748" data-name="Path 999748" d="M14.1,31.5H49.529" transform="translate(-14.1 -14.412)" fill="none" stroke="#283760" stroke-linecap="round" stroke-linejoin="round" stroke-miterlimit="10" stroke-width="2"/>
          <path id="Path_999749" data-name="Path 999749" d="M48.6,31.5h4.9" transform="translate(-9.298 -14.412)" fill="none" stroke="#283760" stroke-linecap="round" stroke-linejoin="round" stroke-miterlimit="10" stroke-width="2"/>
        </g>
      </g>
    </g>
  </g>
</svg>
