<svg xmlns="http://www.w3.org/2000/svg" width="1020" height="590" viewBox="0 0 1020 590">
  <g id="img41" transform="translate(-290.35 -3908)">
    <path id="Rectangle_455470" data-name="Rectangle 455470" d="M20,0h980a20,20,0,0,1,20,20V590a0,0,0,0,1,0,0H0a0,0,0,0,1,0,0V20A20,20,0,0,1,20,0Z" transform="translate(290.35 3908)" fill="#e9eaef"/>
    <g id="Group_1179230" data-name="Group 1179230" transform="translate(539.35 3946)">
      <path id="Path_1001661" data-name="Path 1001661" d="M0,0V77.676H198.662V54.368l20-16.934-20-16.937V0Z" fill="#fcae57"/>
      <path id="Path_1001662" data-name="Path 1001662" d="M208.546,0V21.7l18.433,15.067L208.546,53.335V77.676H424.635V0Z" transform="translate(98.148)" fill="#bec2cf"/>
      <path id="Path_1001708" data-name="Path 1001708" d="M6.482-2.8a1.128,1.128,0,0,0-.439-.956,5.764,5.764,0,0,0-1.582-.7,11.215,11.215,0,0,1-1.809-.729A2.956,2.956,0,0,1,.835-7.83a2.575,2.575,0,0,1,.487-1.542,3.177,3.177,0,0,1,1.4-1.058,5.265,5.265,0,0,1,2.047-.381A4.793,4.793,0,0,1,6.8-10.4,3.242,3.242,0,0,1,8.192-9.229a3.057,3.057,0,0,1,.494,1.714h-2.2a1.438,1.438,0,0,0-.461-1.139,1.9,1.9,0,0,0-1.3-.406,2.026,2.026,0,0,0-1.252.341,1.074,1.074,0,0,0-.447.9,1.029,1.029,0,0,0,.524.872A5.916,5.916,0,0,0,5.1-6.292a6.661,6.661,0,0,1,2.732,1.4,2.786,2.786,0,0,1,.857,2.08A2.566,2.566,0,0,1,7.639-.641a4.585,4.585,0,0,1-2.82.787A5.445,5.445,0,0,1,2.578-.3,3.546,3.546,0,0,1,1.036-1.538,3.161,3.161,0,0,1,.505-3.354h2.2q0,1.765,2.109,1.765a2.052,2.052,0,0,0,1.223-.319A1.037,1.037,0,0,0,6.482-2.8Zm8.3,1.992a2.654,2.654,0,0,1-2.168.952,2.5,2.5,0,0,1-1.945-.732,3.127,3.127,0,0,1-.685-2.146V-7.925H12.1V-2.8q0,1.239,1.128,1.239a1.528,1.528,0,0,0,1.479-.748V-7.925h2.124V0H14.839Zm5.889-7.119V.432a2.835,2.835,0,0,1-.7,2.04,2.645,2.645,0,0,1-2.007.729,4.3,4.3,0,0,1-1.047-.125V1.4a3.973,3.973,0,0,0,.667.066q.959,0,.959-1.018V-7.925ZM18.376-9.976a1.042,1.042,0,0,1,.319-.784,1.2,1.2,0,0,1,.868-.308,1.2,1.2,0,0,1,.868.308,1.042,1.042,0,0,1,.319.784,1.039,1.039,0,0,1-.326.791,1.2,1.2,0,0,1-.861.308,1.2,1.2,0,0,1-.861-.308A1.039,1.039,0,0,1,18.376-9.976ZM25.972.146A3.89,3.89,0,0,1,23.134-.923a3.8,3.8,0,0,1-1.095-2.849v-.205A4.787,4.787,0,0,1,22.5-6.112a3.386,3.386,0,0,1,1.307-1.45,3.669,3.669,0,0,1,1.93-.509A3.289,3.289,0,0,1,28.3-7.046a4.167,4.167,0,0,1,.934,2.908v.864H24.185A1.966,1.966,0,0,0,24.8-2.029a1.871,1.871,0,0,0,1.307.469,2.285,2.285,0,0,0,1.912-.886l1.04,1.165A3.178,3.178,0,0,1,27.773-.231,4.229,4.229,0,0,1,25.972.146ZM25.73-6.365a1.323,1.323,0,0,0-1.022.427,2.209,2.209,0,0,0-.5,1.221h2.944v-.169a1.576,1.576,0,0,0-.381-1.092A1.365,1.365,0,0,0,25.73-6.365Zm7.236-3.508v1.948h1.355v1.553H32.966v3.955a.944.944,0,0,0,.168.63.846.846,0,0,0,.645.19,3.376,3.376,0,0,0,.623-.051v1.6a4.358,4.358,0,0,1-1.282.19A2.021,2.021,0,0,1,30.85-2.1v-4.27H29.692V-7.925H30.85V-9.873Zm1.985,5.837a4.7,4.7,0,0,1,.454-2.1,3.324,3.324,0,0,1,1.307-1.428,3.814,3.814,0,0,1,1.981-.505,3.609,3.609,0,0,1,2.618.981,3.939,3.939,0,0,1,1.132,2.666l.015.542A4.142,4.142,0,0,1,41.44-.956a3.539,3.539,0,0,1-2.732,1.1,3.556,3.556,0,0,1-2.736-1.1A4.215,4.215,0,0,1,34.951-3.94Zm2.117.15a2.962,2.962,0,0,0,.425,1.727,1.4,1.4,0,0,0,1.216.6,1.4,1.4,0,0,0,1.2-.591,3.241,3.241,0,0,0,.432-1.889,2.933,2.933,0,0,0-.432-1.716,1.4,1.4,0,0,0-1.216-.609,1.382,1.382,0,0,0-1.2.605A3.3,3.3,0,0,0,37.068-3.885Z" transform="translate(76.189 41.631)" fill="#283760"/>
      <path id="Path_1001710" data-name="Path 1001710" d="M5.219-2.82,7.8-11.375h2.609L6.445,0H4L.055-11.375h2.6Zm10,2.977A4.15,4.15,0,0,1,12.191-.984a4.054,4.054,0,0,1-1.168-3.039v-.219a5.106,5.106,0,0,1,.492-2.277A3.612,3.612,0,0,1,12.91-8.066a3.914,3.914,0,0,1,2.059-.543A3.508,3.508,0,0,1,17.7-7.516a4.444,4.444,0,0,1,1,3.1v.922H13.313a2.1,2.1,0,0,0,.66,1.328,2,2,0,0,0,1.395.5,2.437,2.437,0,0,0,2.039-.945l1.109,1.242A3.389,3.389,0,0,1,17.141-.246,4.511,4.511,0,0,1,15.219.156Zm-.258-6.945a1.411,1.411,0,0,0-1.09.455,2.357,2.357,0,0,0-.535,1.3h3.141v-.181a1.681,1.681,0,0,0-.406-1.165A1.456,1.456,0,0,0,14.961-6.789Zm9.766.453a6.134,6.134,0,0,0-.812-.062,1.654,1.654,0,0,0-1.68.867V0H19.977V-8.453h2.133l.063,1.008a2.092,2.092,0,0,1,1.883-1.164,2.366,2.366,0,0,1,.7.1Zm8.7,2.188A5.119,5.119,0,0,1,32.563-.98,2.872,2.872,0,0,1,30.141.156,2.639,2.639,0,0,1,27.945-.9l-.1.9H25.813V-12H28.07v4.3a2.571,2.571,0,0,1,2.055-.914,2.9,2.9,0,0,1,2.426,1.137,5.126,5.126,0,0,1,.879,3.2Zm-2.258-.164a3.363,3.363,0,0,0-.406-1.871,1.374,1.374,0,0,0-1.211-.59,1.489,1.489,0,0,0-1.484.883v3.336a1.509,1.509,0,0,0,1.5.891,1.394,1.394,0,0,0,1.438-1.078A5.562,5.562,0,0,0,31.172-4.312Zm3.3.008a5.013,5.013,0,0,1,.484-2.242A3.546,3.546,0,0,1,36.348-8.07a4.069,4.069,0,0,1,2.113-.539,3.849,3.849,0,0,1,2.793,1.047,4.2,4.2,0,0,1,1.207,2.844l.016.578A4.418,4.418,0,0,1,41.391-1.02,3.775,3.775,0,0,1,38.477.156a3.793,3.793,0,0,1-2.918-1.172A4.5,4.5,0,0,1,34.469-4.2Zm2.258.16A3.16,3.16,0,0,0,37.18-2.3a1.5,1.5,0,0,0,1.3.638,1.5,1.5,0,0,0,1.281-.63,3.457,3.457,0,0,0,.461-2.015,3.128,3.128,0,0,0-.461-1.831,1.5,1.5,0,0,0-1.3-.649,1.474,1.474,0,0,0-1.281.646A3.516,3.516,0,0,0,36.727-4.144ZM51.742.156A4.15,4.15,0,0,1,48.715-.984a4.054,4.054,0,0,1-1.168-3.039v-.219a5.106,5.106,0,0,1,.492-2.277,3.612,3.612,0,0,1,1.395-1.547,3.914,3.914,0,0,1,2.059-.543,3.508,3.508,0,0,1,2.73,1.094,4.444,4.444,0,0,1,1,3.1v.922H49.836a2.1,2.1,0,0,0,.66,1.328,2,2,0,0,0,1.395.5,2.437,2.437,0,0,0,2.039-.945l1.109,1.242A3.389,3.389,0,0,1,53.664-.246,4.511,4.511,0,0,1,51.742.156Zm-.258-6.945a1.411,1.411,0,0,0-1.09.455,2.357,2.357,0,0,0-.535,1.3H53v-.181a1.681,1.681,0,0,0-.406-1.165A1.456,1.456,0,0,0,51.484-6.789Zm7.094-1.664.07.977a2.951,2.951,0,0,1,2.43-1.133,2.453,2.453,0,0,1,2,.789,3.682,3.682,0,0,1,.672,2.359V0H61.492V-5.406a1.465,1.465,0,0,0-.312-1.043,1.4,1.4,0,0,0-1.039-.324,1.553,1.553,0,0,0-1.43.813V0H56.453V-8.453Z" transform="translate(385.686 28.429)" fill="#283760"/>
      <path id="Path_1001711" data-name="Path 1001711" d="M8.477-4.148A5.07,5.07,0,0,1,7.59-1.02,2.843,2.843,0,0,1,5.2.156a2.633,2.633,0,0,1-2.07-.891V3.25H.867v-11.7H2.961l.078.828A2.654,2.654,0,0,1,5.18-8.609a2.862,2.862,0,0,1,2.43,1.156,5.207,5.207,0,0,1,.867,3.188ZM6.219-4.312A3.327,3.327,0,0,0,5.8-6.133a1.361,1.361,0,0,0-1.215-.641,1.478,1.478,0,0,0-1.461.813V-2.5A1.5,1.5,0,0,0,4.6-1.664Q6.219-1.664,6.219-4.312ZM14.773,0a2.507,2.507,0,0,1-.227-.758,2.732,2.732,0,0,1-2.133.914,3,3,0,0,1-2.059-.719,2.312,2.312,0,0,1-.816-1.812,2.389,2.389,0,0,1,1-2.062,4.915,4.915,0,0,1,2.879-.727h1.039v-.484a1.393,1.393,0,0,0-.3-.937,1.183,1.183,0,0,0-.949-.352,1.345,1.345,0,0,0-.895.273.929.929,0,0,0-.324.75H9.727a2.268,2.268,0,0,1,.453-1.359,3,3,0,0,1,1.281-.98,4.669,4.669,0,0,1,1.859-.355,3.689,3.689,0,0,1,2.48.785,2.747,2.747,0,0,1,.918,2.207v3.664a4.041,4.041,0,0,0,.336,1.82V0ZM12.906-1.57a1.945,1.945,0,0,0,.922-.223,1.462,1.462,0,0,0,.625-.6V-3.844h-.844q-1.7,0-1.8,1.172l-.008.133a.9.9,0,0,0,.3.7A1.153,1.153,0,0,0,12.906-1.57ZM23.2-6.336a6.134,6.134,0,0,0-.812-.062,1.654,1.654,0,0,0-1.68.867V0H18.453V-8.453h2.133l.063,1.008a2.092,2.092,0,0,1,1.883-1.164,2.366,2.366,0,0,1,.7.1Zm4.18-4.2v2.078h1.445V-6.8H27.383v4.219a1.007,1.007,0,0,0,.18.672.9.9,0,0,0,.688.2,3.6,3.6,0,0,0,.664-.055V-.047a4.648,4.648,0,0,1-1.367.2,2.156,2.156,0,0,1-2.422-2.4V-6.8H23.891V-8.453h1.234v-2.078ZM32.469,0H30.2V-8.453h2.266Zm-2.4-10.641a1.112,1.112,0,0,1,.34-.836,1.277,1.277,0,0,1,.926-.328,1.28,1.28,0,0,1,.922.328,1.105,1.105,0,0,1,.344.836,1.108,1.108,0,0,1-.348.844,1.283,1.283,0,0,1-.918.328,1.283,1.283,0,0,1-.918-.328A1.108,1.108,0,0,1,30.07-10.641Zm7.773,8.977a1.481,1.481,0,0,0,1.016-.344,1.2,1.2,0,0,0,.406-.914h2.117a2.9,2.9,0,0,1-.469,1.574A3.093,3.093,0,0,1,39.652-.238a3.949,3.949,0,0,1-1.77.395A3.67,3.67,0,0,1,35.023-1,4.56,4.56,0,0,1,33.977-4.18v-.148a4.508,4.508,0,0,1,1.039-3.117,3.627,3.627,0,0,1,2.852-1.164,3.555,3.555,0,0,1,2.543.9,3.2,3.2,0,0,1,.973,2.4H39.266a1.551,1.551,0,0,0-.406-1.072,1.354,1.354,0,0,0-1.031-.412,1.36,1.36,0,0,0-1.191.575,3.333,3.333,0,0,0-.4,1.866v.235a3.375,3.375,0,0,0,.4,1.878A1.377,1.377,0,0,0,37.844-1.664ZM45.055,0H42.789V-8.453h2.266Zm-2.4-10.641a1.112,1.112,0,0,1,.34-.836,1.277,1.277,0,0,1,.926-.328,1.28,1.28,0,0,1,.922.328,1.105,1.105,0,0,1,.344.836,1.108,1.108,0,0,1-.348.844,1.283,1.283,0,0,1-.918.328A1.283,1.283,0,0,1,43-9.8,1.108,1.108,0,0,1,42.656-10.641ZM54.523-4.148a5.07,5.07,0,0,1-.887,3.129A2.843,2.843,0,0,1,51.242.156a2.633,2.633,0,0,1-2.07-.891V3.25H46.914v-11.7h2.094l.078.828a2.654,2.654,0,0,1,2.141-.984,2.862,2.862,0,0,1,2.43,1.156,5.207,5.207,0,0,1,.867,3.188Zm-2.258-.164a3.327,3.327,0,0,0-.418-1.82,1.361,1.361,0,0,0-1.215-.641,1.479,1.479,0,0,0-1.461.813V-2.5a1.5,1.5,0,0,0,1.477.836Q52.266-1.664,52.266-4.312ZM58.3,0H56.039V-8.453H58.3Zm-2.4-10.641a1.112,1.112,0,0,1,.34-.836,1.277,1.277,0,0,1,.926-.328,1.28,1.28,0,0,1,.922.328,1.105,1.105,0,0,1,.344.836,1.108,1.108,0,0,1-.348.844,1.283,1.283,0,0,1-.918.328,1.283,1.283,0,0,1-.918-.328A1.108,1.108,0,0,1,55.906-10.641ZM59.813-4.3A5.013,5.013,0,0,1,60.3-6.547,3.546,3.546,0,0,1,61.691-8.07,4.069,4.069,0,0,1,63.8-8.609,3.849,3.849,0,0,1,66.6-7.562,4.2,4.2,0,0,1,67.8-4.719l.016.578A4.418,4.418,0,0,1,66.734-1.02,3.775,3.775,0,0,1,63.82.156,3.793,3.793,0,0,1,60.9-1.016,4.5,4.5,0,0,1,59.813-4.2Zm2.258.16A3.16,3.16,0,0,0,62.523-2.3a1.5,1.5,0,0,0,1.3.638,1.5,1.5,0,0,0,1.281-.63,3.457,3.457,0,0,0,.461-2.015A3.128,3.128,0,0,0,65.1-6.14a1.5,1.5,0,0,0-1.3-.649,1.474,1.474,0,0,0-1.281.646A3.516,3.516,0,0,0,62.07-4.144Zm18.734,0a5.07,5.07,0,0,1-.887,3.129A2.843,2.843,0,0,1,77.523.156a2.633,2.633,0,0,1-2.07-.891V3.25H73.2v-11.7h2.094l.078.828a2.654,2.654,0,0,1,2.141-.984,2.862,2.862,0,0,1,2.43,1.156A5.207,5.207,0,0,1,80.8-4.266Zm-2.258-.164a3.327,3.327,0,0,0-.418-1.82,1.361,1.361,0,0,0-1.215-.641,1.478,1.478,0,0,0-1.461.813V-2.5a1.5,1.5,0,0,0,1.477.836Q78.547-1.664,78.547-4.312ZM87.1,0a2.507,2.507,0,0,1-.227-.758,2.732,2.732,0,0,1-2.133.914,3,3,0,0,1-2.059-.719,2.312,2.312,0,0,1-.816-1.812,2.389,2.389,0,0,1,1-2.062,4.915,4.915,0,0,1,2.879-.727h1.039v-.484a1.393,1.393,0,0,0-.3-.937,1.183,1.183,0,0,0-.949-.352,1.345,1.345,0,0,0-.895.273.929.929,0,0,0-.324.75H82.055a2.268,2.268,0,0,1,.453-1.359,3,3,0,0,1,1.281-.98,4.669,4.669,0,0,1,1.859-.355,3.689,3.689,0,0,1,2.48.785,2.747,2.747,0,0,1,.918,2.207v3.664a4.041,4.041,0,0,0,.336,1.82V0ZM85.234-1.57a1.945,1.945,0,0,0,.922-.223,1.462,1.462,0,0,0,.625-.6V-3.844h-.844q-1.7,0-1.8,1.172l-.008.133a.9.9,0,0,0,.3.7A1.153,1.153,0,0,0,85.234-1.57Zm10.125-.766a.727.727,0,0,0-.41-.652,4.659,4.659,0,0,0-1.316-.426q-3.016-.633-3.016-2.562a2.323,2.323,0,0,1,.934-1.879,3.766,3.766,0,0,1,2.441-.754,4.053,4.053,0,0,1,2.574.758,2.388,2.388,0,0,1,.965,1.969H95.273a1.092,1.092,0,0,0-.312-.8A1.322,1.322,0,0,0,93.984-7a1.351,1.351,0,0,0-.883.258.814.814,0,0,0-.312.656.7.7,0,0,0,.355.605,3.657,3.657,0,0,0,1.2.4,9.8,9.8,0,0,1,1.422.379A2.336,2.336,0,0,1,97.555-2.43a2.2,2.2,0,0,1-.992,1.871A4.28,4.28,0,0,1,94,.156a4.47,4.47,0,0,1-1.887-.379A3.166,3.166,0,0,1,90.82-1.262a2.414,2.414,0,0,1-.469-1.426h2.141a1.179,1.179,0,0,0,.445.922,1.766,1.766,0,0,0,1.109.32,1.635,1.635,0,0,0,.98-.246A.766.766,0,0,0,95.359-2.336ZM103.906,0a2.507,2.507,0,0,1-.227-.758,2.732,2.732,0,0,1-2.133.914,3,3,0,0,1-2.059-.719,2.312,2.312,0,0,1-.816-1.812,2.389,2.389,0,0,1,1-2.062,4.915,4.915,0,0,1,2.879-.727h1.039v-.484a1.393,1.393,0,0,0-.3-.937,1.183,1.183,0,0,0-.949-.352,1.345,1.345,0,0,0-.895.273.929.929,0,0,0-.324.75H98.859a2.268,2.268,0,0,1,.453-1.359,3,3,0,0,1,1.281-.98,4.669,4.669,0,0,1,1.859-.355,3.689,3.689,0,0,1,2.48.785,2.747,2.747,0,0,1,.918,2.207v3.664a4.041,4.041,0,0,0,.336,1.82V0Zm-1.867-1.57a1.945,1.945,0,0,0,.922-.223,1.462,1.462,0,0,0,.625-.6V-3.844h-.844q-1.7,0-1.8,1.172l-.008.133a.9.9,0,0,0,.3.7A1.153,1.153,0,0,0,102.039-1.57Zm5.2-2.719a5.094,5.094,0,0,1,.887-3.148,2.877,2.877,0,0,1,2.426-1.172,2.589,2.589,0,0,1,2.039.922V-12h2.266V0h-2.039L112.7-.9A2.657,2.657,0,0,1,110.531.156a2.869,2.869,0,0,1-2.395-1.176A5.258,5.258,0,0,1,107.234-4.289Zm2.258.168a3.337,3.337,0,0,0,.414,1.823,1.349,1.349,0,0,0,1.2.634,1.511,1.511,0,0,0,1.477-.884V-5.889a1.489,1.489,0,0,0-1.461-.884Q109.492-6.773,109.492-4.121ZM116.25-4.3a5.013,5.013,0,0,1,.484-2.242,3.546,3.546,0,0,1,1.395-1.523,4.069,4.069,0,0,1,2.113-.539,3.849,3.849,0,0,1,2.793,1.047,4.2,4.2,0,0,1,1.207,2.844l.016.578a4.418,4.418,0,0,1-1.086,3.121A3.775,3.775,0,0,1,120.258.156a3.793,3.793,0,0,1-2.918-1.172A4.5,4.5,0,0,1,116.25-4.2Zm2.258.16a3.16,3.16,0,0,0,.453,1.843,1.5,1.5,0,0,0,1.3.638,1.5,1.5,0,0,0,1.281-.63A3.457,3.457,0,0,0,122-4.309a3.128,3.128,0,0,0-.461-1.831,1.5,1.5,0,0,0-1.3-.649,1.474,1.474,0,0,0-1.281.646A3.516,3.516,0,0,0,118.508-4.144Z" transform="translate(352.556 46.078)" fill="#283760"/>
      <rect id="Rectangle_455547" data-name="Rectangle 455547" width="50.897" height="49.788" transform="translate(227.23 15.81)" fill="#283760"/>
      <path id="Path_1001709" data-name="Path 1001709" d="M8.811-10.347h4.583v3.313H8.811v5.18H5.319v-5.18H.724v-3.313h4.6v-4.964H8.811Z" transform="translate(245.72 49.898)" fill="#fff7ee"/>
      <path id="Path_1001663" data-name="Path 1001663" d="M0,59.248v77.676H198.662V113.615l20-16.934-20-16.937v-20.5Z" transform="translate(0 27.883)" fill="#fcae57"/>
      <path id="Path_1001664" data-name="Path 1001664" d="M208.546,59.248V80.942l18.433,15.067-18.433,16.573v24.342H424.635V59.248Z" transform="translate(98.148 27.883)" fill="#bec2cf"/>
      <path id="Path_1001712" data-name="Path 1001712" d="M4.578-4.562,3.359-3.25V0H1.016V-11.375H3.359v5.156L4.391-7.633l2.9-3.742h2.883L6.133-6.32,10.289,0H7.5ZM13.406,0H11.141V-8.453h2.266Zm-2.4-10.641a1.112,1.112,0,0,1,.34-.836,1.277,1.277,0,0,1,.926-.328,1.28,1.28,0,0,1,.922.328,1.105,1.105,0,0,1,.344.836,1.108,1.108,0,0,1-.348.844,1.283,1.283,0,0,1-.918.328,1.283,1.283,0,0,1-.918-.328A1.108,1.108,0,0,1,11.008-10.641ZM17.648,0H15.383V-12h2.266Zm1.508-4.3a5.013,5.013,0,0,1,.484-2.242A3.546,3.546,0,0,1,21.035-8.07a4.069,4.069,0,0,1,2.113-.539,3.849,3.849,0,0,1,2.793,1.047,4.2,4.2,0,0,1,1.207,2.844l.016.578A4.418,4.418,0,0,1,26.078-1.02,3.775,3.775,0,0,1,23.164.156a3.793,3.793,0,0,1-2.918-1.172A4.5,4.5,0,0,1,19.156-4.2Zm2.258.16A3.16,3.16,0,0,0,21.867-2.3a1.5,1.5,0,0,0,1.3.638,1.5,1.5,0,0,0,1.281-.63,3.457,3.457,0,0,0,.461-2.015,3.128,3.128,0,0,0-.461-1.831,1.5,1.5,0,0,0-1.3-.649,1.474,1.474,0,0,0-1.281.646A3.516,3.516,0,0,0,21.414-4.144ZM23.594-12h2.461L23.891-9.578H22.055Zm7.078,3.547.07.945a2.971,2.971,0,0,1,2.43-1.1A2.255,2.255,0,0,1,35.414-7.32a2.9,2.9,0,0,1,2.539-1.289,2.521,2.521,0,0,1,2.047.8,3.681,3.681,0,0,1,.672,2.41V0H38.406V-5.391a1.61,1.61,0,0,0-.281-1.051,1.246,1.246,0,0,0-.992-.332,1.409,1.409,0,0,0-1.406.969L35.734,0H33.477V-5.383a1.59,1.59,0,0,0-.289-1.062,1.259,1.259,0,0,0-.984-.328,1.463,1.463,0,0,0-1.391.8V0H28.555V-8.453ZM46.3.156A4.15,4.15,0,0,1,43.27-.984,4.054,4.054,0,0,1,42.1-4.023v-.219a5.106,5.106,0,0,1,.492-2.277,3.612,3.612,0,0,1,1.395-1.547,3.914,3.914,0,0,1,2.059-.543,3.508,3.508,0,0,1,2.73,1.094,4.444,4.444,0,0,1,1,3.1v.922H44.391a2.1,2.1,0,0,0,.66,1.328,2,2,0,0,0,1.395.5,2.437,2.437,0,0,0,2.039-.945l1.109,1.242A3.389,3.389,0,0,1,48.219-.246,4.511,4.511,0,0,1,46.3.156Zm-.258-6.945a1.411,1.411,0,0,0-1.09.455,2.357,2.357,0,0,0-.535,1.3h3.141v-.181a1.681,1.681,0,0,0-.406-1.165A1.456,1.456,0,0,0,46.039-6.789Zm7.719-3.742v2.078H55.2V-6.8H53.758v4.219a1.007,1.007,0,0,0,.18.672.9.9,0,0,0,.688.2,3.6,3.6,0,0,0,.664-.055V-.047a4.648,4.648,0,0,1-1.367.2,2.156,2.156,0,0,1-2.422-2.4V-6.8H50.266V-8.453H51.5v-2.078Zm7.453,4.2A6.134,6.134,0,0,0,60.4-6.4a1.654,1.654,0,0,0-1.68.867V0H56.461V-8.453h2.133l.063,1.008a2.092,2.092,0,0,1,1.883-1.164,2.366,2.366,0,0,1,.7.1ZM61.664-4.3a5.013,5.013,0,0,1,.484-2.242A3.546,3.546,0,0,1,63.543-8.07a4.069,4.069,0,0,1,2.113-.539,3.849,3.849,0,0,1,2.793,1.047,4.2,4.2,0,0,1,1.207,2.844l.016.578A4.418,4.418,0,0,1,68.586-1.02,3.775,3.775,0,0,1,65.672.156a3.793,3.793,0,0,1-2.918-1.172A4.5,4.5,0,0,1,61.664-4.2Zm2.258.16A3.16,3.16,0,0,0,64.375-2.3a1.5,1.5,0,0,0,1.3.638,1.5,1.5,0,0,0,1.281-.63,3.457,3.457,0,0,0,.461-2.015,3.128,3.128,0,0,0-.461-1.831,1.5,1.5,0,0,0-1.3-.649,1.474,1.474,0,0,0-1.281.646A3.516,3.516,0,0,0,63.922-4.144ZM75.641-2.336a.727.727,0,0,0-.41-.652,4.659,4.659,0,0,0-1.316-.426Q70.9-4.047,70.9-5.977a2.323,2.323,0,0,1,.934-1.879,3.766,3.766,0,0,1,2.441-.754,4.053,4.053,0,0,1,2.574.758,2.388,2.388,0,0,1,.965,1.969H75.555a1.092,1.092,0,0,0-.312-.8A1.322,1.322,0,0,0,74.266-7a1.351,1.351,0,0,0-.883.258.814.814,0,0,0-.312.656.7.7,0,0,0,.355.605,3.657,3.657,0,0,0,1.2.4,9.8,9.8,0,0,1,1.422.379A2.336,2.336,0,0,1,77.836-2.43a2.2,2.2,0,0,1-.992,1.871,4.28,4.28,0,0,1-2.562.715,4.47,4.47,0,0,1-1.887-.379A3.166,3.166,0,0,1,71.1-1.262a2.414,2.414,0,0,1-.469-1.426h2.141a1.179,1.179,0,0,0,.445.922,1.766,1.766,0,0,0,1.109.32,1.635,1.635,0,0,0,.98-.246A.766.766,0,0,0,75.641-2.336Zm7.281-1.953a5.094,5.094,0,0,1,.887-3.148,2.877,2.877,0,0,1,2.426-1.172,2.589,2.589,0,0,1,2.039.922V-12h2.266V0H88.5l-.109-.9A2.657,2.657,0,0,1,86.219.156,2.869,2.869,0,0,1,83.824-1.02,5.258,5.258,0,0,1,82.922-4.289Zm2.258.168A3.337,3.337,0,0,0,85.594-2.3a1.349,1.349,0,0,0,1.2.634,1.511,1.511,0,0,0,1.477-.884V-5.889a1.489,1.489,0,0,0-1.461-.884Q85.18-6.773,85.18-4.121Zm11,4.277A4.15,4.15,0,0,1,93.152-.984a4.054,4.054,0,0,1-1.168-3.039v-.219a5.106,5.106,0,0,1,.492-2.277,3.612,3.612,0,0,1,1.395-1.547,3.914,3.914,0,0,1,2.059-.543,3.508,3.508,0,0,1,2.73,1.094,4.444,4.444,0,0,1,1,3.1v.922H94.273a2.1,2.1,0,0,0,.66,1.328,2,2,0,0,0,1.395.5,2.437,2.437,0,0,0,2.039-.945l1.109,1.242A3.389,3.389,0,0,1,98.1-.246,4.511,4.511,0,0,1,96.18.156Zm-.258-6.945a1.411,1.411,0,0,0-1.09.455,2.357,2.357,0,0,0-.535,1.3h3.141v-.181a1.681,1.681,0,0,0-.406-1.165A1.456,1.456,0,0,0,95.922-6.789Zm13.75.453a6.134,6.134,0,0,0-.812-.062,1.654,1.654,0,0,0-1.68.867V0h-2.258V-8.453h2.133l.063,1.008A2.092,2.092,0,0,1,109-8.609a2.366,2.366,0,0,1,.7.1ZM114.648.156a4.15,4.15,0,0,1-3.027-1.141,4.054,4.054,0,0,1-1.168-3.039v-.219a5.106,5.106,0,0,1,.492-2.277,3.612,3.612,0,0,1,1.395-1.547,3.914,3.914,0,0,1,2.059-.543,3.508,3.508,0,0,1,2.73,1.094,4.444,4.444,0,0,1,1,3.1v.922h-5.383a2.1,2.1,0,0,0,.66,1.328,2,2,0,0,0,1.395.5,2.437,2.437,0,0,0,2.039-.945l1.109,1.242A3.389,3.389,0,0,1,116.57-.246,4.511,4.511,0,0,1,114.648.156Zm-.258-6.945a1.411,1.411,0,0,0-1.09.455,2.357,2.357,0,0,0-.535,1.3h3.141v-.181a1.681,1.681,0,0,0-.406-1.165A1.456,1.456,0,0,0,114.391-6.789Zm4.664,2.5a5.094,5.094,0,0,1,.887-3.148,2.877,2.877,0,0,1,2.426-1.172,2.589,2.589,0,0,1,2.039.922V-12h2.266V0h-2.039l-.109-.9A2.657,2.657,0,0,1,122.352.156a2.869,2.869,0,0,1-2.395-1.176A5.258,5.258,0,0,1,119.055-4.289Zm2.258.168a3.337,3.337,0,0,0,.414,1.823,1.349,1.349,0,0,0,1.2.634,1.511,1.511,0,0,0,1.477-.884V-5.889a1.489,1.489,0,0,0-1.461-.884Q121.313-6.773,121.313-4.121ZM135.57-2.758l1.57-5.7H139.5L136.648,0h-2.156l-2.852-8.453H134ZM142.875,0h-2.266V-8.453h2.266Zm-2.4-10.641a1.112,1.112,0,0,1,.34-.836,1.277,1.277,0,0,1,.926-.328,1.28,1.28,0,0,1,.922.328,1.105,1.105,0,0,1,.344.836,1.109,1.109,0,0,1-.348.844,1.283,1.283,0,0,1-.918.328,1.283,1.283,0,0,1-.918-.328A1.109,1.109,0,0,1,140.477-10.641ZM149.633,0a2.507,2.507,0,0,1-.227-.758,2.732,2.732,0,0,1-2.133.914,3,3,0,0,1-2.059-.719,2.312,2.312,0,0,1-.816-1.812,2.389,2.389,0,0,1,1-2.062,4.915,4.915,0,0,1,2.879-.727h1.039v-.484a1.393,1.393,0,0,0-.3-.937,1.183,1.183,0,0,0-.949-.352,1.345,1.345,0,0,0-.895.273.929.929,0,0,0-.324.75h-2.258a2.268,2.268,0,0,1,.453-1.359,3,3,0,0,1,1.281-.98,4.669,4.669,0,0,1,1.859-.355,3.689,3.689,0,0,1,2.48.785,2.747,2.747,0,0,1,.918,2.207v3.664a4.041,4.041,0,0,0,.336,1.82V0Zm-1.867-1.57a1.945,1.945,0,0,0,.922-.223,1.462,1.462,0,0,0,.625-.6V-3.844h-.844q-1.7,0-1.8,1.172l-.008.133a.9.9,0,0,0,.3.7A1.153,1.153,0,0,0,147.766-1.57ZM155.7,0H153.43V-12H155.7Z" transform="translate(17.678 126.072)" fill="#283760"/>
      <path id="Path_1001713" data-name="Path 1001713" d="M2.945-8.453l.07.977a2.951,2.951,0,0,1,2.43-1.133,2.453,2.453,0,0,1,2,.789,3.682,3.682,0,0,1,.672,2.359V0H5.859V-5.406a1.465,1.465,0,0,0-.312-1.043,1.4,1.4,0,0,0-1.039-.324,1.553,1.553,0,0,0-1.43.813V0H.82V-8.453ZM14.727,0A2.507,2.507,0,0,1,14.5-.758a2.732,2.732,0,0,1-2.133.914,3,3,0,0,1-2.059-.719,2.312,2.312,0,0,1-.816-1.812,2.389,2.389,0,0,1,1-2.062,4.915,4.915,0,0,1,2.879-.727h1.039v-.484a1.393,1.393,0,0,0-.3-.937,1.183,1.183,0,0,0-.949-.352,1.345,1.345,0,0,0-.895.273.929.929,0,0,0-.324.75H9.68a2.268,2.268,0,0,1,.453-1.359,3,3,0,0,1,1.281-.98,4.669,4.669,0,0,1,1.859-.355,3.689,3.689,0,0,1,2.48.785,2.747,2.747,0,0,1,.918,2.207v3.664a4.041,4.041,0,0,0,.336,1.82V0ZM12.859-1.57a1.945,1.945,0,0,0,.922-.223,1.462,1.462,0,0,0,.625-.6V-3.844h-.844q-1.7,0-1.8,1.172l-.008.133a.9.9,0,0,0,.3.7A1.153,1.153,0,0,0,12.859-1.57Zm9.063-.094a1.481,1.481,0,0,0,1.016-.344,1.2,1.2,0,0,0,.406-.914h2.117a2.9,2.9,0,0,1-.469,1.574A3.093,3.093,0,0,1,23.73-.238a3.949,3.949,0,0,1-1.77.395A3.67,3.67,0,0,1,19.1-1,4.56,4.56,0,0,1,18.055-4.18v-.148a4.508,4.508,0,0,1,1.039-3.117,3.627,3.627,0,0,1,2.852-1.164,3.555,3.555,0,0,1,2.543.9,3.2,3.2,0,0,1,.973,2.4H23.344a1.551,1.551,0,0,0-.406-1.072,1.354,1.354,0,0,0-1.031-.412,1.36,1.36,0,0,0-1.191.575,3.333,3.333,0,0,0-.4,1.866v.235a3.375,3.375,0,0,0,.4,1.878A1.377,1.377,0,0,0,21.922-1.664ZM29.133,0H26.867V-8.453h2.266Zm-2.4-10.641a1.112,1.112,0,0,1,.34-.836A1.277,1.277,0,0,1,28-11.8a1.28,1.28,0,0,1,.922.328,1.105,1.105,0,0,1,.344.836,1.108,1.108,0,0,1-.348.844A1.283,1.283,0,0,1,28-9.469a1.283,1.283,0,0,1-.918-.328A1.108,1.108,0,0,1,26.734-10.641ZM30.641-4.3a5.013,5.013,0,0,1,.484-2.242A3.546,3.546,0,0,1,32.52-8.07a4.069,4.069,0,0,1,2.113-.539,3.849,3.849,0,0,1,2.793,1.047,4.2,4.2,0,0,1,1.207,2.844l.016.578A4.418,4.418,0,0,1,37.563-1.02,3.775,3.775,0,0,1,34.648.156,3.793,3.793,0,0,1,31.73-1.016,4.5,4.5,0,0,1,30.641-4.2Zm2.258.16A3.16,3.16,0,0,0,33.352-2.3a1.5,1.5,0,0,0,1.3.638,1.5,1.5,0,0,0,1.281-.63,3.457,3.457,0,0,0,.461-2.015A3.128,3.128,0,0,0,35.93-6.14a1.5,1.5,0,0,0-1.3-.649,1.474,1.474,0,0,0-1.281.646A3.516,3.516,0,0,0,32.9-4.144Zm9.219-4.309.07.977a2.951,2.951,0,0,1,2.43-1.133,2.453,2.453,0,0,1,2,.789,3.682,3.682,0,0,1,.672,2.359V0H45.031V-5.406a1.465,1.465,0,0,0-.312-1.043,1.4,1.4,0,0,0-1.039-.324,1.553,1.553,0,0,0-1.43.813V0H39.992V-8.453ZM53.9,0a2.507,2.507,0,0,1-.227-.758,2.732,2.732,0,0,1-2.133.914A3,3,0,0,1,49.48-.562a2.312,2.312,0,0,1-.816-1.812,2.389,2.389,0,0,1,1-2.062,4.915,4.915,0,0,1,2.879-.727h1.039v-.484a1.393,1.393,0,0,0-.3-.937,1.183,1.183,0,0,0-.949-.352,1.345,1.345,0,0,0-.895.273.929.929,0,0,0-.324.75H48.852A2.268,2.268,0,0,1,49.3-7.273a3,3,0,0,1,1.281-.98,4.669,4.669,0,0,1,1.859-.355,3.689,3.689,0,0,1,2.48.785,2.747,2.747,0,0,1,.918,2.207v3.664a4.041,4.041,0,0,0,.336,1.82V0ZM52.031-1.57a1.945,1.945,0,0,0,.922-.223,1.462,1.462,0,0,0,.625-.6V-3.844h-.844q-1.7,0-1.8,1.172l-.008.133a.9.9,0,0,0,.3.7A1.153,1.153,0,0,0,52.031-1.57ZM59.961,0H57.7V-12h2.266Z" transform="translate(69.25 143.721)" fill="#283760"/>
      <path id="Path_1001715" data-name="Path 1001715" d="M9.945-3.789A4.025,4.025,0,0,1,8.59-.9,4.76,4.76,0,0,1,5.367.156,4.28,4.28,0,0,1,1.926-1.316,6.038,6.038,0,0,1,.672-5.359v-.7A6.819,6.819,0,0,1,1.25-8.945,4.332,4.332,0,0,1,2.9-10.863a4.629,4.629,0,0,1,2.5-.668A4.637,4.637,0,0,1,8.57-10.477,4.326,4.326,0,0,1,9.961-7.516H7.617A2.376,2.376,0,0,0,7-9.113a2.271,2.271,0,0,0-1.605-.5,1.991,1.991,0,0,0-1.754.84,4.707,4.707,0,0,0-.6,2.605V-5.3a5.038,5.038,0,0,0,.559,2.7,1.954,1.954,0,0,0,1.762.852,2.314,2.314,0,0,0,1.621-.5A2.241,2.241,0,0,0,7.6-3.789ZM10.984-4.3a5.013,5.013,0,0,1,.484-2.242A3.546,3.546,0,0,1,12.863-8.07a4.069,4.069,0,0,1,2.113-.539A3.849,3.849,0,0,1,17.77-7.562a4.2,4.2,0,0,1,1.207,2.844l.016.578A4.418,4.418,0,0,1,17.906-1.02,3.775,3.775,0,0,1,14.992.156a3.793,3.793,0,0,1-2.918-1.172A4.5,4.5,0,0,1,10.984-4.2Zm2.258.16A3.16,3.16,0,0,0,13.7-2.3a1.5,1.5,0,0,0,1.3.638,1.5,1.5,0,0,0,1.281-.63,3.457,3.457,0,0,0,.461-2.015,3.128,3.128,0,0,0-.461-1.831,1.5,1.5,0,0,0-1.3-.649,1.474,1.474,0,0,0-1.281.646A3.516,3.516,0,0,0,13.242-4.144Zm9.219-4.309.07.977a2.951,2.951,0,0,1,2.43-1.133,2.453,2.453,0,0,1,2,.789,3.682,3.682,0,0,1,.672,2.359V0H25.375V-5.406a1.465,1.465,0,0,0-.312-1.043,1.4,1.4,0,0,0-1.039-.324,1.553,1.553,0,0,0-1.43.813V0H20.336V-8.453ZM33.922-2.336a.727.727,0,0,0-.41-.652A4.659,4.659,0,0,0,32.2-3.414Q29.18-4.047,29.18-5.977a2.323,2.323,0,0,1,.934-1.879,3.766,3.766,0,0,1,2.441-.754,4.053,4.053,0,0,1,2.574.758,2.388,2.388,0,0,1,.965,1.969H33.836a1.092,1.092,0,0,0-.312-.8A1.322,1.322,0,0,0,32.547-7a1.351,1.351,0,0,0-.883.258.814.814,0,0,0-.312.656.7.7,0,0,0,.355.605,3.657,3.657,0,0,0,1.2.4,9.8,9.8,0,0,1,1.422.379A2.336,2.336,0,0,1,36.117-2.43a2.2,2.2,0,0,1-.992,1.871,4.28,4.28,0,0,1-2.562.715,4.47,4.47,0,0,1-1.887-.379,3.166,3.166,0,0,1-1.293-1.039,2.414,2.414,0,0,1-.469-1.426h2.141a1.179,1.179,0,0,0,.445.922,1.766,1.766,0,0,0,1.109.32,1.635,1.635,0,0,0,.98-.246A.766.766,0,0,0,33.922-2.336Zm6.352-8.2v2.078h1.445V-6.8H40.273v4.219a1.007,1.007,0,0,0,.18.672.9.9,0,0,0,.688.2,3.6,3.6,0,0,0,.664-.055V-.047a4.648,4.648,0,0,1-1.367.2,2.156,2.156,0,0,1-2.422-2.4V-6.8H36.781V-8.453h1.234v-2.078Zm7.453,4.2a6.134,6.134,0,0,0-.812-.062,1.654,1.654,0,0,0-1.68.867V0H42.977V-8.453h2.133l.063,1.008a2.092,2.092,0,0,1,1.883-1.164,2.366,2.366,0,0,1,.7.1ZM53.875-.859A2.831,2.831,0,0,1,51.563.156a2.67,2.67,0,0,1-2.074-.781,3.335,3.335,0,0,1-.73-2.289V-8.453h2.258v5.467q0,1.322,1.2,1.322a1.63,1.63,0,0,0,1.578-.8V-8.453h2.266V0H53.938ZM60.148,0H57.883V-8.453h2.266Zm-2.4-10.641a1.112,1.112,0,0,1,.34-.836,1.277,1.277,0,0,1,.926-.328,1.28,1.28,0,0,1,.922.328,1.105,1.105,0,0,1,.344.836,1.108,1.108,0,0,1-.348.844,1.283,1.283,0,0,1-.918.328A1.283,1.283,0,0,1,58.1-9.8,1.108,1.108,0,0,1,57.75-10.641Zm3.906,6.352a5.094,5.094,0,0,1,.887-3.148,2.877,2.877,0,0,1,2.426-1.172,2.589,2.589,0,0,1,2.039.922V-12h2.266V0H67.234l-.109-.9A2.657,2.657,0,0,1,64.953.156,2.869,2.869,0,0,1,62.559-1.02,5.258,5.258,0,0,1,61.656-4.289Zm2.258.168A3.337,3.337,0,0,0,64.328-2.3a1.349,1.349,0,0,0,1.2.634,1.511,1.511,0,0,0,1.477-.884V-5.889a1.489,1.489,0,0,0-1.461-.884Q63.914-6.773,63.914-4.121ZM70.672-4.3a5.013,5.013,0,0,1,.484-2.242A3.546,3.546,0,0,1,72.551-8.07a4.069,4.069,0,0,1,2.113-.539,3.849,3.849,0,0,1,2.793,1.047,4.2,4.2,0,0,1,1.207,2.844l.016.578A4.418,4.418,0,0,1,77.594-1.02,3.775,3.775,0,0,1,74.68.156a3.793,3.793,0,0,1-2.918-1.172A4.5,4.5,0,0,1,70.672-4.2Zm2.258.16A3.16,3.16,0,0,0,73.383-2.3a1.5,1.5,0,0,0,1.3.638,1.5,1.5,0,0,0,1.281-.63,3.457,3.457,0,0,0,.461-2.015,3.128,3.128,0,0,0-.461-1.831,1.5,1.5,0,0,0-1.3-.649,1.474,1.474,0,0,0-1.281.646A3.516,3.516,0,0,0,72.93-4.144ZM84.648-2.336a.727.727,0,0,0-.41-.652,4.659,4.659,0,0,0-1.316-.426q-3.016-.633-3.016-2.562a2.323,2.323,0,0,1,.934-1.879,3.766,3.766,0,0,1,2.441-.754,4.053,4.053,0,0,1,2.574.758,2.388,2.388,0,0,1,.965,1.969H84.563a1.092,1.092,0,0,0-.312-.8A1.322,1.322,0,0,0,83.273-7a1.351,1.351,0,0,0-.883.258.814.814,0,0,0-.312.656.7.7,0,0,0,.355.605,3.657,3.657,0,0,0,1.2.4,9.8,9.8,0,0,1,1.422.379A2.336,2.336,0,0,1,86.844-2.43a2.2,2.2,0,0,1-.992,1.871,4.28,4.28,0,0,1-2.562.715A4.47,4.47,0,0,1,81.4-.223a3.166,3.166,0,0,1-1.293-1.039,2.414,2.414,0,0,1-.469-1.426h2.141a1.179,1.179,0,0,0,.445.922,1.766,1.766,0,0,0,1.109.32,1.635,1.635,0,0,0,.98-.246A.766.766,0,0,0,84.648-2.336Z" transform="translate(373.652 130.133)" fill="#283760"/>
      <rect id="Rectangle_455548" data-name="Rectangle 455548" width="50.897" height="49.788" transform="translate(228.474 102.941)" fill="#283760"/>
      <path id="Path_1001714" data-name="Path 1001714" d="M8.811-10.347h4.583v3.313H8.811v5.18H5.319v-5.18H.724v-3.313h4.6v-4.964H8.811Z" transform="translate(246.964 137.028)" fill="#fff7ee"/>
      <path id="Path_1001665" data-name="Path 1001665" d="M0,118.494v77.677H198.662V172.863l20-16.934-20-16.937v-20.5Z" transform="translate(0 55.766)" fill="#fcae57"/>
      <path id="Path_1001666" data-name="Path 1001666" d="M208.546,118.494v21.695l18.433,15.068-18.433,16.573v24.342H424.635V118.494Z" transform="translate(98.148 55.766)" fill="#bec2cf"/>
      <path id="Path_1001716" data-name="Path 1001716" d="M10.266,0H7.922L3.359-7.484V0H1.016V-11.375H3.359l4.57,7.5v-7.5h2.336Zm6.961-.859A2.831,2.831,0,0,1,14.914.156,2.67,2.67,0,0,1,12.84-.625a3.335,3.335,0,0,1-.73-2.289V-8.453h2.258v5.467q0,1.322,1.2,1.322a1.63,1.63,0,0,0,1.578-.8V-8.453h2.266V0H17.289Z" transform="translate(37.324 210.034)" fill="#283760"/>
      <path id="Path_1001717" data-name="Path 1001717" d="M4.46.146A3.89,3.89,0,0,1,1.622-.923,3.8,3.8,0,0,1,.527-3.772v-.205A4.787,4.787,0,0,1,.989-6.112,3.386,3.386,0,0,1,2.3-7.562a3.669,3.669,0,0,1,1.93-.509,3.289,3.289,0,0,1,2.56,1.025A4.167,4.167,0,0,1,7.72-4.138v.864H2.673a1.966,1.966,0,0,0,.619,1.245A1.871,1.871,0,0,0,4.6-1.56a2.285,2.285,0,0,0,1.912-.886l1.04,1.165A3.178,3.178,0,0,1,6.262-.231,4.229,4.229,0,0,1,4.46.146ZM4.219-6.365A1.323,1.323,0,0,0,3.2-5.938a2.209,2.209,0,0,0-.5,1.221H5.64v-.169a1.576,1.576,0,0,0-.381-1.092A1.365,1.365,0,0,0,4.219-6.365Z" transform="translate(57.804 209.034)" fill="#283760"/>
      <path id="Path_1001718" data-name="Path 1001718" d="M4.031-2.758l1.57-5.7H7.961L5.109,0H2.953L.1-8.453H2.461Z" transform="translate(66.378 210.034)" fill="#283760"/>
      <path id="Path_1001719" data-name="Path 1001719" d="M.516-4.3A5.013,5.013,0,0,1,1-6.547,3.546,3.546,0,0,1,2.395-8.07a4.069,4.069,0,0,1,2.113-.539A3.849,3.849,0,0,1,7.3-7.562,4.2,4.2,0,0,1,8.508-4.719l.016.578A4.418,4.418,0,0,1,7.438-1.02,3.775,3.775,0,0,1,4.523.156,3.793,3.793,0,0,1,1.605-1.016,4.5,4.5,0,0,1,.516-4.2Zm2.258.16A3.16,3.16,0,0,0,3.227-2.3a1.5,1.5,0,0,0,1.3.638A1.5,1.5,0,0,0,5.8-2.294a3.457,3.457,0,0,0,.461-2.015A3.128,3.128,0,0,0,5.8-6.14a1.5,1.5,0,0,0-1.3-.649,1.474,1.474,0,0,0-1.281.646A3.516,3.516,0,0,0,2.773-4.144ZM14.492-2.336a.727.727,0,0,0-.41-.652,4.659,4.659,0,0,0-1.316-.426Q9.75-4.047,9.75-5.977a2.323,2.323,0,0,1,.934-1.879,3.766,3.766,0,0,1,2.441-.754,4.053,4.053,0,0,1,2.574.758,2.388,2.388,0,0,1,.965,1.969H14.406a1.092,1.092,0,0,0-.312-.8A1.322,1.322,0,0,0,13.117-7a1.351,1.351,0,0,0-.883.258.814.814,0,0,0-.312.656.7.7,0,0,0,.355.605,3.657,3.657,0,0,0,1.2.4A9.8,9.8,0,0,1,14.9-4.7,2.336,2.336,0,0,1,16.688-2.43,2.2,2.2,0,0,1,15.7-.559a4.28,4.28,0,0,1-2.562.715,4.47,4.47,0,0,1-1.887-.379A3.166,3.166,0,0,1,9.953-1.262a2.414,2.414,0,0,1-.469-1.426h2.141a1.179,1.179,0,0,0,.445.922,1.766,1.766,0,0,0,1.109.32,1.635,1.635,0,0,0,.98-.246A.766.766,0,0,0,14.492-2.336Zm11.148.672a1.481,1.481,0,0,0,1.016-.344,1.2,1.2,0,0,0,.406-.914H29.18a2.9,2.9,0,0,1-.469,1.574A3.093,3.093,0,0,1,27.449-.238a3.949,3.949,0,0,1-1.77.395A3.67,3.67,0,0,1,22.82-1,4.56,4.56,0,0,1,21.773-4.18v-.148a4.508,4.508,0,0,1,1.039-3.117,3.627,3.627,0,0,1,2.852-1.164,3.555,3.555,0,0,1,2.543.9,3.2,3.2,0,0,1,.973,2.4H27.063a1.551,1.551,0,0,0-.406-1.072,1.354,1.354,0,0,0-1.031-.412,1.36,1.36,0,0,0-1.191.575,3.333,3.333,0,0,0-.4,1.866v.235a3.375,3.375,0,0,0,.4,1.878A1.377,1.377,0,0,0,25.641-1.664Zm9.891.8A2.831,2.831,0,0,1,33.219.156a2.67,2.67,0,0,1-2.074-.781,3.335,3.335,0,0,1-.73-2.289V-8.453h2.258v5.467q0,1.322,1.2,1.322a1.63,1.63,0,0,0,1.578-.8V-8.453h2.266V0H35.594Zm11.5-3.289a5.07,5.07,0,0,1-.887,3.129A2.843,2.843,0,0,1,43.75.156a2.633,2.633,0,0,1-2.07-.891V3.25H39.422v-11.7h2.094l.078.828a2.654,2.654,0,0,1,2.141-.984,2.862,2.862,0,0,1,2.43,1.156,5.207,5.207,0,0,1,.867,3.188Zm-2.258-.164a3.327,3.327,0,0,0-.418-1.82,1.361,1.361,0,0,0-1.215-.641,1.479,1.479,0,0,0-1.461.813V-2.5a1.5,1.5,0,0,0,1.477.836Q44.773-1.664,44.773-4.312Zm3.3.008a5.013,5.013,0,0,1,.484-2.242A3.546,3.546,0,0,1,49.957-8.07a4.069,4.069,0,0,1,2.113-.539,3.849,3.849,0,0,1,2.793,1.047A4.2,4.2,0,0,1,56.07-4.719l.016.578A4.418,4.418,0,0,1,55-1.02,3.775,3.775,0,0,1,52.086.156a3.793,3.793,0,0,1-2.918-1.172A4.5,4.5,0,0,1,48.078-4.2Zm2.258.16A3.16,3.16,0,0,0,50.789-2.3a1.5,1.5,0,0,0,1.3.638,1.5,1.5,0,0,0,1.281-.63,3.457,3.457,0,0,0,.461-2.015,3.128,3.128,0,0,0-.461-1.831,1.5,1.5,0,0,0-1.3-.649,1.474,1.474,0,0,0-1.281.646A3.516,3.516,0,0,0,50.336-4.144ZM62.055-2.336a.727.727,0,0,0-.41-.652,4.659,4.659,0,0,0-1.316-.426q-3.016-.633-3.016-2.562a2.323,2.323,0,0,1,.934-1.879,3.766,3.766,0,0,1,2.441-.754,4.053,4.053,0,0,1,2.574.758,2.388,2.388,0,0,1,.965,1.969H61.969a1.092,1.092,0,0,0-.312-.8A1.322,1.322,0,0,0,60.68-7a1.351,1.351,0,0,0-.883.258.814.814,0,0,0-.312.656.7.7,0,0,0,.355.605,3.657,3.657,0,0,0,1.2.4,9.8,9.8,0,0,1,1.422.379A2.336,2.336,0,0,1,64.25-2.43a2.2,2.2,0,0,1-.992,1.871A4.28,4.28,0,0,1,60.7.156a4.47,4.47,0,0,1-1.887-.379,3.166,3.166,0,0,1-1.293-1.039,2.414,2.414,0,0,1-.469-1.426h2.141a1.179,1.179,0,0,0,.445.922,1.766,1.766,0,0,0,1.109.32,1.635,1.635,0,0,0,.98-.246A.766.766,0,0,0,62.055-2.336ZM73.578.156A4.15,4.15,0,0,1,70.551-.984a4.054,4.054,0,0,1-1.168-3.039v-.219a5.106,5.106,0,0,1,.492-2.277A3.612,3.612,0,0,1,71.27-8.066a3.914,3.914,0,0,1,2.059-.543,3.508,3.508,0,0,1,2.73,1.094,4.444,4.444,0,0,1,1,3.1v.922H71.672a2.1,2.1,0,0,0,.66,1.328,2,2,0,0,0,1.395.5,2.437,2.437,0,0,0,2.039-.945l1.109,1.242A3.389,3.389,0,0,1,75.5-.246,4.511,4.511,0,0,1,73.578.156ZM73.32-6.789a1.411,1.411,0,0,0-1.09.455,2.357,2.357,0,0,0-.535,1.3h3.141v-.181a1.681,1.681,0,0,0-.406-1.165A1.456,1.456,0,0,0,73.32-6.789Zm7.094-1.664.07.977a2.951,2.951,0,0,1,2.43-1.133,2.453,2.453,0,0,1,2,.789,3.682,3.682,0,0,1,.672,2.359V0H83.328V-5.406a1.465,1.465,0,0,0-.312-1.043,1.4,1.4,0,0,0-1.039-.324,1.553,1.553,0,0,0-1.43.813V0H78.289V-8.453Z" transform="translate(74.402 210.034)" fill="#283760"/>
      <path id="Path_1001720" data-name="Path 1001720" d="M4.758.156A4.15,4.15,0,0,1,1.73-.984,4.054,4.054,0,0,1,.563-4.023v-.219A5.106,5.106,0,0,1,1.055-6.52,3.612,3.612,0,0,1,2.449-8.066a3.914,3.914,0,0,1,2.059-.543,3.508,3.508,0,0,1,2.73,1.094,4.444,4.444,0,0,1,1,3.1v.922H2.852a2.1,2.1,0,0,0,.66,1.328,2,2,0,0,0,1.395.5,2.437,2.437,0,0,0,2.039-.945L8.055-1.367A3.389,3.389,0,0,1,6.68-.246,4.511,4.511,0,0,1,4.758.156ZM4.5-6.789a1.411,1.411,0,0,0-1.09.455,2.357,2.357,0,0,0-.535,1.3H6.016v-.181a1.681,1.681,0,0,0-.406-1.165A1.456,1.456,0,0,0,4.5-6.789Zm4.664,2.5a5.094,5.094,0,0,1,.887-3.148,2.877,2.877,0,0,1,2.426-1.172,2.589,2.589,0,0,1,2.039.922V-12h2.266V0H14.742l-.109-.9A2.657,2.657,0,0,1,12.461.156,2.869,2.869,0,0,1,10.066-1.02,5.258,5.258,0,0,1,9.164-4.289Zm2.258.168A3.337,3.337,0,0,0,11.836-2.3a1.349,1.349,0,0,0,1.2.634,1.511,1.511,0,0,0,1.477-.884V-5.889a1.489,1.489,0,0,0-1.461-.884Q11.422-6.773,11.422-4.121ZM23.594-.859A2.831,2.831,0,0,1,21.281.156a2.67,2.67,0,0,1-2.074-.781,3.335,3.335,0,0,1-.73-2.289V-8.453h2.258v5.467q0,1.322,1.2,1.322a1.63,1.63,0,0,0,1.578-.8V-8.453h2.266V0H23.656ZM31-1.664a1.481,1.481,0,0,0,1.016-.344,1.2,1.2,0,0,0,.406-.914h2.117a2.9,2.9,0,0,1-.469,1.574A3.093,3.093,0,0,1,32.809-.238a3.949,3.949,0,0,1-1.77.395A3.67,3.67,0,0,1,28.18-1,4.56,4.56,0,0,1,27.133-4.18v-.148a4.508,4.508,0,0,1,1.039-3.117,3.627,3.627,0,0,1,2.852-1.164,3.555,3.555,0,0,1,2.543.9,3.2,3.2,0,0,1,.973,2.4H32.422a1.551,1.551,0,0,0-.406-1.072,1.354,1.354,0,0,0-1.031-.412,1.36,1.36,0,0,0-1.191.575,3.333,3.333,0,0,0-.4,1.866v.235a3.375,3.375,0,0,0,.4,1.878A1.377,1.377,0,0,0,31-1.664ZM40.727,0A2.507,2.507,0,0,1,40.5-.758a2.732,2.732,0,0,1-2.133.914,3,3,0,0,1-2.059-.719,2.312,2.312,0,0,1-.816-1.812,2.389,2.389,0,0,1,1-2.062,4.915,4.915,0,0,1,2.879-.727h1.039v-.484a1.393,1.393,0,0,0-.3-.937,1.183,1.183,0,0,0-.949-.352,1.345,1.345,0,0,0-.895.273.929.929,0,0,0-.324.75H35.68a2.268,2.268,0,0,1,.453-1.359,3,3,0,0,1,1.281-.98,4.669,4.669,0,0,1,1.859-.355,3.689,3.689,0,0,1,2.48.785,2.747,2.747,0,0,1,.918,2.207v3.664a4.041,4.041,0,0,0,.336,1.82V0ZM38.859-1.57a1.945,1.945,0,0,0,.922-.223,1.462,1.462,0,0,0,.625-.6V-3.844h-.844q-1.7,0-1.8,1.172l-.008.133a.9.9,0,0,0,.3.7A1.153,1.153,0,0,0,38.859-1.57Zm9.063-.094a1.481,1.481,0,0,0,1.016-.344,1.2,1.2,0,0,0,.406-.914h2.117a2.9,2.9,0,0,1-.469,1.574A3.093,3.093,0,0,1,49.73-.238a3.949,3.949,0,0,1-1.77.395A3.67,3.67,0,0,1,45.1-1,4.56,4.56,0,0,1,44.055-4.18v-.148a4.508,4.508,0,0,1,1.039-3.117,3.627,3.627,0,0,1,2.852-1.164,3.555,3.555,0,0,1,2.543.9,3.2,3.2,0,0,1,.973,2.4H49.344a1.551,1.551,0,0,0-.406-1.072,1.354,1.354,0,0,0-1.031-.412,1.36,1.36,0,0,0-1.191.575,3.333,3.333,0,0,0-.4,1.866v.235a3.375,3.375,0,0,0,.4,1.878A1.377,1.377,0,0,0,47.922-1.664ZM55.133,0H52.867V-8.453h2.266Zm-2.4-10.641a1.112,1.112,0,0,1,.34-.836A1.277,1.277,0,0,1,54-11.8a1.28,1.28,0,0,1,.922.328,1.105,1.105,0,0,1,.344.836,1.108,1.108,0,0,1-.348.844A1.283,1.283,0,0,1,54-9.469a1.283,1.283,0,0,1-.918-.328A1.108,1.108,0,0,1,52.734-10.641ZM56.641-4.3a5.013,5.013,0,0,1,.484-2.242A3.546,3.546,0,0,1,58.52-8.07a4.069,4.069,0,0,1,2.113-.539,3.849,3.849,0,0,1,2.793,1.047,4.2,4.2,0,0,1,1.207,2.844l.016.578A4.418,4.418,0,0,1,63.563-1.02,3.775,3.775,0,0,1,60.648.156,3.793,3.793,0,0,1,57.73-1.016,4.5,4.5,0,0,1,56.641-4.2Zm2.258.16A3.16,3.16,0,0,0,59.352-2.3a1.5,1.5,0,0,0,1.3.638,1.5,1.5,0,0,0,1.281-.63,3.457,3.457,0,0,0,.461-2.015A3.128,3.128,0,0,0,61.93-6.14a1.5,1.5,0,0,0-1.3-.649,1.474,1.474,0,0,0-1.281.646A3.516,3.516,0,0,0,58.9-4.144ZM61.078-12h2.461L61.375-9.578H59.539Zm7.039,3.547.07.977a2.951,2.951,0,0,1,2.43-1.133,2.453,2.453,0,0,1,2,.789,3.682,3.682,0,0,1,.672,2.359V0H71.031V-5.406a1.465,1.465,0,0,0-.312-1.043,1.4,1.4,0,0,0-1.039-.324,1.553,1.553,0,0,0-1.43.813V0H65.992V-8.453ZM83.563-2.336a.727.727,0,0,0-.41-.652,4.659,4.659,0,0,0-1.316-.426Q78.82-4.047,78.82-5.977a2.323,2.323,0,0,1,.934-1.879A3.766,3.766,0,0,1,82.2-8.609a4.053,4.053,0,0,1,2.574.758,2.388,2.388,0,0,1,.965,1.969H83.477a1.092,1.092,0,0,0-.312-.8A1.322,1.322,0,0,0,82.188-7a1.351,1.351,0,0,0-.883.258.814.814,0,0,0-.312.656.7.7,0,0,0,.355.605,3.657,3.657,0,0,0,1.2.4,9.8,9.8,0,0,1,1.422.379A2.336,2.336,0,0,1,85.758-2.43a2.2,2.2,0,0,1-.992,1.871A4.28,4.28,0,0,1,82.2.156a4.47,4.47,0,0,1-1.887-.379,3.166,3.166,0,0,1-1.293-1.039,2.414,2.414,0,0,1-.469-1.426H80.7a1.179,1.179,0,0,0,.445.922,1.766,1.766,0,0,0,1.109.32,1.635,1.635,0,0,0,.98-.246A.766.766,0,0,0,83.563-2.336ZM92.273-.859A2.831,2.831,0,0,1,89.961.156a2.67,2.67,0,0,1-2.074-.781,3.335,3.335,0,0,1-.73-2.289V-8.453h2.258v5.467q0,1.322,1.2,1.322a1.63,1.63,0,0,0,1.578-.8V-8.453h2.266V0H92.336Zm11.5-3.289a5.07,5.07,0,0,1-.887,3.129A2.843,2.843,0,0,1,100.492.156a2.633,2.633,0,0,1-2.07-.891V3.25H96.164v-11.7h2.094l.078.828a2.654,2.654,0,0,1,2.141-.984,2.862,2.862,0,0,1,2.43,1.156,5.207,5.207,0,0,1,.867,3.188Zm-2.258-.164a3.327,3.327,0,0,0-.418-1.82,1.361,1.361,0,0,0-1.215-.641,1.478,1.478,0,0,0-1.461.813V-2.5a1.5,1.5,0,0,0,1.477.836Q101.516-1.664,101.516-4.312ZM109.063.156a4.15,4.15,0,0,1-3.027-1.141,4.054,4.054,0,0,1-1.168-3.039v-.219a5.106,5.106,0,0,1,.492-2.277,3.612,3.612,0,0,1,1.395-1.547,3.914,3.914,0,0,1,2.059-.543,3.508,3.508,0,0,1,2.73,1.094,4.444,4.444,0,0,1,1,3.1v.922h-5.383a2.1,2.1,0,0,0,.66,1.328,2,2,0,0,0,1.395.5,2.437,2.437,0,0,0,2.039-.945l1.109,1.242a3.389,3.389,0,0,1-1.375,1.121A4.511,4.511,0,0,1,109.063.156ZM108.8-6.789a1.411,1.411,0,0,0-1.09.455,2.357,2.357,0,0,0-.535,1.3h3.141v-.181a1.681,1.681,0,0,0-.406-1.165A1.456,1.456,0,0,0,108.8-6.789Zm9.766.453a6.134,6.134,0,0,0-.812-.062,1.654,1.654,0,0,0-1.68.867V0H113.82V-8.453h2.133l.063,1.008A2.092,2.092,0,0,1,117.9-8.609a2.366,2.366,0,0,1,.7.1ZM122.039,0h-2.266V-8.453h2.266Zm-2.4-10.641a1.112,1.112,0,0,1,.34-.836,1.277,1.277,0,0,1,.926-.328,1.28,1.28,0,0,1,.922.328,1.105,1.105,0,0,1,.344.836,1.108,1.108,0,0,1-.348.844,1.283,1.283,0,0,1-.918.328,1.283,1.283,0,0,1-.918-.328A1.108,1.108,0,0,1,119.641-10.641ZM123.547-4.3a5.013,5.013,0,0,1,.484-2.242,3.546,3.546,0,0,1,1.395-1.523,4.069,4.069,0,0,1,2.113-.539,3.849,3.849,0,0,1,2.793,1.047,4.2,4.2,0,0,1,1.207,2.844l.016.578a4.418,4.418,0,0,1-1.086,3.121A3.775,3.775,0,0,1,127.555.156a3.793,3.793,0,0,1-2.918-1.172,4.5,4.5,0,0,1-1.09-3.187Zm2.258.16a3.16,3.16,0,0,0,.453,1.843,1.5,1.5,0,0,0,1.3.638,1.5,1.5,0,0,0,1.281-.63,3.457,3.457,0,0,0,.461-2.015,3.128,3.128,0,0,0-.461-1.831,1.5,1.5,0,0,0-1.3-.649,1.474,1.474,0,0,0-1.281.646A3.516,3.516,0,0,0,125.8-4.144ZM137.7-6.336a6.134,6.134,0,0,0-.812-.062,1.654,1.654,0,0,0-1.68.867V0h-2.258V-8.453h2.133l.063,1.008a2.092,2.092,0,0,1,1.883-1.164,2.366,2.366,0,0,1,.7.1Z" transform="translate(28.152 227.683)" fill="#283760"/>
      <path id="Path_1001722" data-name="Path 1001722" d="M9.39-1.348a3.814,3.814,0,0,1-1.677,1.1,7.024,7.024,0,0,1-2.4.392,4.759,4.759,0,0,1-2.428-.6A4.03,4.03,0,0,1,1.271-2.212a6.174,6.174,0,0,1-.582-2.7V-5.64A6.557,6.557,0,0,1,1.227-8.4,3.982,3.982,0,0,1,2.78-10.192a4.473,4.473,0,0,1,2.377-.619,4.454,4.454,0,0,1,2.966.9A3.866,3.866,0,0,1,9.39-7.273H7.251A2.126,2.126,0,0,0,6.6-8.613a2.07,2.07,0,0,0-1.381-.425A1.948,1.948,0,0,0,3.516-8.2a4.429,4.429,0,0,0-.593,2.5v.681A4.216,4.216,0,0,0,3.56-2.476a2.182,2.182,0,0,0,1.868.857,2.437,2.437,0,0,0,1.765-.527V-3.984h-2V-5.6h4.2ZM14.678.146A3.89,3.89,0,0,1,11.84-.923a3.8,3.8,0,0,1-1.095-2.849v-.205a4.787,4.787,0,0,1,.461-2.135,3.386,3.386,0,0,1,1.307-1.45,3.669,3.669,0,0,1,1.93-.509A3.289,3.289,0,0,1,17-7.046a4.167,4.167,0,0,1,.934,2.908v.864H12.891a1.966,1.966,0,0,0,.619,1.245,1.871,1.871,0,0,0,1.307.469,2.285,2.285,0,0,0,1.912-.886l1.04,1.165A3.178,3.178,0,0,1,16.479-.231,4.229,4.229,0,0,1,14.678.146Zm-.242-6.511a1.323,1.323,0,0,0-1.022.427,2.209,2.209,0,0,0-.5,1.221h2.944v-.169a1.576,1.576,0,0,0-.381-1.092A1.365,1.365,0,0,0,14.436-6.365Zm6.65-1.56.066.916A2.767,2.767,0,0,1,23.43-8.071a2.3,2.3,0,0,1,1.875.74,3.451,3.451,0,0,1,.63,2.212V0H23.818V-5.068a1.373,1.373,0,0,0-.293-.978,1.312,1.312,0,0,0-.974-.3,1.456,1.456,0,0,0-1.34.762V0H19.094V-7.925ZM31.187.146A3.89,3.89,0,0,1,28.348-.923a3.8,3.8,0,0,1-1.095-2.849v-.205a4.787,4.787,0,0,1,.461-2.135,3.386,3.386,0,0,1,1.307-1.45,3.669,3.669,0,0,1,1.93-.509,3.289,3.289,0,0,1,2.56,1.025,4.167,4.167,0,0,1,.934,2.908v.864H29.4a1.966,1.966,0,0,0,.619,1.245,1.871,1.871,0,0,0,1.307.469,2.285,2.285,0,0,0,1.912-.886l1.04,1.165A3.178,3.178,0,0,1,32.988-.231,4.229,4.229,0,0,1,31.187.146Zm-.242-6.511a1.323,1.323,0,0,0-1.022.427,2.209,2.209,0,0,0-.5,1.221h2.944v-.169a1.576,1.576,0,0,0-.381-1.092A1.365,1.365,0,0,0,30.945-6.365ZM40.1-5.94A5.751,5.751,0,0,0,39.338-6a1.55,1.55,0,0,0-1.575.813V0H35.647V-7.925h2l.059.945A1.961,1.961,0,0,1,39.47-8.071a2.218,2.218,0,0,1,.659.1ZM45.491,0a2.351,2.351,0,0,1-.212-.71,2.561,2.561,0,0,1-2,.857,2.814,2.814,0,0,1-1.93-.674,2.167,2.167,0,0,1-.765-1.7,2.24,2.24,0,0,1,.934-1.934,4.608,4.608,0,0,1,2.7-.681h.974V-5.3a1.306,1.306,0,0,0-.282-.879,1.109,1.109,0,0,0-.89-.33,1.261,1.261,0,0,0-.839.256.871.871,0,0,0-.3.7H40.759a2.126,2.126,0,0,1,.425-1.274,2.808,2.808,0,0,1,1.2-.919,4.378,4.378,0,0,1,1.743-.333,3.459,3.459,0,0,1,2.325.736,2.575,2.575,0,0,1,.861,2.069v3.435a3.789,3.789,0,0,0,.315,1.707V0ZM43.74-1.472a1.823,1.823,0,0,0,.864-.209,1.371,1.371,0,0,0,.586-.56V-3.6H44.4q-1.589,0-1.692,1.1L42.7-2.38a.847.847,0,0,0,.278.652A1.081,1.081,0,0,0,43.74-1.472Zm4.871-2.549a4.776,4.776,0,0,1,.831-2.952,2.7,2.7,0,0,1,2.274-1.1,2.427,2.427,0,0,1,1.912.864V-11.25h2.124V0H53.84l-.1-.842A2.491,2.491,0,0,1,51.7.146a2.69,2.69,0,0,1-2.245-1.1A4.93,4.93,0,0,1,48.611-4.021Zm2.117.158a3.128,3.128,0,0,0,.388,1.709,1.265,1.265,0,0,0,1.128.594,1.416,1.416,0,0,0,1.384-.829V-5.521a1.4,1.4,0,0,0-1.37-.829Q50.728-6.35,50.728-3.863Zm6.335-.172a4.7,4.7,0,0,1,.454-2.1,3.324,3.324,0,0,1,1.307-1.428,3.814,3.814,0,0,1,1.981-.505,3.609,3.609,0,0,1,2.618.981,3.939,3.939,0,0,1,1.132,2.666l.015.542A4.142,4.142,0,0,1,63.552-.956,3.539,3.539,0,0,1,60.82.146a3.556,3.556,0,0,1-2.736-1.1A4.215,4.215,0,0,1,57.063-3.94Zm2.117.15A2.962,2.962,0,0,0,59.6-2.158a1.4,1.4,0,0,0,1.216.6,1.4,1.4,0,0,0,1.2-.591,3.241,3.241,0,0,0,.432-1.889,2.933,2.933,0,0,0-.432-1.716,1.4,1.4,0,0,0-1.216-.609,1.382,1.382,0,0,0-1.2.605A3.3,3.3,0,0,0,59.18-3.885Zm10.986,1.7a.682.682,0,0,0-.385-.612,4.368,4.368,0,0,0-1.234-.4Q65.72-3.794,65.72-5.6A2.178,2.178,0,0,1,66.6-7.365a3.531,3.531,0,0,1,2.289-.707,3.8,3.8,0,0,1,2.413.71,2.239,2.239,0,0,1,.9,1.846H70.085a1.024,1.024,0,0,0-.293-.751,1.24,1.24,0,0,0-.916-.3,1.267,1.267,0,0,0-.828.242.763.763,0,0,0-.293.615.652.652,0,0,0,.333.568,3.428,3.428,0,0,0,1.124.374,9.183,9.183,0,0,1,1.333.355,2.19,2.19,0,0,1,1.677,2.131,2.067,2.067,0,0,1-.93,1.754,4.013,4.013,0,0,1-2.4.67,4.191,4.191,0,0,1-1.769-.355,2.968,2.968,0,0,1-1.212-.974,2.263,2.263,0,0,1-.439-1.337h2.007a1.105,1.105,0,0,0,.417.864,1.656,1.656,0,0,0,1.04.3,1.533,1.533,0,0,0,.919-.231A.718.718,0,0,0,70.166-2.19Z" transform="translate(379.16 214.696)" fill="#283760"/>
      <rect id="Rectangle_455549" data-name="Rectangle 455549" width="50.897" height="49.788" transform="translate(228.474 190.071)" fill="#283760"/>
      <path id="Path_1001721" data-name="Path 1001721" d="M8.811-10.347h4.583v3.313H8.811v5.18H5.319v-5.18H.724v-3.313h4.6v-4.964H8.811Z" transform="translate(246.964 224.158)" fill="#fff7ee"/>
      <path id="Path_1001667" data-name="Path 1001667" d="M0,177.741v77.677H198.662V232.11l20-16.934-20-16.937v-20.5Z" transform="translate(0 83.65)" fill="#fcae57"/>
      <path id="Path_1001668" data-name="Path 1001668" d="M208.546,177.741v21.695L226.979,214.5l-18.433,16.573v24.342H424.635V177.741Z" transform="translate(98.148 83.65)" fill="#bec2cf"/>
      <path id="Path_1001723" data-name="Path 1001723" d="M3.359-4.008V0H1.016V-11.375H5.453a5.134,5.134,0,0,1,2.254.469A3.454,3.454,0,0,1,9.2-9.574a3.714,3.714,0,0,1,.523,1.965A3.266,3.266,0,0,1,8.582-4.973a4.767,4.767,0,0,1-3.168.965Zm0-1.9H5.453a2.059,2.059,0,0,0,1.418-.437,1.591,1.591,0,0,0,.488-1.25,1.876,1.876,0,0,0-.492-1.352,1.839,1.839,0,0,0-1.359-.531H3.359Zm12.578-.43a6.134,6.134,0,0,0-.812-.062,1.654,1.654,0,0,0-1.68.867V0H11.188V-8.453H13.32l.063,1.008a2.092,2.092,0,0,1,1.883-1.164,2.366,2.366,0,0,1,.7.1Z" transform="translate(53.527 287.989)" fill="#283760"/>
      <path id="Path_1001724" data-name="Path 1001724" d="M.516-4.3A5.013,5.013,0,0,1,1-6.547,3.546,3.546,0,0,1,2.395-8.07a4.069,4.069,0,0,1,2.113-.539A3.849,3.849,0,0,1,7.3-7.562,4.2,4.2,0,0,1,8.508-4.719l.016.578A4.418,4.418,0,0,1,7.438-1.02,3.775,3.775,0,0,1,4.523.156,3.793,3.793,0,0,1,1.605-1.016,4.5,4.5,0,0,1,.516-4.2Zm2.258.16A3.16,3.16,0,0,0,3.227-2.3a1.5,1.5,0,0,0,1.3.638A1.5,1.5,0,0,0,5.8-2.294a3.457,3.457,0,0,0,.461-2.015A3.128,3.128,0,0,0,5.8-6.14a1.5,1.5,0,0,0-1.3-.649,1.474,1.474,0,0,0-1.281.646A3.516,3.516,0,0,0,2.773-4.144Zm10.1.949,1.563-5.258h2.422l-3.4,9.766-.187.445a2.577,2.577,0,0,1-2.5,1.656,3.552,3.552,0,0,1-1-.148V1.555l.344.008a1.857,1.857,0,0,0,.957-.2,1.283,1.283,0,0,0,.5-.648l.266-.7L8.878-8.453h2.43Z" transform="translate(69.866 287.989)" fill="#283760"/>
      <path id="Path_1001725" data-name="Path 1001725" d="M4.758.156A4.15,4.15,0,0,1,1.73-.984,4.054,4.054,0,0,1,.563-4.023v-.219A5.106,5.106,0,0,1,1.055-6.52,3.612,3.612,0,0,1,2.449-8.066a3.914,3.914,0,0,1,2.059-.543,3.508,3.508,0,0,1,2.73,1.094,4.444,4.444,0,0,1,1,3.1v.922H2.852a2.1,2.1,0,0,0,.66,1.328,2,2,0,0,0,1.395.5,2.437,2.437,0,0,0,2.039-.945L8.055-1.367A3.389,3.389,0,0,1,6.68-.246,4.511,4.511,0,0,1,4.758.156ZM4.5-6.789a1.411,1.411,0,0,0-1.09.455,2.357,2.357,0,0,0-.535,1.3H6.016v-.181a1.681,1.681,0,0,0-.406-1.165A1.456,1.456,0,0,0,4.5-6.789Zm8.531,5.125a1.481,1.481,0,0,0,1.016-.344,1.2,1.2,0,0,0,.406-.914H16.57A2.9,2.9,0,0,1,16.1-1.348,3.093,3.093,0,0,1,14.84-.238a3.949,3.949,0,0,1-1.77.395A3.67,3.67,0,0,1,10.211-1,4.56,4.56,0,0,1,9.164-4.18v-.148A4.508,4.508,0,0,1,10.2-7.445a3.627,3.627,0,0,1,2.852-1.164,3.555,3.555,0,0,1,2.543.9,3.2,3.2,0,0,1,.973,2.4H14.453a1.551,1.551,0,0,0-.406-1.072,1.354,1.354,0,0,0-1.031-.412,1.36,1.36,0,0,0-1.191.575,3.333,3.333,0,0,0-.4,1.866v.235a3.375,3.375,0,0,0,.4,1.878A1.377,1.377,0,0,0,13.031-1.664Zm7.531-8.867v2.078h1.445V-6.8H20.563v4.219a1.007,1.007,0,0,0,.18.672.9.9,0,0,0,.688.2,3.6,3.6,0,0,0,.664-.055V-.047a4.648,4.648,0,0,1-1.367.2,2.156,2.156,0,0,1-2.422-2.4V-6.8H17.07V-8.453H18.3v-2.078ZM22.68-4.3a5.013,5.013,0,0,1,.484-2.242A3.546,3.546,0,0,1,24.559-8.07a4.069,4.069,0,0,1,2.113-.539,3.849,3.849,0,0,1,2.793,1.047,4.2,4.2,0,0,1,1.207,2.844l.016.578A4.418,4.418,0,0,1,29.6-1.02,3.775,3.775,0,0,1,26.688.156,3.793,3.793,0,0,1,23.77-1.016,4.5,4.5,0,0,1,22.68-4.2Zm2.258.16A3.16,3.16,0,0,0,25.391-2.3a1.5,1.5,0,0,0,1.3.638,1.5,1.5,0,0,0,1.281-.63,3.457,3.457,0,0,0,.461-2.015,3.128,3.128,0,0,0-.461-1.831,1.5,1.5,0,0,0-1.3-.649,1.474,1.474,0,0,0-1.281.646A3.516,3.516,0,0,0,24.938-4.144ZM36.656-2.336a.727.727,0,0,0-.41-.652,4.659,4.659,0,0,0-1.316-.426q-3.016-.633-3.016-2.562a2.323,2.323,0,0,1,.934-1.879,3.766,3.766,0,0,1,2.441-.754,4.053,4.053,0,0,1,2.574.758,2.388,2.388,0,0,1,.965,1.969H36.57a1.092,1.092,0,0,0-.312-.8A1.322,1.322,0,0,0,35.281-7a1.351,1.351,0,0,0-.883.258.814.814,0,0,0-.312.656.7.7,0,0,0,.355.605,3.657,3.657,0,0,0,1.2.4,9.8,9.8,0,0,1,1.422.379A2.336,2.336,0,0,1,38.852-2.43a2.2,2.2,0,0,1-.992,1.871A4.28,4.28,0,0,1,35.3.156,4.47,4.47,0,0,1,33.41-.223a3.166,3.166,0,0,1-1.293-1.039,2.414,2.414,0,0,1-.469-1.426h2.141a1.179,1.179,0,0,0,.445.922,1.766,1.766,0,0,0,1.109.32,1.635,1.635,0,0,0,.98-.246A.766.766,0,0,0,36.656-2.336Zm7.281-1.953a5.094,5.094,0,0,1,.887-3.148A2.877,2.877,0,0,1,47.25-8.609a2.589,2.589,0,0,1,2.039.922V-12h2.266V0H49.516l-.109-.9A2.657,2.657,0,0,1,47.234.156,2.869,2.869,0,0,1,44.84-1.02,5.258,5.258,0,0,1,43.938-4.289Zm2.258.168A3.337,3.337,0,0,0,46.609-2.3a1.349,1.349,0,0,0,1.2.634,1.511,1.511,0,0,0,1.477-.884V-5.889a1.489,1.489,0,0,0-1.461-.884Q46.2-6.773,46.2-4.121ZM57.2.156A4.15,4.15,0,0,1,54.168-.984,4.054,4.054,0,0,1,53-4.023v-.219a5.106,5.106,0,0,1,.492-2.277,3.612,3.612,0,0,1,1.395-1.547,3.914,3.914,0,0,1,2.059-.543,3.508,3.508,0,0,1,2.73,1.094,4.444,4.444,0,0,1,1,3.1v.922H55.289a2.1,2.1,0,0,0,.66,1.328,2,2,0,0,0,1.395.5,2.437,2.437,0,0,0,2.039-.945l1.109,1.242A3.389,3.389,0,0,1,59.117-.246,4.511,4.511,0,0,1,57.2.156Zm-.258-6.945a1.411,1.411,0,0,0-1.09.455,2.357,2.357,0,0,0-.535,1.3h3.141v-.181a1.681,1.681,0,0,0-.406-1.165A1.456,1.456,0,0,0,56.938-6.789Z" transform="translate(86.738 287.989)" fill="#283760"/>
      <path id="Path_1001726" data-name="Path 1001726" d="M3.25,0H.984V-8.453H3.25ZM.852-10.641a1.112,1.112,0,0,1,.34-.836,1.277,1.277,0,0,1,.926-.328,1.28,1.28,0,0,1,.922.328,1.105,1.105,0,0,1,.344.836,1.108,1.108,0,0,1-.348.844,1.283,1.283,0,0,1-.918.328A1.283,1.283,0,0,1,1.2-9.8,1.108,1.108,0,0,1,.852-10.641ZM7.188-8.453l.07.977a2.951,2.951,0,0,1,2.43-1.133,2.453,2.453,0,0,1,2,.789,3.682,3.682,0,0,1,.672,2.359V0H10.1V-5.406a1.465,1.465,0,0,0-.312-1.043A1.4,1.4,0,0,0,8.75-6.773a1.553,1.553,0,0,0-1.43.813V0H5.063V-8.453Z" transform="translate(46.102 305.638)" fill="#283760"/>
      <path id="Path_1001727" data-name="Path 1001727" d="M4.031-2.758l1.57-5.7H7.961L5.109,0H2.953L.1-8.453H2.461Z" transform="translate(59.447 305.638)" fill="#283760"/>
      <path id="Path_1001728" data-name="Path 1001728" d="M4.46.146A3.89,3.89,0,0,1,1.622-.923,3.8,3.8,0,0,1,.527-3.772v-.205A4.787,4.787,0,0,1,.989-6.112,3.386,3.386,0,0,1,2.3-7.562a3.669,3.669,0,0,1,1.93-.509,3.289,3.289,0,0,1,2.56,1.025A4.167,4.167,0,0,1,7.72-4.138v.864H2.673a1.966,1.966,0,0,0,.619,1.245A1.871,1.871,0,0,0,4.6-1.56a2.285,2.285,0,0,0,1.912-.886l1.04,1.165A3.178,3.178,0,0,1,6.262-.231,4.229,4.229,0,0,1,4.46.146ZM4.219-6.365A1.323,1.323,0,0,0,3.2-5.938a2.209,2.209,0,0,0-.5,1.221H5.64v-.169a1.576,1.576,0,0,0-.381-1.092A1.365,1.365,0,0,0,4.219-6.365Z" transform="translate(67.487 304.638)" fill="#283760"/>
      <path id="Path_1001729" data-name="Path 1001729" d="M5.445-2.336a.727.727,0,0,0-.41-.652,4.659,4.659,0,0,0-1.316-.426Q.7-4.047.7-5.977a2.323,2.323,0,0,1,.934-1.879,3.766,3.766,0,0,1,2.441-.754,4.053,4.053,0,0,1,2.574.758,2.388,2.388,0,0,1,.965,1.969H5.359a1.092,1.092,0,0,0-.312-.8A1.322,1.322,0,0,0,4.07-7a1.351,1.351,0,0,0-.883.258.814.814,0,0,0-.312.656.7.7,0,0,0,.355.605,3.657,3.657,0,0,0,1.2.4A9.8,9.8,0,0,1,5.852-4.7,2.336,2.336,0,0,1,7.641-2.43,2.2,2.2,0,0,1,6.648-.559,4.28,4.28,0,0,1,4.086.156,4.47,4.47,0,0,1,2.2-.223,3.166,3.166,0,0,1,.906-1.262,2.414,2.414,0,0,1,.438-2.687H2.578a1.179,1.179,0,0,0,.445.922,1.766,1.766,0,0,0,1.109.32,1.635,1.635,0,0,0,.98-.246A.766.766,0,0,0,5.445-2.336Z" transform="translate(76.239 305.638)" fill="#283760"/>
      <path id="Path_1001730" data-name="Path 1001730" d="M3.57-10.531v2.078H5.016V-6.8H3.57v4.219a1.007,1.007,0,0,0,.18.672.9.9,0,0,0,.688.2A3.6,3.6,0,0,0,5.1-1.758V-.047a4.648,4.648,0,0,1-1.367.2,2.156,2.156,0,0,1-2.422-2.4V-6.8H.078V-8.453H1.313v-2.078ZM8.656,0H6.391V-8.453H8.656Zm-2.4-10.641a1.112,1.112,0,0,1,.34-.836,1.277,1.277,0,0,1,.926-.328,1.28,1.28,0,0,1,.922.328,1.105,1.105,0,0,1,.344.836,1.108,1.108,0,0,1-.348.844,1.283,1.283,0,0,1-.918.328A1.283,1.283,0,0,1,6.605-9.8,1.108,1.108,0,0,1,6.258-10.641Zm3.93,6.352a4.954,4.954,0,0,1,.926-3.133,3,3,0,0,1,2.5-1.187,2.631,2.631,0,0,1,2.164.953l.094-.8h2.047V-.281a3.613,3.613,0,0,1-.5,1.93A3.236,3.236,0,0,1,15.992,2.9a4.985,4.985,0,0,1-2.141.43,4.635,4.635,0,0,1-1.812-.371A3.217,3.217,0,0,1,10.7,2l1-1.375a2.645,2.645,0,0,0,2.047.945,1.936,1.936,0,0,0,1.4-.48,1.8,1.8,0,0,0,.5-1.363V-.727a2.612,2.612,0,0,1-2.055.883,2.992,2.992,0,0,1-2.465-1.191,4.953,4.953,0,0,1-.941-3.16Zm2.258.168a3.085,3.085,0,0,0,.461,1.8,1.466,1.466,0,0,0,1.266.653,1.568,1.568,0,0,0,1.477-.775V-6a1.564,1.564,0,0,0-1.461-.775,1.476,1.476,0,0,0-1.277.665A3.477,3.477,0,0,0,12.445-4.121ZM24.547,0a2.507,2.507,0,0,1-.227-.758,2.732,2.732,0,0,1-2.133.914,3,3,0,0,1-2.059-.719,2.312,2.312,0,0,1-.816-1.812,2.389,2.389,0,0,1,1-2.062,4.915,4.915,0,0,1,2.879-.727h1.039v-.484a1.393,1.393,0,0,0-.3-.937,1.183,1.183,0,0,0-.949-.352,1.345,1.345,0,0,0-.895.273.929.929,0,0,0-.324.75H19.5a2.268,2.268,0,0,1,.453-1.359,3,3,0,0,1,1.281-.98,4.669,4.669,0,0,1,1.859-.355,3.689,3.689,0,0,1,2.48.785,2.747,2.747,0,0,1,.918,2.207v3.664a4.041,4.041,0,0,0,.336,1.82V0ZM22.68-1.57a1.945,1.945,0,0,0,.922-.223,1.462,1.462,0,0,0,.625-.6V-3.844h-.844q-1.7,0-1.8,1.172l-.008.133a.9.9,0,0,0,.3.7A1.153,1.153,0,0,0,22.68-1.57Zm9.063-.094a1.481,1.481,0,0,0,1.016-.344,1.2,1.2,0,0,0,.406-.914h2.117a2.9,2.9,0,0,1-.469,1.574A3.093,3.093,0,0,1,33.551-.238a3.949,3.949,0,0,1-1.77.395A3.67,3.67,0,0,1,28.922-1,4.56,4.56,0,0,1,27.875-4.18v-.148a4.508,4.508,0,0,1,1.039-3.117,3.627,3.627,0,0,1,2.852-1.164,3.555,3.555,0,0,1,2.543.9,3.2,3.2,0,0,1,.973,2.4H33.164a1.551,1.551,0,0,0-.406-1.072,1.354,1.354,0,0,0-1.031-.412,1.36,1.36,0,0,0-1.191.575,3.333,3.333,0,0,0-.4,1.866v.235a3.375,3.375,0,0,0,.4,1.878A1.377,1.377,0,0,0,31.742-1.664ZM38.953,0H36.688V-8.453h2.266Zm-2.4-10.641a1.112,1.112,0,0,1,.34-.836,1.277,1.277,0,0,1,.926-.328,1.28,1.28,0,0,1,.922.328,1.105,1.105,0,0,1,.344.836,1.108,1.108,0,0,1-.348.844,1.283,1.283,0,0,1-.918.328A1.283,1.283,0,0,1,36.9-9.8,1.108,1.108,0,0,1,36.555-10.641ZM40.461-4.3a5.013,5.013,0,0,1,.484-2.242A3.546,3.546,0,0,1,42.34-8.07a4.069,4.069,0,0,1,2.113-.539,3.849,3.849,0,0,1,2.793,1.047,4.2,4.2,0,0,1,1.207,2.844l.016.578A4.418,4.418,0,0,1,47.383-1.02,3.775,3.775,0,0,1,44.469.156a3.793,3.793,0,0,1-2.918-1.172A4.5,4.5,0,0,1,40.461-4.2Zm2.258.16A3.16,3.16,0,0,0,43.172-2.3a1.5,1.5,0,0,0,1.3.638,1.5,1.5,0,0,0,1.281-.63,3.457,3.457,0,0,0,.461-2.015A3.128,3.128,0,0,0,45.75-6.14a1.5,1.5,0,0,0-1.3-.649,1.474,1.474,0,0,0-1.281.646A3.516,3.516,0,0,0,42.719-4.144ZM44.9-12h2.461L45.2-9.578H43.359Zm7.039,3.547.07.977a2.951,2.951,0,0,1,2.43-1.133,2.453,2.453,0,0,1,2,.789,3.682,3.682,0,0,1,.672,2.359V0H54.852V-5.406a1.465,1.465,0,0,0-.312-1.043A1.4,1.4,0,0,0,53.5-6.773a1.553,1.553,0,0,0-1.43.813V0H49.813V-8.453ZM65.961-3.2l1.563-5.258h2.422l-3.4,9.766-.187.445a2.577,2.577,0,0,1-2.5,1.656,3.552,3.552,0,0,1-1-.148V1.555l.344.008a1.857,1.857,0,0,0,.957-.2,1.283,1.283,0,0,0,.5-.648l.266-.7L61.961-8.453h2.43Z" transform="translate(84.408 305.638)" fill="#283760"/>
      <path id="Path_1001731" data-name="Path 1001731" d="M.516-4.289A5.094,5.094,0,0,1,1.4-7.437,2.877,2.877,0,0,1,3.828-8.609a2.589,2.589,0,0,1,2.039.922V-12H8.133V0H6.094L5.984-.9A2.657,2.657,0,0,1,3.813.156,2.869,2.869,0,0,1,1.418-1.02,5.258,5.258,0,0,1,.516-4.289Zm2.258.168A3.337,3.337,0,0,0,3.188-2.3a1.349,1.349,0,0,0,1.2.634,1.511,1.511,0,0,0,1.477-.884V-5.889a1.489,1.489,0,0,0-1.461-.884Q2.773-6.773,2.773-4.121Zm11,4.277A4.15,4.15,0,0,1,10.746-.984,4.054,4.054,0,0,1,9.578-4.023v-.219A5.106,5.106,0,0,1,10.07-6.52a3.612,3.612,0,0,1,1.395-1.547,3.914,3.914,0,0,1,2.059-.543,3.508,3.508,0,0,1,2.73,1.094,4.444,4.444,0,0,1,1,3.1v.922H11.867a2.1,2.1,0,0,0,.66,1.328,2,2,0,0,0,1.395.5,2.437,2.437,0,0,0,2.039-.945L17.07-1.367A3.389,3.389,0,0,1,15.7-.246,4.511,4.511,0,0,1,13.773.156Zm-.258-6.945a1.411,1.411,0,0,0-1.09.455,2.357,2.357,0,0,0-.535,1.3h3.141v-.181a1.681,1.681,0,0,0-.406-1.165A1.456,1.456,0,0,0,13.516-6.789Zm9.594,4.453a.727.727,0,0,0-.41-.652,4.659,4.659,0,0,0-1.316-.426q-3.016-.633-3.016-2.562A2.323,2.323,0,0,1,19.3-7.855a3.766,3.766,0,0,1,2.441-.754,4.053,4.053,0,0,1,2.574.758,2.388,2.388,0,0,1,.965,1.969H23.023a1.092,1.092,0,0,0-.312-.8A1.322,1.322,0,0,0,21.734-7a1.351,1.351,0,0,0-.883.258.814.814,0,0,0-.312.656.7.7,0,0,0,.355.605,3.657,3.657,0,0,0,1.2.4,9.8,9.8,0,0,1,1.422.379A2.336,2.336,0,0,1,25.3-2.43a2.2,2.2,0,0,1-.992,1.871A4.28,4.28,0,0,1,21.75.156a4.47,4.47,0,0,1-1.887-.379A3.166,3.166,0,0,1,18.57-1.262,2.414,2.414,0,0,1,18.1-2.687h2.141a1.179,1.179,0,0,0,.445.922,1.766,1.766,0,0,0,1.109.32,1.635,1.635,0,0,0,.98-.246A.766.766,0,0,0,23.109-2.336ZM31.656,0a2.507,2.507,0,0,1-.227-.758A2.732,2.732,0,0,1,29.3.156a3,3,0,0,1-2.059-.719,2.312,2.312,0,0,1-.816-1.812,2.389,2.389,0,0,1,1-2.062A4.915,4.915,0,0,1,30.3-5.164h1.039v-.484a1.393,1.393,0,0,0-.3-.937,1.183,1.183,0,0,0-.949-.352,1.345,1.345,0,0,0-.895.273.929.929,0,0,0-.324.75H26.609a2.268,2.268,0,0,1,.453-1.359,3,3,0,0,1,1.281-.98A4.669,4.669,0,0,1,30.2-8.609a3.689,3.689,0,0,1,2.48.785A2.747,2.747,0,0,1,33.6-5.617v3.664a4.041,4.041,0,0,0,.336,1.82V0ZM29.789-1.57a1.945,1.945,0,0,0,.922-.223,1.462,1.462,0,0,0,.625-.6V-3.844h-.844q-1.7,0-1.8,1.172l-.008.133a.9.9,0,0,0,.3.7A1.153,1.153,0,0,0,29.789-1.57Zm10.3-4.766a6.134,6.134,0,0,0-.812-.062,1.654,1.654,0,0,0-1.68.867V0H35.336V-8.453h2.133l.063,1.008a2.092,2.092,0,0,1,1.883-1.164,2.366,2.366,0,0,1,.7.1Zm5.836,0a6.134,6.134,0,0,0-.812-.062,1.654,1.654,0,0,0-1.68.867V0H41.172V-8.453H43.3l.063,1.008A2.092,2.092,0,0,1,45.25-8.609a2.366,2.366,0,0,1,.7.1ZM46.375-4.3a5.013,5.013,0,0,1,.484-2.242A3.546,3.546,0,0,1,48.254-8.07a4.069,4.069,0,0,1,2.113-.539A3.849,3.849,0,0,1,53.16-7.562a4.2,4.2,0,0,1,1.207,2.844l.016.578A4.418,4.418,0,0,1,53.3-1.02,3.775,3.775,0,0,1,50.383.156a3.793,3.793,0,0,1-2.918-1.172A4.5,4.5,0,0,1,46.375-4.2Zm2.258.16A3.16,3.16,0,0,0,49.086-2.3a1.5,1.5,0,0,0,1.3.638,1.5,1.5,0,0,0,1.281-.63,3.457,3.457,0,0,0,.461-2.015,3.128,3.128,0,0,0-.461-1.831,1.5,1.5,0,0,0-1.3-.649,1.474,1.474,0,0,0-1.281.646A3.516,3.516,0,0,0,48.633-4.144ZM58.156,0H55.891V-12h2.266ZM62.4,0H60.133V-12H62.4Zm1.508-4.3a5.013,5.013,0,0,1,.484-2.242A3.546,3.546,0,0,1,65.785-8.07,4.069,4.069,0,0,1,67.9-8.609a3.849,3.849,0,0,1,2.793,1.047A4.2,4.2,0,0,1,71.9-4.719l.016.578A4.418,4.418,0,0,1,70.828-1.02,3.775,3.775,0,0,1,67.914.156,3.793,3.793,0,0,1,65-1.016,4.5,4.5,0,0,1,63.906-4.2Zm2.258.16A3.16,3.16,0,0,0,66.617-2.3a1.5,1.5,0,0,0,1.3.638,1.5,1.5,0,0,0,1.281-.63,3.457,3.457,0,0,0,.461-2.015A3.128,3.128,0,0,0,69.2-6.14a1.5,1.5,0,0,0-1.3-.649,1.474,1.474,0,0,0-1.281.646A3.516,3.516,0,0,0,66.164-4.144Z" transform="translate(63.621 323.287)" fill="#283760"/>
      <path id="Path_1001733" data-name="Path 1001733" d="M7.859-4.648h-4.5V0H1.016V-11.375H8.422v1.9H3.359v2.938h4.5ZM12.016,0H9.75V-8.453h2.266Zm-2.4-10.641a1.112,1.112,0,0,1,.34-.836,1.277,1.277,0,0,1,.926-.328,1.28,1.28,0,0,1,.922.328,1.105,1.105,0,0,1,.344.836A1.108,1.108,0,0,1,11.8-9.8a1.283,1.283,0,0,1-.918.328A1.283,1.283,0,0,1,9.965-9.8,1.108,1.108,0,0,1,9.617-10.641Zm6.336,2.188.07.977a2.951,2.951,0,0,1,2.43-1.133,2.453,2.453,0,0,1,2,.789,3.682,3.682,0,0,1,.672,2.359V0H18.867V-5.406a1.465,1.465,0,0,0-.312-1.043,1.4,1.4,0,0,0-1.039-.324,1.553,1.553,0,0,0-1.43.813V0H13.828V-8.453ZM27.734,0a2.507,2.507,0,0,1-.227-.758,2.732,2.732,0,0,1-2.133.914,3,3,0,0,1-2.059-.719A2.312,2.312,0,0,1,22.5-2.375a2.389,2.389,0,0,1,1-2.062,4.915,4.915,0,0,1,2.879-.727h1.039v-.484a1.393,1.393,0,0,0-.3-.937,1.183,1.183,0,0,0-.949-.352,1.345,1.345,0,0,0-.895.273.929.929,0,0,0-.324.75H22.688a2.268,2.268,0,0,1,.453-1.359,3,3,0,0,1,1.281-.98,4.669,4.669,0,0,1,1.859-.355,3.689,3.689,0,0,1,2.48.785,2.747,2.747,0,0,1,.918,2.207v3.664a4.041,4.041,0,0,0,.336,1.82V0ZM25.867-1.57a1.945,1.945,0,0,0,.922-.223,1.462,1.462,0,0,0,.625-.6V-3.844H26.57q-1.7,0-1.8,1.172l-.008.133a.9.9,0,0,0,.3.7A1.153,1.153,0,0,0,25.867-1.57Zm7.625-6.883.07.977a2.951,2.951,0,0,1,2.43-1.133,2.453,2.453,0,0,1,2,.789,3.682,3.682,0,0,1,.672,2.359V0H36.406V-5.406a1.465,1.465,0,0,0-.312-1.043,1.4,1.4,0,0,0-1.039-.324,1.553,1.553,0,0,0-1.43.813V0H31.367V-8.453Zm10.4,6.789a1.481,1.481,0,0,0,1.016-.344,1.2,1.2,0,0,0,.406-.914H47.43a2.9,2.9,0,0,1-.469,1.574A3.093,3.093,0,0,1,45.7-.238a3.949,3.949,0,0,1-1.77.395A3.67,3.67,0,0,1,41.07-1,4.56,4.56,0,0,1,40.023-4.18v-.148a4.508,4.508,0,0,1,1.039-3.117,3.627,3.627,0,0,1,2.852-1.164,3.555,3.555,0,0,1,2.543.9,3.2,3.2,0,0,1,.973,2.4H45.313a1.551,1.551,0,0,0-.406-1.072,1.354,1.354,0,0,0-1.031-.412,1.36,1.36,0,0,0-1.191.575,3.333,3.333,0,0,0-.4,1.866v.235a3.375,3.375,0,0,0,.4,1.878A1.377,1.377,0,0,0,43.891-1.664ZM51.1,0H48.836V-8.453H51.1ZM48.7-10.641a1.112,1.112,0,0,1,.34-.836,1.277,1.277,0,0,1,.926-.328,1.28,1.28,0,0,1,.922.328,1.105,1.105,0,0,1,.344.836,1.108,1.108,0,0,1-.348.844,1.283,1.283,0,0,1-.918.328,1.283,1.283,0,0,1-.918-.328A1.108,1.108,0,0,1,48.7-10.641ZM57.859,0a2.507,2.507,0,0,1-.227-.758A2.732,2.732,0,0,1,55.5.156a3,3,0,0,1-2.059-.719,2.312,2.312,0,0,1-.816-1.812,2.389,2.389,0,0,1,1-2.062A4.915,4.915,0,0,1,56.5-5.164h1.039v-.484a1.393,1.393,0,0,0-.3-.937,1.183,1.183,0,0,0-.949-.352,1.345,1.345,0,0,0-.895.273.929.929,0,0,0-.324.75H52.813a2.268,2.268,0,0,1,.453-1.359,3,3,0,0,1,1.281-.98,4.669,4.669,0,0,1,1.859-.355,3.689,3.689,0,0,1,2.48.785A2.747,2.747,0,0,1,59.8-5.617v3.664a4.041,4.041,0,0,0,.336,1.82V0ZM55.992-1.57a1.945,1.945,0,0,0,.922-.223,1.462,1.462,0,0,0,.625-.6V-3.844H56.7q-1.7,0-1.8,1.172l-.008.133a.9.9,0,0,0,.3.7A1.153,1.153,0,0,0,55.992-1.57Zm5.2-2.719a5.094,5.094,0,0,1,.887-3.148A2.877,2.877,0,0,1,64.5-8.609a2.589,2.589,0,0,1,2.039.922V-12H68.8V0H66.766l-.109-.9A2.657,2.657,0,0,1,64.484.156,2.869,2.869,0,0,1,62.09-1.02,5.258,5.258,0,0,1,61.188-4.289Zm2.258.168A3.337,3.337,0,0,0,63.859-2.3a1.349,1.349,0,0,0,1.2.634,1.511,1.511,0,0,0,1.477-.884V-5.889a1.489,1.489,0,0,0-1.461-.884Q63.445-6.773,63.445-4.121ZM70.2-4.3a5.013,5.013,0,0,1,.484-2.242A3.546,3.546,0,0,1,72.082-8.07,4.069,4.069,0,0,1,74.2-8.609a3.849,3.849,0,0,1,2.793,1.047A4.2,4.2,0,0,1,78.2-4.719l.016.578A4.418,4.418,0,0,1,77.125-1.02,3.775,3.775,0,0,1,74.211.156a3.793,3.793,0,0,1-2.918-1.172A4.5,4.5,0,0,1,70.2-4.2Zm2.258.16A3.16,3.16,0,0,0,72.914-2.3a1.5,1.5,0,0,0,1.3.638,1.5,1.5,0,0,0,1.281-.63,3.457,3.457,0,0,0,.461-2.015,3.128,3.128,0,0,0-.461-1.831,1.5,1.5,0,0,0-1.3-.649,1.474,1.474,0,0,0-1.281.646A3.516,3.516,0,0,0,72.461-4.144ZM84.18-2.336a.727.727,0,0,0-.41-.652,4.659,4.659,0,0,0-1.316-.426q-3.016-.633-3.016-2.562a2.323,2.323,0,0,1,.934-1.879,3.766,3.766,0,0,1,2.441-.754,4.053,4.053,0,0,1,2.574.758,2.388,2.388,0,0,1,.965,1.969H84.094a1.092,1.092,0,0,0-.312-.8A1.322,1.322,0,0,0,82.8-7a1.351,1.351,0,0,0-.883.258.814.814,0,0,0-.312.656.7.7,0,0,0,.355.605,3.657,3.657,0,0,0,1.2.4,9.8,9.8,0,0,1,1.422.379A2.336,2.336,0,0,1,86.375-2.43a2.2,2.2,0,0,1-.992,1.871A4.28,4.28,0,0,1,82.82.156a4.47,4.47,0,0,1-1.887-.379,3.166,3.166,0,0,1-1.293-1.039,2.414,2.414,0,0,1-.469-1.426h2.141a1.179,1.179,0,0,0,.445.922,1.766,1.766,0,0,0,1.109.32,1.635,1.635,0,0,0,.98-.246A.766.766,0,0,0,84.18-2.336Z" transform="translate(375.091 304.068)" fill="#283760"/>
      <rect id="Rectangle_455550" data-name="Rectangle 455550" width="50.899" height="49.788" transform="translate(229.718 277.202)" fill="#283760"/>
      <path id="Path_1001732" data-name="Path 1001732" d="M8.811-10.347h4.583v3.313H8.811v5.18H5.319v-5.18H.724v-3.313h4.6v-4.964H8.811Z" transform="translate(248.209 311.288)" fill="#fff7ee"/>
      <path id="Path_1001669" data-name="Path 1001669" d="M0,236.988v77.677H107.8V291.357l19.995-16.936L107.8,257.485v-20.5Z" transform="translate(0 111.533)" fill="#fcae57"/>
      <rect id="Rectangle_455551" data-name="Rectangle 455551" width="50.897" height="49.788" transform="translate(135.12 364.332)" fill="#283760"/>
      <path id="Path_1001735" data-name="Path 1001735" d="M8.811-10.347h4.583v3.313H8.811v5.18H5.319v-5.18H.724v-3.313h4.6v-4.964H8.811Z" transform="translate(153.611 398.418)" fill="#fff7ee"/>
      <path id="Path_1001670" data-name="Path 1001670" d="M0,296.235v77.677H107.8V350.6l19.995-16.936L107.8,316.732v-20.5Z" transform="translate(0 139.417)" fill="#fcae57"/>
      <path id="Path_1001671" data-name="Path 1001671" d="M134.064,296.235V317.93L147.517,333,134.064,349.57v24.342H260.532V347.636l-11.2-15.05,11.2-10.631v-25.72Z" transform="translate(63.095 139.417)" fill="#bec2cf"/>
      <rect id="Rectangle_455552" data-name="Rectangle 455552" width="50.897" height="49.788" transform="translate(136.364 451.463)" fill="#283760"/>
      <path id="Path_1001741" data-name="Path 1001741" d="M8.811-10.347h4.583v3.313H8.811v5.18H5.319v-5.18H.724v-3.313h4.6v-4.964H8.811Z" transform="translate(154.855 485.549)" fill="#fff7ee"/>
      <path id="Path_1001672" data-name="Path 1001672" d="M134.064,236.988v21.695l13.455,15.068-13.455,16.573v24.342H260.532V288.389l-11.2-15.052,11.2-10.63v-25.72Z" transform="translate(63.095 111.533)" fill="#bec2cf"/>
      <path id="Path_1001673" data-name="Path 1001673" d="M286.09,237.663v20.5l-17.5,16.937,17.5,16.934V315.34H396.377V237.663Z" transform="translate(126.405 111.851)" fill="#fcae57"/>
      <path id="Path_1001674" data-name="Path 1001674" d="M284.846,296.91v20.5l-16.259,16.936,16.259,16.936v23.308H396.377V296.91Z" transform="translate(126.405 139.734)" fill="#fcae57"/>
      <rect id="Rectangle_455553" data-name="Rectangle 455553" width="50.897" height="49.788" transform="translate(337.063 365.947)" fill="#283760"/>
      <path id="Path_1001737" data-name="Path 1001737" d="M8.811-10.347h4.583v3.313H8.811v5.18H5.319v-5.18H.724v-3.313h4.6v-4.964H8.811Z" transform="translate(355.552 400.034)" fill="#fff7ee"/>
      <rect id="Rectangle_455554" data-name="Rectangle 455554" width="50.897" height="49.788" transform="translate(337.063 453.077)" fill="#283760"/>
      <path id="Path_1001743" data-name="Path 1001743" d="M8.811-10.347h4.583v3.313H8.811v5.18H5.319v-5.18H.724v-3.313h4.6v-4.964H8.811Z" transform="translate(355.552 487.165)" fill="#fff7ee"/>
      <path id="Path_1001734" data-name="Path 1001734" d="M4.078-11.375,7-3.125l2.906-8.25h3.078V0H10.633V-3.109l.234-5.367L7.8,0H6.188L3.125-8.469l.234,5.359V0H1.016V-11.375ZM19.945-.859A2.831,2.831,0,0,1,17.633.156a2.67,2.67,0,0,1-2.074-.781,3.335,3.335,0,0,1-.73-2.289V-8.453h2.258v5.467q0,1.322,1.2,1.322a1.63,1.63,0,0,0,1.578-.8V-8.453h2.266V0H20.008Zm5.969-7.594.07.977a2.951,2.951,0,0,1,2.43-1.133,2.453,2.453,0,0,1,2,.789,3.682,3.682,0,0,1,.672,2.359V0H28.828V-5.406a1.465,1.465,0,0,0-.312-1.043,1.4,1.4,0,0,0-1.039-.324,1.553,1.553,0,0,0-1.43.813V0H23.789V-8.453ZM35.18,0H32.914V-8.453H35.18Zm-2.4-10.641a1.112,1.112,0,0,1,.34-.836,1.277,1.277,0,0,1,.926-.328,1.28,1.28,0,0,1,.922.328,1.105,1.105,0,0,1,.344.836,1.108,1.108,0,0,1-.348.844,1.283,1.283,0,0,1-.918.328,1.283,1.283,0,0,1-.918-.328A1.108,1.108,0,0,1,32.781-10.641Zm7.773,8.977a1.481,1.481,0,0,0,1.016-.344,1.2,1.2,0,0,0,.406-.914h2.117a2.9,2.9,0,0,1-.469,1.574A3.093,3.093,0,0,1,42.363-.238a3.949,3.949,0,0,1-1.77.395A3.67,3.67,0,0,1,37.734-1,4.56,4.56,0,0,1,36.688-4.18v-.148a4.508,4.508,0,0,1,1.039-3.117,3.627,3.627,0,0,1,2.852-1.164,3.555,3.555,0,0,1,2.543.9,3.2,3.2,0,0,1,.973,2.4H41.977a1.551,1.551,0,0,0-.406-1.072,1.354,1.354,0,0,0-1.031-.412,1.36,1.36,0,0,0-1.191.575,3.333,3.333,0,0,0-.4,1.866v.235a3.375,3.375,0,0,0,.4,1.878A1.377,1.377,0,0,0,40.555-1.664ZM47.766,0H45.5V-8.453h2.266Zm-2.4-10.641a1.112,1.112,0,0,1,.34-.836,1.277,1.277,0,0,1,.926-.328,1.28,1.28,0,0,1,.922.328,1.105,1.105,0,0,1,.344.836,1.108,1.108,0,0,1-.348.844,1.283,1.283,0,0,1-.918.328,1.283,1.283,0,0,1-.918-.328A1.108,1.108,0,0,1,45.367-10.641ZM57.234-4.148a5.07,5.07,0,0,1-.887,3.129A2.843,2.843,0,0,1,53.953.156a2.633,2.633,0,0,1-2.07-.891V3.25H49.625v-11.7h2.094l.078.828a2.654,2.654,0,0,1,2.141-.984,2.862,2.862,0,0,1,2.43,1.156,5.207,5.207,0,0,1,.867,3.188Zm-2.258-.164a3.327,3.327,0,0,0-.418-1.82,1.361,1.361,0,0,0-1.215-.641,1.479,1.479,0,0,0-1.461.813V-2.5a1.5,1.5,0,0,0,1.477.836Q54.977-1.664,54.977-4.312ZM61.016,0H58.75V-8.453h2.266Zm-2.4-10.641a1.112,1.112,0,0,1,.34-.836,1.277,1.277,0,0,1,.926-.328,1.28,1.28,0,0,1,.922.328,1.105,1.105,0,0,1,.344.836A1.108,1.108,0,0,1,60.8-9.8a1.283,1.283,0,0,1-.918.328,1.283,1.283,0,0,1-.918-.328A1.108,1.108,0,0,1,58.617-10.641ZM62.523-4.3a5.013,5.013,0,0,1,.484-2.242A3.546,3.546,0,0,1,64.4-8.07a4.069,4.069,0,0,1,2.113-.539,3.849,3.849,0,0,1,2.793,1.047,4.2,4.2,0,0,1,1.207,2.844l.016.578A4.418,4.418,0,0,1,69.445-1.02,3.775,3.775,0,0,1,66.531.156a3.793,3.793,0,0,1-2.918-1.172A4.5,4.5,0,0,1,62.523-4.2Zm2.258.16A3.16,3.16,0,0,0,65.234-2.3a1.5,1.5,0,0,0,1.3.638,1.5,1.5,0,0,0,1.281-.63,3.457,3.457,0,0,0,.461-2.015,3.128,3.128,0,0,0-.461-1.831,1.5,1.5,0,0,0-1.3-.649,1.474,1.474,0,0,0-1.281.646A3.516,3.516,0,0,0,64.781-4.144ZM76.5-2.336a.727.727,0,0,0-.41-.652,4.659,4.659,0,0,0-1.316-.426q-3.016-.633-3.016-2.562a2.323,2.323,0,0,1,.934-1.879,3.766,3.766,0,0,1,2.441-.754,4.053,4.053,0,0,1,2.574.758,2.388,2.388,0,0,1,.965,1.969H76.414a1.092,1.092,0,0,0-.312-.8A1.322,1.322,0,0,0,75.125-7a1.351,1.351,0,0,0-.883.258.814.814,0,0,0-.312.656.7.7,0,0,0,.355.605,3.657,3.657,0,0,0,1.2.4,9.8,9.8,0,0,1,1.422.379A2.336,2.336,0,0,1,78.7-2.43,2.2,2.2,0,0,1,77.7-.559a4.28,4.28,0,0,1-2.562.715,4.47,4.47,0,0,1-1.887-.379,3.166,3.166,0,0,1-1.293-1.039,2.414,2.414,0,0,1-.469-1.426h2.141a1.179,1.179,0,0,0,.445.922,1.766,1.766,0,0,0,1.109.32,1.635,1.635,0,0,0,.98-.246A.766.766,0,0,0,76.5-2.336Z" transform="translate(16.266 397.425)" fill="#283760"/>
      <path id="Path_1001740" data-name="Path 1001740" d="M10.273,0H7.93V-4.875H3.359V0H1.016V-11.375H3.359v4.609H7.93v-4.609h2.344Zm5.789.156A4.15,4.15,0,0,1,13.035-.984a4.054,4.054,0,0,1-1.168-3.039v-.219a5.106,5.106,0,0,1,.492-2.277,3.612,3.612,0,0,1,1.395-1.547,3.914,3.914,0,0,1,2.059-.543,3.508,3.508,0,0,1,2.73,1.094,4.444,4.444,0,0,1,1,3.1v.922H14.156a2.1,2.1,0,0,0,.66,1.328,2,2,0,0,0,1.395.5,2.437,2.437,0,0,0,2.039-.945l1.109,1.242A3.389,3.389,0,0,1,17.984-.246,4.511,4.511,0,0,1,16.063.156ZM15.8-6.789a1.411,1.411,0,0,0-1.09.455,2.357,2.357,0,0,0-.535,1.3H17.32v-.181a1.681,1.681,0,0,0-.406-1.165A1.456,1.456,0,0,0,15.8-6.789Zm8.531,5.125a1.481,1.481,0,0,0,1.016-.344,1.2,1.2,0,0,0,.406-.914h2.117a2.9,2.9,0,0,1-.469,1.574A3.093,3.093,0,0,1,26.145-.238a3.949,3.949,0,0,1-1.77.395A3.67,3.67,0,0,1,21.516-1,4.56,4.56,0,0,1,20.469-4.18v-.148a4.508,4.508,0,0,1,1.039-3.117,3.627,3.627,0,0,1,2.852-1.164,3.555,3.555,0,0,1,2.543.9,3.2,3.2,0,0,1,.973,2.4H25.758a1.551,1.551,0,0,0-.406-1.072,1.354,1.354,0,0,0-1.031-.412,1.36,1.36,0,0,0-1.191.575,3.333,3.333,0,0,0-.4,1.866v.235a3.375,3.375,0,0,0,.4,1.878A1.377,1.377,0,0,0,24.336-1.664Zm7.531-8.867v2.078h1.445V-6.8H31.867v4.219a1.007,1.007,0,0,0,.18.672.9.9,0,0,0,.688.2,3.6,3.6,0,0,0,.664-.055V-.047a4.648,4.648,0,0,1-1.367.2,2.156,2.156,0,0,1-2.422-2.4V-6.8H28.375V-8.453h1.234v-2.078ZM39.469,0a2.507,2.507,0,0,1-.227-.758,2.732,2.732,0,0,1-2.133.914,3,3,0,0,1-2.059-.719,2.312,2.312,0,0,1-.816-1.812,2.389,2.389,0,0,1,1-2.062,4.915,4.915,0,0,1,2.879-.727h1.039v-.484a1.393,1.393,0,0,0-.3-.937,1.183,1.183,0,0,0-.949-.352A1.345,1.345,0,0,0,37-6.664a.929.929,0,0,0-.324.75H34.422a2.268,2.268,0,0,1,.453-1.359,3,3,0,0,1,1.281-.98,4.669,4.669,0,0,1,1.859-.355,3.689,3.689,0,0,1,2.48.785,2.747,2.747,0,0,1,.918,2.207v3.664a4.041,4.041,0,0,0,.336,1.82V0ZM37.6-1.57a1.945,1.945,0,0,0,.922-.223,1.462,1.462,0,0,0,.625-.6V-3.844H38.3q-1.7,0-1.8,1.172l-.008.133a.9.9,0,0,0,.3.7A1.153,1.153,0,0,0,37.6-1.57ZM38.461-12h2.461L38.758-9.578H36.922ZM47.9-6.336a6.134,6.134,0,0,0-.812-.062,1.654,1.654,0,0,0-1.68.867V0H43.148V-8.453h2.133l.063,1.008a2.092,2.092,0,0,1,1.883-1.164,2.366,2.366,0,0,1,.7.1ZM52.875.156A4.15,4.15,0,0,1,49.848-.984,4.054,4.054,0,0,1,48.68-4.023v-.219a5.106,5.106,0,0,1,.492-2.277,3.612,3.612,0,0,1,1.395-1.547,3.914,3.914,0,0,1,2.059-.543,3.508,3.508,0,0,1,2.73,1.094,4.444,4.444,0,0,1,1,3.1v.922H50.969a2.1,2.1,0,0,0,.66,1.328,2,2,0,0,0,1.395.5,2.437,2.437,0,0,0,2.039-.945l1.109,1.242A3.389,3.389,0,0,1,54.8-.246,4.511,4.511,0,0,1,52.875.156Zm-.258-6.945a1.411,1.411,0,0,0-1.09.455,2.357,2.357,0,0,0-.535,1.3h3.141v-.181a1.681,1.681,0,0,0-.406-1.165A1.456,1.456,0,0,0,52.617-6.789ZM62.531,0A2.507,2.507,0,0,1,62.3-.758a2.732,2.732,0,0,1-2.133.914,3,3,0,0,1-2.059-.719A2.312,2.312,0,0,1,57.3-2.375a2.389,2.389,0,0,1,1-2.062,4.915,4.915,0,0,1,2.879-.727h1.039v-.484a1.393,1.393,0,0,0-.3-.937,1.183,1.183,0,0,0-.949-.352,1.345,1.345,0,0,0-.895.273.929.929,0,0,0-.324.75H57.484a2.268,2.268,0,0,1,.453-1.359,3,3,0,0,1,1.281-.98,4.669,4.669,0,0,1,1.859-.355,3.689,3.689,0,0,1,2.48.785,2.747,2.747,0,0,1,.918,2.207v3.664a4.041,4.041,0,0,0,.336,1.82V0ZM60.664-1.57a1.945,1.945,0,0,0,.922-.223,1.462,1.462,0,0,0,.625-.6V-3.844h-.844q-1.7,0-1.8,1.172l-.008.133a.9.9,0,0,0,.3.7A1.153,1.153,0,0,0,60.664-1.57Zm10.125-.766a.727.727,0,0,0-.41-.652,4.659,4.659,0,0,0-1.316-.426q-3.016-.633-3.016-2.562a2.323,2.323,0,0,1,.934-1.879,3.766,3.766,0,0,1,2.441-.754A4.053,4.053,0,0,1,72-7.852a2.388,2.388,0,0,1,.965,1.969H70.7a1.092,1.092,0,0,0-.312-.8A1.322,1.322,0,0,0,69.414-7a1.351,1.351,0,0,0-.883.258.814.814,0,0,0-.312.656.7.7,0,0,0,.355.605,3.657,3.657,0,0,0,1.2.4A9.8,9.8,0,0,1,71.2-4.7,2.336,2.336,0,0,1,72.984-2.43a2.2,2.2,0,0,1-.992,1.871A4.28,4.28,0,0,1,69.43.156a4.47,4.47,0,0,1-1.887-.379A3.166,3.166,0,0,1,66.25-1.262a2.414,2.414,0,0,1-.469-1.426h2.141a1.179,1.179,0,0,0,.445.922,1.766,1.766,0,0,0,1.109.32,1.635,1.635,0,0,0,.98-.246A.766.766,0,0,0,70.789-2.336Z" transform="translate(18.353 480.477)" fill="#283760"/>
      <path id="Path_1001736" data-name="Path 1001736" d="M5.219-2.82,7.8-11.375h2.609L6.445,0H4L.055-11.375h2.6ZM13.711,0H11.445V-8.453h2.266Zm-2.4-10.641a1.112,1.112,0,0,1,.34-.836,1.277,1.277,0,0,1,.926-.328,1.28,1.28,0,0,1,.922.328,1.105,1.105,0,0,1,.344.836A1.108,1.108,0,0,1,13.5-9.8a1.283,1.283,0,0,1-.918.328A1.283,1.283,0,0,1,11.66-9.8,1.108,1.108,0,0,1,11.313-10.641Zm6.336,2.188.07.977a2.951,2.951,0,0,1,2.43-1.133,2.453,2.453,0,0,1,2,.789,3.682,3.682,0,0,1,.672,2.359V0H20.563V-5.406a1.465,1.465,0,0,0-.312-1.043,1.4,1.4,0,0,0-1.039-.324,1.553,1.553,0,0,0-1.43.813V0H15.523V-8.453Zm10.4,6.789a1.481,1.481,0,0,0,1.016-.344,1.2,1.2,0,0,0,.406-.914h2.117a2.9,2.9,0,0,1-.469,1.574A3.093,3.093,0,0,1,29.855-.238a3.949,3.949,0,0,1-1.77.395A3.67,3.67,0,0,1,25.227-1,4.56,4.56,0,0,1,24.18-4.18v-.148a4.508,4.508,0,0,1,1.039-3.117A3.627,3.627,0,0,1,28.07-8.609a3.555,3.555,0,0,1,2.543.9,3.2,3.2,0,0,1,.973,2.4H29.469a1.551,1.551,0,0,0-.406-1.072,1.354,1.354,0,0,0-1.031-.412,1.36,1.36,0,0,0-1.191.575,3.333,3.333,0,0,0-.4,1.866v.235a3.375,3.375,0,0,0,.4,1.878A1.377,1.377,0,0,0,28.047-1.664Zm9.891.8A2.831,2.831,0,0,1,35.625.156a2.67,2.67,0,0,1-2.074-.781,3.335,3.335,0,0,1-.73-2.289V-8.453h2.258v5.467q0,1.322,1.2,1.322a1.63,1.63,0,0,0,1.578-.8V-8.453h2.266V0H38ZM44.211,0H41.945V-12h2.266Zm6.758,0a2.507,2.507,0,0,1-.227-.758,2.732,2.732,0,0,1-2.133.914,3,3,0,0,1-2.059-.719,2.312,2.312,0,0,1-.816-1.812,2.389,2.389,0,0,1,1-2.062,4.915,4.915,0,0,1,2.879-.727h1.039v-.484a1.393,1.393,0,0,0-.3-.937,1.183,1.183,0,0,0-.949-.352,1.345,1.345,0,0,0-.895.273.929.929,0,0,0-.324.75H45.922a2.268,2.268,0,0,1,.453-1.359,3,3,0,0,1,1.281-.98,4.669,4.669,0,0,1,1.859-.355A3.689,3.689,0,0,1,52-7.824a2.747,2.747,0,0,1,.918,2.207v3.664a4.041,4.041,0,0,0,.336,1.82V0ZM49.1-1.57a1.945,1.945,0,0,0,.922-.223,1.462,1.462,0,0,0,.625-.6V-3.844H49.8q-1.7,0-1.8,1.172l-.008.133a.9.9,0,0,0,.3.7A1.153,1.153,0,0,0,49.1-1.57Zm5.2-2.719a5.094,5.094,0,0,1,.887-3.148,2.877,2.877,0,0,1,2.426-1.172,2.589,2.589,0,0,1,2.039.922V-12h2.266V0H59.875l-.109-.9A2.657,2.657,0,0,1,57.594.156,2.869,2.869,0,0,1,55.2-1.02,5.258,5.258,0,0,1,54.3-4.289Zm2.258.168A3.337,3.337,0,0,0,56.969-2.3a1.349,1.349,0,0,0,1.2.634,1.511,1.511,0,0,0,1.477-.884V-5.889a1.489,1.489,0,0,0-1.461-.884Q56.555-6.773,56.555-4.121ZM63.313-4.3A5.013,5.013,0,0,1,63.8-6.547,3.546,3.546,0,0,1,65.191-8.07,4.069,4.069,0,0,1,67.3-8.609,3.849,3.849,0,0,1,70.1-7.562,4.2,4.2,0,0,1,71.3-4.719l.016.578A4.418,4.418,0,0,1,70.234-1.02,3.775,3.775,0,0,1,67.32.156,3.793,3.793,0,0,1,64.4-1.016,4.5,4.5,0,0,1,63.313-4.2Zm2.258.16A3.16,3.16,0,0,0,66.023-2.3a1.5,1.5,0,0,0,1.3.638,1.5,1.5,0,0,0,1.281-.63,3.457,3.457,0,0,0,.461-2.015A3.128,3.128,0,0,0,68.6-6.14a1.5,1.5,0,0,0-1.3-.649,1.474,1.474,0,0,0-1.281.646A3.516,3.516,0,0,0,65.57-4.144ZM77.289-2.336a.727.727,0,0,0-.41-.652,4.659,4.659,0,0,0-1.316-.426q-3.016-.633-3.016-2.562a2.323,2.323,0,0,1,.934-1.879,3.766,3.766,0,0,1,2.441-.754,4.053,4.053,0,0,1,2.574.758,2.388,2.388,0,0,1,.965,1.969H77.2a1.092,1.092,0,0,0-.312-.8A1.322,1.322,0,0,0,75.914-7a1.351,1.351,0,0,0-.883.258.814.814,0,0,0-.312.656.7.7,0,0,0,.355.605,3.657,3.657,0,0,0,1.2.4A9.8,9.8,0,0,1,77.7-4.7,2.336,2.336,0,0,1,79.484-2.43a2.2,2.2,0,0,1-.992,1.871A4.28,4.28,0,0,1,75.93.156a4.47,4.47,0,0,1-1.887-.379A3.166,3.166,0,0,1,72.75-1.262a2.414,2.414,0,0,1-.469-1.426h2.141a1.179,1.179,0,0,0,.445.922,1.766,1.766,0,0,0,1.109.32,1.635,1.635,0,0,0,.98-.246A.766.766,0,0,0,77.289-2.336Z" transform="translate(217.516 390.669)" fill="#283760"/>
      <path id="Path_1001742" data-name="Path 1001742" d="M9.578-9.477H6.094V0H3.75V-9.477H.313v-1.9H9.578ZM13.148,0H10.883V-8.453h2.266Zm-2.4-10.641a1.112,1.112,0,0,1,.34-.836,1.277,1.277,0,0,1,.926-.328,1.28,1.28,0,0,1,.922.328,1.105,1.105,0,0,1,.344.836,1.108,1.108,0,0,1-.348.844,1.283,1.283,0,0,1-.918.328A1.283,1.283,0,0,1,11.1-9.8,1.108,1.108,0,0,1,10.75-10.641Zm6.961.109v2.078h1.445V-6.8H17.711v4.219a1.007,1.007,0,0,0,.18.672.9.9,0,0,0,.688.2,3.6,3.6,0,0,0,.664-.055V-.047a4.648,4.648,0,0,1-1.367.2,2.156,2.156,0,0,1-2.422-2.4V-6.8H14.219V-8.453h1.234v-2.078ZM25.477-.859A2.831,2.831,0,0,1,23.164.156,2.67,2.67,0,0,1,21.09-.625a3.335,3.335,0,0,1-.73-2.289V-8.453h2.258v5.467q0,1.322,1.2,1.322a1.63,1.63,0,0,0,1.578-.8V-8.453h2.266V0H25.539ZM31.75,0H29.484V-12H31.75Zm6.758,0a2.507,2.507,0,0,1-.227-.758,2.732,2.732,0,0,1-2.133.914A3,3,0,0,1,34.09-.562a2.312,2.312,0,0,1-.816-1.812,2.389,2.389,0,0,1,1-2.062,4.915,4.915,0,0,1,2.879-.727h1.039v-.484a1.393,1.393,0,0,0-.3-.937,1.183,1.183,0,0,0-.949-.352,1.345,1.345,0,0,0-.895.273.929.929,0,0,0-.324.75H33.461a2.268,2.268,0,0,1,.453-1.359,3,3,0,0,1,1.281-.98,4.669,4.669,0,0,1,1.859-.355,3.689,3.689,0,0,1,2.48.785,2.747,2.747,0,0,1,.918,2.207v3.664a4.041,4.041,0,0,0,.336,1.82V0ZM36.641-1.57a1.945,1.945,0,0,0,.922-.223,1.462,1.462,0,0,0,.625-.6V-3.844h-.844q-1.7,0-1.8,1.172l-.008.133a.9.9,0,0,0,.3.7A1.153,1.153,0,0,0,36.641-1.57Zm5.2-2.719a5.094,5.094,0,0,1,.887-3.148,2.877,2.877,0,0,1,2.426-1.172,2.589,2.589,0,0,1,2.039.922V-12h2.266V0H47.414L47.3-.9A2.657,2.657,0,0,1,45.133.156,2.869,2.869,0,0,1,42.738-1.02,5.258,5.258,0,0,1,41.836-4.289Zm2.258.168A3.337,3.337,0,0,0,44.508-2.3a1.349,1.349,0,0,0,1.2.634,1.511,1.511,0,0,0,1.477-.884V-5.889a1.489,1.489,0,0,0-1.461-.884Q44.094-6.773,44.094-4.121ZM56.1,0a2.507,2.507,0,0,1-.227-.758,2.732,2.732,0,0,1-2.133.914,3,3,0,0,1-2.059-.719,2.312,2.312,0,0,1-.816-1.812,2.389,2.389,0,0,1,1-2.062,4.915,4.915,0,0,1,2.879-.727h1.039v-.484a1.393,1.393,0,0,0-.3-.937,1.183,1.183,0,0,0-.949-.352,1.345,1.345,0,0,0-.895.273.929.929,0,0,0-.324.75H51.055a2.268,2.268,0,0,1,.453-1.359,3,3,0,0,1,1.281-.98,4.669,4.669,0,0,1,1.859-.355,3.689,3.689,0,0,1,2.48.785,2.747,2.747,0,0,1,.918,2.207v3.664a4.041,4.041,0,0,0,.336,1.82V0ZM54.234-1.57a1.945,1.945,0,0,0,.922-.223,1.462,1.462,0,0,0,.625-.6V-3.844h-.844q-1.7,0-1.8,1.172l-.008.133a.9.9,0,0,0,.3.7A1.153,1.153,0,0,0,54.234-1.57Zm10.125-.766a.727.727,0,0,0-.41-.652,4.659,4.659,0,0,0-1.316-.426q-3.016-.633-3.016-2.562a2.323,2.323,0,0,1,.934-1.879,3.766,3.766,0,0,1,2.441-.754,4.053,4.053,0,0,1,2.574.758,2.388,2.388,0,0,1,.965,1.969H64.273a1.092,1.092,0,0,0-.312-.8A1.322,1.322,0,0,0,62.984-7a1.351,1.351,0,0,0-.883.258.814.814,0,0,0-.312.656.7.7,0,0,0,.355.605,3.657,3.657,0,0,0,1.2.4,9.8,9.8,0,0,1,1.422.379A2.336,2.336,0,0,1,66.555-2.43a2.2,2.2,0,0,1-.992,1.871A4.28,4.28,0,0,1,63,.156a4.47,4.47,0,0,1-1.887-.379A3.166,3.166,0,0,1,59.82-1.262a2.414,2.414,0,0,1-.469-1.426h2.141a1.179,1.179,0,0,0,.445.922,1.766,1.766,0,0,0,1.109.32,1.635,1.635,0,0,0,.98-.246A.766.766,0,0,0,64.359-2.336Z" transform="translate(223.922 478.121)" fill="#283760"/>
      <path id="Path_1001738" data-name="Path 1001738" d="M5.766,0a2.507,2.507,0,0,1-.227-.758A2.732,2.732,0,0,1,3.406.156,3,3,0,0,1,1.348-.562,2.312,2.312,0,0,1,.531-2.375a2.389,2.389,0,0,1,1-2.062,4.915,4.915,0,0,1,2.879-.727H5.445v-.484a1.393,1.393,0,0,0-.3-.937A1.183,1.183,0,0,0,4.2-6.937a1.345,1.345,0,0,0-.895.273.929.929,0,0,0-.324.75H.719a2.268,2.268,0,0,1,.453-1.359,3,3,0,0,1,1.281-.98,4.669,4.669,0,0,1,1.859-.355,3.689,3.689,0,0,1,2.48.785,2.747,2.747,0,0,1,.918,2.207v3.664a4.041,4.041,0,0,0,.336,1.82V0ZM3.9-1.57a1.945,1.945,0,0,0,.922-.223,1.462,1.462,0,0,0,.625-.6V-3.844H4.6q-1.7,0-1.8,1.172l-.008.133a.9.9,0,0,0,.3.7A1.153,1.153,0,0,0,3.9-1.57Zm12.234-8.961v2.078h1.445V-6.8H16.133v4.219a1.007,1.007,0,0,0,.18.672A.9.9,0,0,0,17-1.7a3.6,3.6,0,0,0,.664-.055V-.047a4.648,4.648,0,0,1-1.367.2,2.156,2.156,0,0,1-2.422-2.4V-6.8H12.641V-8.453h1.234v-2.078ZM22.727.156A4.15,4.15,0,0,1,19.7-.984a4.054,4.054,0,0,1-1.168-3.039v-.219a5.106,5.106,0,0,1,.492-2.277,3.612,3.612,0,0,1,1.395-1.547,3.914,3.914,0,0,1,2.059-.543,3.508,3.508,0,0,1,2.73,1.094,4.444,4.444,0,0,1,1,3.1v.922H20.82a2.1,2.1,0,0,0,.66,1.328,2,2,0,0,0,1.395.5,2.437,2.437,0,0,0,2.039-.945l1.109,1.242A3.389,3.389,0,0,1,24.648-.246,4.511,4.511,0,0,1,22.727.156Zm-.258-6.945a1.411,1.411,0,0,0-1.09.455,2.357,2.357,0,0,0-.535,1.3h3.141v-.181a1.681,1.681,0,0,0-.406-1.165A1.456,1.456,0,0,0,22.469-6.789Zm9.766.453a6.134,6.134,0,0,0-.812-.062,1.654,1.654,0,0,0-1.68.867V0H27.484V-8.453h2.133l.063,1.008a2.092,2.092,0,0,1,1.883-1.164,2.366,2.366,0,0,1,.7.1Zm5.836,0a6.134,6.134,0,0,0-.812-.062,1.654,1.654,0,0,0-1.68.867V0H33.32V-8.453h2.133l.063,1.008A2.092,2.092,0,0,1,37.4-8.609a2.366,2.366,0,0,1,.7.1ZM41.539,0H39.273V-8.453h2.266Zm-2.4-10.641a1.112,1.112,0,0,1,.34-.836,1.277,1.277,0,0,1,.926-.328,1.28,1.28,0,0,1,.922.328,1.105,1.105,0,0,1,.344.836,1.108,1.108,0,0,1-.348.844,1.283,1.283,0,0,1-.918.328,1.283,1.283,0,0,1-.918-.328A1.108,1.108,0,0,1,39.141-10.641Zm6.961.109v2.078h1.445V-6.8H46.1v4.219a1.007,1.007,0,0,0,.18.672.9.9,0,0,0,.688.2,3.6,3.6,0,0,0,.664-.055V-.047a4.648,4.648,0,0,1-1.367.2,2.156,2.156,0,0,1-2.422-2.4V-6.8H42.609V-8.453h1.234v-2.078ZM48.219-4.3A5.013,5.013,0,0,1,48.7-6.547,3.546,3.546,0,0,1,50.1-8.07a4.069,4.069,0,0,1,2.113-.539A3.849,3.849,0,0,1,55-7.562a4.2,4.2,0,0,1,1.207,2.844l.016.578A4.418,4.418,0,0,1,55.141-1.02,3.775,3.775,0,0,1,52.227.156a3.793,3.793,0,0,1-2.918-1.172A4.5,4.5,0,0,1,48.219-4.2Zm2.258.16A3.16,3.16,0,0,0,50.93-2.3a1.5,1.5,0,0,0,1.3.638,1.5,1.5,0,0,0,1.281-.63,3.457,3.457,0,0,0,.461-2.015,3.128,3.128,0,0,0-.461-1.831,1.5,1.5,0,0,0-1.3-.649,1.474,1.474,0,0,0-1.281.646A3.516,3.516,0,0,0,50.477-4.144ZM62.367-6.336a6.134,6.134,0,0,0-.812-.062,1.654,1.654,0,0,0-1.68.867V0H57.617V-8.453H59.75l.063,1.008A2.092,2.092,0,0,1,61.7-8.609a2.366,2.366,0,0,1,.7.1ZM65.836,0H63.57V-8.453h2.266Zm-2.4-10.641a1.112,1.112,0,0,1,.34-.836A1.277,1.277,0,0,1,64.7-11.8a1.28,1.28,0,0,1,.922.328,1.105,1.105,0,0,1,.344.836,1.108,1.108,0,0,1-.348.844,1.283,1.283,0,0,1-.918.328,1.283,1.283,0,0,1-.918-.328A1.108,1.108,0,0,1,63.438-10.641ZM67.344-4.3a5.013,5.013,0,0,1,.484-2.242A3.546,3.546,0,0,1,69.223-8.07a4.069,4.069,0,0,1,2.113-.539,3.849,3.849,0,0,1,2.793,1.047,4.2,4.2,0,0,1,1.207,2.844l.016.578A4.418,4.418,0,0,1,74.266-1.02,3.775,3.775,0,0,1,71.352.156a3.793,3.793,0,0,1-2.918-1.172A4.5,4.5,0,0,1,67.344-4.2Zm2.258.16A3.16,3.16,0,0,0,70.055-2.3a1.5,1.5,0,0,0,1.3.638,1.5,1.5,0,0,0,1.281-.63,3.457,3.457,0,0,0,.461-2.015,3.128,3.128,0,0,0-.461-1.831,1.5,1.5,0,0,0-1.3-.649,1.474,1.474,0,0,0-1.281.646A3.516,3.516,0,0,0,69.6-4.144ZM81.32-2.336a.727.727,0,0,0-.41-.652,4.659,4.659,0,0,0-1.316-.426q-3.016-.633-3.016-2.562a2.323,2.323,0,0,1,.934-1.879,3.766,3.766,0,0,1,2.441-.754,4.053,4.053,0,0,1,2.574.758,2.388,2.388,0,0,1,.965,1.969H81.234a1.092,1.092,0,0,0-.312-.8A1.322,1.322,0,0,0,79.945-7a1.351,1.351,0,0,0-.883.258.814.814,0,0,0-.312.656.7.7,0,0,0,.355.605,3.657,3.657,0,0,0,1.2.4,9.8,9.8,0,0,1,1.422.379A2.336,2.336,0,0,1,83.516-2.43a2.2,2.2,0,0,1-.992,1.871,4.28,4.28,0,0,1-2.562.715,4.47,4.47,0,0,1-1.887-.379,3.166,3.166,0,0,1-1.293-1.039,2.414,2.414,0,0,1-.469-1.426h2.141a1.179,1.179,0,0,0,.445.922,1.766,1.766,0,0,0,1.109.32,1.635,1.635,0,0,0,.98-.246A.766.766,0,0,0,81.32-2.336Z" transform="translate(421.924 384.551)" fill="#283760"/>
      <path id="Path_1001739" data-name="Path 1001739" d="M.483-4.021a4.776,4.776,0,0,1,.831-2.952,2.7,2.7,0,0,1,2.274-1.1A2.427,2.427,0,0,1,5.5-7.207V-11.25H7.625V0H5.713l-.1-.842A2.491,2.491,0,0,1,3.574.146a2.69,2.69,0,0,1-2.245-1.1A4.93,4.93,0,0,1,.483-4.021ZM2.6-3.863a3.128,3.128,0,0,0,.388,1.709,1.265,1.265,0,0,0,1.128.594A1.416,1.416,0,0,0,5.5-2.389V-5.521a1.4,1.4,0,0,0-1.37-.829Q2.6-6.35,2.6-3.863ZM11.5,0H9.375V-7.925H11.5ZM9.25-9.976a1.042,1.042,0,0,1,.319-.784,1.2,1.2,0,0,1,.868-.308,1.2,1.2,0,0,1,.864.308,1.036,1.036,0,0,1,.322.784,1.039,1.039,0,0,1-.326.791,1.2,1.2,0,0,1-.861.308,1.2,1.2,0,0,1-.861-.308A1.039,1.039,0,0,1,9.25-9.976Zm3.684,5.955A4.644,4.644,0,0,1,13.8-6.958a2.812,2.812,0,0,1,2.34-1.113,2.466,2.466,0,0,1,2.029.894l.088-.747h1.919V-.264a3.387,3.387,0,0,1-.472,1.809,3.034,3.034,0,0,1-1.329,1.172,4.673,4.673,0,0,1-2.007.4,4.346,4.346,0,0,1-1.7-.348,3.016,3.016,0,0,1-1.252-.9L14.355.586a2.48,2.48,0,0,0,1.919.886,1.815,1.815,0,0,0,1.311-.45,1.69,1.69,0,0,0,.469-1.278V-.681a2.448,2.448,0,0,1-1.926.828A2.8,2.8,0,0,1,13.817-.97a4.643,4.643,0,0,1-.883-2.963Zm2.117.158a2.892,2.892,0,0,0,.432,1.691,1.375,1.375,0,0,0,1.187.612,1.47,1.47,0,0,0,1.384-.726V-5.624a1.466,1.466,0,0,0-1.37-.726,1.383,1.383,0,0,0-1.2.624A3.26,3.26,0,0,0,15.051-3.863ZM24.038,0H21.914V-7.925h2.124ZM21.79-9.976a1.042,1.042,0,0,1,.319-.784,1.2,1.2,0,0,1,.868-.308,1.2,1.2,0,0,1,.864.308,1.036,1.036,0,0,1,.322.784,1.039,1.039,0,0,1-.326.791,1.2,1.2,0,0,1-.861.308,1.2,1.2,0,0,1-.861-.308A1.039,1.039,0,0,1,21.79-9.976Zm6.526.1v1.948H29.67v1.553H28.315v3.955a.944.944,0,0,0,.168.63.846.846,0,0,0,.645.19,3.376,3.376,0,0,0,.623-.051v1.6a4.358,4.358,0,0,1-1.282.19A2.021,2.021,0,0,1,26.2-2.1v-4.27H25.042V-7.925H26.2V-9.873ZM35.442,0a2.351,2.351,0,0,1-.212-.71,2.561,2.561,0,0,1-2,.857A2.814,2.814,0,0,1,31.3-.527a2.167,2.167,0,0,1-.765-1.7,2.24,2.24,0,0,1,.934-1.934,4.608,4.608,0,0,1,2.7-.681h.974V-5.3a1.306,1.306,0,0,0-.282-.879,1.109,1.109,0,0,0-.89-.33,1.261,1.261,0,0,0-.839.256.871.871,0,0,0-.3.7H30.71a2.126,2.126,0,0,1,.425-1.274,2.808,2.808,0,0,1,1.2-.919,4.378,4.378,0,0,1,1.743-.333,3.459,3.459,0,0,1,2.325.736,2.575,2.575,0,0,1,.861,2.069v3.435a3.789,3.789,0,0,0,.315,1.707V0Zm-1.75-1.472a1.823,1.823,0,0,0,.864-.209,1.371,1.371,0,0,0,.586-.56V-3.6h-.791q-1.589,0-1.692,1.1l-.007.125a.847.847,0,0,0,.278.652A1.081,1.081,0,0,0,33.691-1.472ZM41.125,0H39V-11.25h2.124Zm5.391.146A3.89,3.89,0,0,1,43.678-.923a3.8,3.8,0,0,1-1.095-2.849v-.205a4.787,4.787,0,0,1,.461-2.135,3.386,3.386,0,0,1,1.307-1.45,3.669,3.669,0,0,1,1.93-.509,3.289,3.289,0,0,1,2.56,1.025,4.167,4.167,0,0,1,.934,2.908v.864H44.729a1.966,1.966,0,0,0,.619,1.245,1.871,1.871,0,0,0,1.307.469,2.285,2.285,0,0,0,1.912-.886l1.04,1.165A3.178,3.178,0,0,1,48.318-.231,4.229,4.229,0,0,1,46.516.146Zm-.242-6.511a1.323,1.323,0,0,0-1.022.427,2.209,2.209,0,0,0-.5,1.221H47.7v-.169a1.576,1.576,0,0,0-.381-1.092A1.365,1.365,0,0,0,46.274-6.365ZM55.269-2.19a.682.682,0,0,0-.385-.612,4.368,4.368,0,0,0-1.234-.4q-2.827-.593-2.827-2.4A2.178,2.178,0,0,1,51.7-7.365a3.531,3.531,0,0,1,2.289-.707,3.8,3.8,0,0,1,2.413.71,2.239,2.239,0,0,1,.9,1.846H55.188a1.024,1.024,0,0,0-.293-.751,1.24,1.24,0,0,0-.916-.3,1.267,1.267,0,0,0-.828.242.763.763,0,0,0-.293.615.652.652,0,0,0,.333.568,3.428,3.428,0,0,0,1.124.374,9.183,9.183,0,0,1,1.333.355,2.19,2.19,0,0,1,1.677,2.131A2.067,2.067,0,0,1,56.4-.524a4.013,4.013,0,0,1-2.4.67,4.191,4.191,0,0,1-1.769-.355,2.968,2.968,0,0,1-1.212-.974,2.263,2.263,0,0,1-.439-1.337h2.007A1.105,1.105,0,0,0,53-1.655a1.656,1.656,0,0,0,1.04.3,1.533,1.533,0,0,0,.919-.231A.718.718,0,0,0,55.269-2.19Z" transform="translate(434.51 401.2)" fill="#283760"/>
      <path id="Path_1001744" data-name="Path 1001744" d="M5.766,0a2.507,2.507,0,0,1-.227-.758A2.732,2.732,0,0,1,3.406.156,3,3,0,0,1,1.348-.562,2.312,2.312,0,0,1,.531-2.375a2.389,2.389,0,0,1,1-2.062,4.915,4.915,0,0,1,2.879-.727H5.445v-.484a1.393,1.393,0,0,0-.3-.937A1.183,1.183,0,0,0,4.2-6.937a1.345,1.345,0,0,0-.895.273.929.929,0,0,0-.324.75H.719a2.268,2.268,0,0,1,.453-1.359,3,3,0,0,1,1.281-.98,4.669,4.669,0,0,1,1.859-.355,3.689,3.689,0,0,1,2.48.785,2.747,2.747,0,0,1,.918,2.207v3.664a4.041,4.041,0,0,0,.336,1.82V0ZM3.9-1.57a1.945,1.945,0,0,0,.922-.223,1.462,1.462,0,0,0,.625-.6V-3.844H4.6q-1.7,0-1.8,1.172l-.008.133a.9.9,0,0,0,.3.7A1.153,1.153,0,0,0,3.9-1.57ZM21.039-4.148a5.07,5.07,0,0,1-.887,3.129A2.843,2.843,0,0,1,17.758.156a2.633,2.633,0,0,1-2.07-.891V3.25H13.43v-11.7h2.094l.078.828a2.654,2.654,0,0,1,2.141-.984,2.862,2.862,0,0,1,2.43,1.156,5.207,5.207,0,0,1,.867,3.188Zm-2.258-.164a3.327,3.327,0,0,0-.418-1.82,1.361,1.361,0,0,0-1.215-.641,1.478,1.478,0,0,0-1.461.813V-2.5a1.5,1.5,0,0,0,1.477.836Q18.781-1.664,18.781-4.312Zm3.3.008a5.013,5.013,0,0,1,.484-2.242A3.546,3.546,0,0,1,23.965-8.07a4.069,4.069,0,0,1,2.113-.539,3.849,3.849,0,0,1,2.793,1.047,4.2,4.2,0,0,1,1.207,2.844l.016.578A4.418,4.418,0,0,1,29.008-1.02,3.775,3.775,0,0,1,26.094.156a3.793,3.793,0,0,1-2.918-1.172A4.5,4.5,0,0,1,22.086-4.2Zm2.258.16A3.16,3.16,0,0,0,24.8-2.3a1.5,1.5,0,0,0,1.3.638,1.5,1.5,0,0,0,1.281-.63,3.457,3.457,0,0,0,.461-2.015,3.128,3.128,0,0,0-.461-1.831,1.5,1.5,0,0,0-1.3-.649,1.474,1.474,0,0,0-1.281.646A3.516,3.516,0,0,0,24.344-4.144Zm14.758,0A5.119,5.119,0,0,1,38.234-.98,2.872,2.872,0,0,1,35.813.156,2.639,2.639,0,0,1,33.617-.9l-.1.9H31.484V-12h2.258v4.3A2.571,2.571,0,0,1,35.8-8.609a2.9,2.9,0,0,1,2.426,1.137,5.126,5.126,0,0,1,.879,3.2Zm-2.258-.164a3.363,3.363,0,0,0-.406-1.871,1.374,1.374,0,0,0-1.211-.59,1.489,1.489,0,0,0-1.484.883v3.336a1.509,1.509,0,0,0,1.5.891A1.394,1.394,0,0,0,36.68-2.742,5.562,5.562,0,0,0,36.844-4.312ZM42.875,0H40.609V-12h2.266Zm6.758,0a2.507,2.507,0,0,1-.227-.758,2.732,2.732,0,0,1-2.133.914,3,3,0,0,1-2.059-.719A2.312,2.312,0,0,1,44.4-2.375a2.389,2.389,0,0,1,1-2.062,4.915,4.915,0,0,1,2.879-.727h1.039v-.484a1.393,1.393,0,0,0-.3-.937,1.183,1.183,0,0,0-.949-.352,1.345,1.345,0,0,0-.895.273.929.929,0,0,0-.324.75H44.586a2.268,2.268,0,0,1,.453-1.359,3,3,0,0,1,1.281-.98,4.669,4.669,0,0,1,1.859-.355,3.689,3.689,0,0,1,2.48.785,2.747,2.747,0,0,1,.918,2.207v3.664a4.041,4.041,0,0,0,.336,1.82V0ZM47.766-1.57a1.945,1.945,0,0,0,.922-.223,1.462,1.462,0,0,0,.625-.6V-3.844h-.844q-1.7,0-1.8,1.172l-.008.133a.9.9,0,0,0,.3.7A1.153,1.153,0,0,0,47.766-1.57Zm9.063-.094a1.481,1.481,0,0,0,1.016-.344,1.2,1.2,0,0,0,.406-.914h2.117A2.9,2.9,0,0,1,59.9-1.348,3.093,3.093,0,0,1,58.637-.238a3.949,3.949,0,0,1-1.77.395A3.67,3.67,0,0,1,54.008-1,4.56,4.56,0,0,1,52.961-4.18v-.148A4.508,4.508,0,0,1,54-7.445a3.627,3.627,0,0,1,2.852-1.164,3.555,3.555,0,0,1,2.543.9,3.2,3.2,0,0,1,.973,2.4H58.25a1.551,1.551,0,0,0-.406-1.072,1.354,1.354,0,0,0-1.031-.412,1.36,1.36,0,0,0-1.191.575,3.333,3.333,0,0,0-.4,1.866v.235a3.375,3.375,0,0,0,.4,1.878A1.377,1.377,0,0,0,56.828-1.664ZM64.039,0H61.773V-8.453h2.266Zm-2.4-10.641a1.112,1.112,0,0,1,.34-.836,1.277,1.277,0,0,1,.926-.328,1.28,1.28,0,0,1,.922.328,1.105,1.105,0,0,1,.344.836,1.108,1.108,0,0,1-.348.844,1.283,1.283,0,0,1-.918.328,1.283,1.283,0,0,1-.918-.328A1.108,1.108,0,0,1,61.641-10.641ZM65.547-4.3a5.013,5.013,0,0,1,.484-2.242A3.546,3.546,0,0,1,67.426-8.07a4.069,4.069,0,0,1,2.113-.539,3.849,3.849,0,0,1,2.793,1.047,4.2,4.2,0,0,1,1.207,2.844l.016.578A4.418,4.418,0,0,1,72.469-1.02,3.775,3.775,0,0,1,69.555.156a3.793,3.793,0,0,1-2.918-1.172A4.5,4.5,0,0,1,65.547-4.2Zm2.258.16A3.16,3.16,0,0,0,68.258-2.3a1.5,1.5,0,0,0,1.3.638,1.5,1.5,0,0,0,1.281-.63A3.457,3.457,0,0,0,71.3-4.309a3.128,3.128,0,0,0-.461-1.831,1.5,1.5,0,0,0-1.3-.649,1.474,1.474,0,0,0-1.281.646A3.516,3.516,0,0,0,67.8-4.144ZM69.984-12h2.461L70.281-9.578H68.445Zm7.039,3.547.07.977a2.951,2.951,0,0,1,2.43-1.133,2.453,2.453,0,0,1,2,.789A3.682,3.682,0,0,1,82.2-5.461V0H79.938V-5.406a1.465,1.465,0,0,0-.312-1.043,1.4,1.4,0,0,0-1.039-.324,1.553,1.553,0,0,0-1.43.813V0H74.9V-8.453Z" transform="translate(423.639 473.087)" fill="#283760"/>
      <path id="Path_1001745" data-name="Path 1001745" d="M.516-4.289A5.094,5.094,0,0,1,1.4-7.437,2.877,2.877,0,0,1,3.828-8.609a2.589,2.589,0,0,1,2.039.922V-12H8.133V0H6.094L5.984-.9A2.657,2.657,0,0,1,3.813.156,2.869,2.869,0,0,1,1.418-1.02,5.258,5.258,0,0,1,.516-4.289Zm2.258.168A3.337,3.337,0,0,0,3.188-2.3a1.349,1.349,0,0,0,1.2.634,1.511,1.511,0,0,0,1.477-.884V-5.889a1.489,1.489,0,0,0-1.461-.884Q2.773-6.773,2.773-4.121Zm11,4.277A4.15,4.15,0,0,1,10.746-.984,4.054,4.054,0,0,1,9.578-4.023v-.219A5.106,5.106,0,0,1,10.07-6.52a3.612,3.612,0,0,1,1.395-1.547,3.914,3.914,0,0,1,2.059-.543,3.508,3.508,0,0,1,2.73,1.094,4.444,4.444,0,0,1,1,3.1v.922H11.867a2.1,2.1,0,0,0,.66,1.328,2,2,0,0,0,1.395.5,2.437,2.437,0,0,0,2.039-.945L17.07-1.367A3.389,3.389,0,0,1,15.7-.246,4.511,4.511,0,0,1,13.773.156Zm-.258-6.945a1.411,1.411,0,0,0-1.09.455,2.357,2.357,0,0,0-.535,1.3h3.141v-.181a1.681,1.681,0,0,0-.406-1.165A1.456,1.456,0,0,0,13.516-6.789Zm9.594,4.453a.727.727,0,0,0-.41-.652,4.659,4.659,0,0,0-1.316-.426q-3.016-.633-3.016-2.562A2.323,2.323,0,0,1,19.3-7.855a3.766,3.766,0,0,1,2.441-.754,4.053,4.053,0,0,1,2.574.758,2.388,2.388,0,0,1,.965,1.969H23.023a1.092,1.092,0,0,0-.312-.8A1.322,1.322,0,0,0,21.734-7a1.351,1.351,0,0,0-.883.258.814.814,0,0,0-.312.656.7.7,0,0,0,.355.605,3.657,3.657,0,0,0,1.2.4,9.8,9.8,0,0,1,1.422.379A2.336,2.336,0,0,1,25.3-2.43a2.2,2.2,0,0,1-.992,1.871A4.28,4.28,0,0,1,21.75.156a4.47,4.47,0,0,1-1.887-.379A3.166,3.166,0,0,1,18.57-1.262,2.414,2.414,0,0,1,18.1-2.687h2.141a1.179,1.179,0,0,0,.445.922,1.766,1.766,0,0,0,1.109.32,1.635,1.635,0,0,0,.98-.246A.766.766,0,0,0,23.109-2.336ZM34.367-4.148A5.07,5.07,0,0,1,33.48-1.02,2.843,2.843,0,0,1,31.086.156a2.633,2.633,0,0,1-2.07-.891V3.25H26.758v-11.7h2.094l.078.828a2.654,2.654,0,0,1,2.141-.984A2.862,2.862,0,0,1,33.5-7.453a5.207,5.207,0,0,1,.867,3.188Zm-2.258-.164a3.327,3.327,0,0,0-.418-1.82,1.361,1.361,0,0,0-1.215-.641,1.478,1.478,0,0,0-1.461.813V-2.5a1.5,1.5,0,0,0,1.477.836Q32.109-1.664,32.109-4.312ZM38.148,0H35.883V-12h2.266Zm6.758,0a2.507,2.507,0,0,1-.227-.758,2.732,2.732,0,0,1-2.133.914,3,3,0,0,1-2.059-.719,2.312,2.312,0,0,1-.816-1.812,2.389,2.389,0,0,1,1-2.062,4.915,4.915,0,0,1,2.879-.727h1.039v-.484a1.393,1.393,0,0,0-.3-.937,1.183,1.183,0,0,0-.949-.352,1.345,1.345,0,0,0-.895.273.929.929,0,0,0-.324.75H39.859a2.268,2.268,0,0,1,.453-1.359,3,3,0,0,1,1.281-.98,4.669,4.669,0,0,1,1.859-.355,3.689,3.689,0,0,1,2.48.785,2.747,2.747,0,0,1,.918,2.207v3.664a4.041,4.041,0,0,0,.336,1.82V0ZM43.039-1.57a1.945,1.945,0,0,0,.922-.223,1.462,1.462,0,0,0,.625-.6V-3.844h-.844q-1.7,0-1.8,1.172l-.008.133a.9.9,0,0,0,.3.7A1.153,1.153,0,0,0,43.039-1.57Zm8.141-.25h4.133V0H48.3V-1.375l3.977-5.258H48.414v-1.82h6.773v1.33ZM61.625,0A2.507,2.507,0,0,1,61.4-.758a2.732,2.732,0,0,1-2.133.914,3,3,0,0,1-2.059-.719,2.312,2.312,0,0,1-.816-1.812,2.389,2.389,0,0,1,1-2.062,4.915,4.915,0,0,1,2.879-.727H61.3v-.484a1.393,1.393,0,0,0-.3-.937,1.183,1.183,0,0,0-.949-.352,1.345,1.345,0,0,0-.895.273.929.929,0,0,0-.324.75H56.578a2.268,2.268,0,0,1,.453-1.359,3,3,0,0,1,1.281-.98,4.669,4.669,0,0,1,1.859-.355,3.689,3.689,0,0,1,2.48.785,2.747,2.747,0,0,1,.918,2.207v3.664a4.041,4.041,0,0,0,.336,1.82V0ZM59.758-1.57a1.945,1.945,0,0,0,.922-.223,1.462,1.462,0,0,0,.625-.6V-3.844h-.844q-1.7,0-1.8,1.172l-.008.133a.9.9,0,0,0,.3.7A1.153,1.153,0,0,0,59.758-1.57Zm5.2-2.719a5.094,5.094,0,0,1,.887-3.148,2.877,2.877,0,0,1,2.426-1.172,2.589,2.589,0,0,1,2.039.922V-12H72.57V0H70.531l-.109-.9A2.657,2.657,0,0,1,68.25.156,2.869,2.869,0,0,1,65.855-1.02,5.258,5.258,0,0,1,64.953-4.289Zm2.258.168A3.337,3.337,0,0,0,67.625-2.3a1.349,1.349,0,0,0,1.2.634A1.511,1.511,0,0,0,70.3-2.548V-5.889a1.489,1.489,0,0,0-1.461-.884Q67.211-6.773,67.211-4.121ZM79.219,0a2.507,2.507,0,0,1-.227-.758,2.732,2.732,0,0,1-2.133.914A3,3,0,0,1,74.8-.562a2.312,2.312,0,0,1-.816-1.812,2.389,2.389,0,0,1,1-2.062,4.915,4.915,0,0,1,2.879-.727H78.9v-.484a1.393,1.393,0,0,0-.3-.937,1.183,1.183,0,0,0-.949-.352,1.345,1.345,0,0,0-.895.273.929.929,0,0,0-.324.75H74.172a2.268,2.268,0,0,1,.453-1.359,3,3,0,0,1,1.281-.98,4.669,4.669,0,0,1,1.859-.355,3.689,3.689,0,0,1,2.48.785,2.747,2.747,0,0,1,.918,2.207v3.664A4.041,4.041,0,0,0,81.5-.133V0ZM77.352-1.57a1.945,1.945,0,0,0,.922-.223,1.462,1.462,0,0,0,.625-.6V-3.844h-.844q-1.7,0-1.8,1.172l-.008.133a.9.9,0,0,0,.3.7A1.153,1.153,0,0,0,77.352-1.57Z" transform="translate(423.737 490.736)" fill="#283760"/>
    </g>
  </g>
</svg>
