<svg xmlns="http://www.w3.org/2000/svg" width="50" height="50" viewBox="0 0 50 50">
  <g id="Grupo_1177982" data-name="Grupo 1177982" transform="translate(-186.371 -923)">
    <rect id="Rectángulo_455048" data-name="Rectángulo 455048" width="50" height="50" rx="24" transform="translate(186.371 923)" fill="#fcae57"/>
    <path id="chart-pie-solid-full_1_" data-name="chart-pie-solid-full(1)" d="M91.091,79.1H81.3a1.778,1.778,0,0,1-1.779-1.779V67.535A1.611,1.611,0,0,1,81.3,65.873,13.355,13.355,0,0,1,92.754,77.328,1.611,1.611,0,0,1,91.091,79.1ZM74.976,67.824a1.6,1.6,0,0,1,1.88,1.64V80.436a1.351,1.351,0,0,0,.306.851l7.346,8.864a1.6,1.6,0,0,1-.384,2.452,13.346,13.346,0,1,1-9.147-24.779ZM89.167,81.771h3.559a1.6,1.6,0,0,1,1.64,1.88,13.3,13.3,0,0,1-3.87,6.906,1.612,1.612,0,0,1-2.358-.217l-4.693-5.655a1.779,1.779,0,0,1,1.368-2.914h4.348Z" transform="translate(131.971 868.141)" fill="#283760"/>
  </g>
</svg>
