<svg xmlns="http://www.w3.org/2000/svg" width="100" height="100" viewBox="0 0 100 100">
  <g id="Grupo_1179015" data-name="Grupo 1179015" transform="translate(-522.63 -505)">
    <rect id="Rectángulo_455088" data-name="Rectángulo 455088" width="100" height="100" rx="10" transform="translate(522.63 505)" fill="#fcae57"/>
    <g id="Grupo_1179014" data-name="Grupo 1179014" transform="translate(532.946 493.663)">
      <g id="Grupo_1179013" data-name="Grupo 1179013" transform="translate(2.213 27.737)">
        <g id="Grupo_1179008" data-name="Grupo 1179008" transform="translate(0 3.165)">
          <path id="Trazado_1001513" data-name="Trazado 1001513" d="M162.761,403.826l-26.034.334-5.784,9.925a.607.607,0,0,0,.525.914h36.746a.607.607,0,0,0,.525-.914Z" transform="translate(-112.369 -350.966)" fill="#003748" fill-rule="evenodd"/>
          <path id="Trazado_1001514" data-name="Trazado 1001514" d="M324.325,403.826l-3.012.039,5.956,10.221a.607.607,0,0,1-.525.914h3.034a.607.607,0,0,0,.525-.914Z" transform="translate(-273.933 -350.966)" fill="#00242f" fill-rule="evenodd"/>
          <path id="Trazado_1001515" data-name="Trazado 1001515" d="M80.03,55.386A3.924,3.924,0,0,1,83.943,59.3v45.58a3.924,3.924,0,0,1-3.912,3.912H12.912A3.924,3.924,0,0,1,9,104.878V59.3a3.924,3.924,0,0,1,3.912-3.912Z" transform="translate(-9 -55.386)" fill="#e6f8ff" fill-rule="evenodd"/>
          <path id="Trazado_1001516" data-name="Trazado 1001516" d="M451.762,55.386a3.924,3.924,0,0,1,3.913,3.912v45.58a3.924,3.924,0,0,1-3.913,3.912h-4.551a3.924,3.924,0,0,0,3.913-3.912V59.3a3.924,3.924,0,0,0-3.913-3.912Z" transform="translate(-380.732 -55.386)" fill="#d0f1ff" fill-rule="evenodd"/>
          <path id="Trazado_1001517" data-name="Trazado 1001517" d="M83.943,374.234H9v2.639a3.924,3.924,0,0,0,3.912,3.913H80.03a3.924,3.924,0,0,0,3.912-3.913Z" transform="translate(-9 -325.863)" fill="#004960" fill-rule="evenodd"/>
          <path id="Trazado_1001518" data-name="Trazado 1001518" d="M455.674,374.234h-4.551v2.639a3.924,3.924,0,0,1-3.912,3.913h4.551a3.924,3.924,0,0,0,3.912-3.913Z" transform="translate(-380.732 -325.863)" fill="#003748" fill-rule="evenodd"/>
        </g>
        <g id="Grupo_1179009" data-name="Grupo 1179009" transform="translate(7.443 0)">
          <path id="Trazado_1001519" data-name="Trazado 1001519" d="M88.088,34.522A30.035,30.035,0,0,1,114.1,79.567l-9.229-5.328a19.373,19.373,0,1,0-33.56,0l-9.229,5.328A30.035,30.035,0,0,1,88.088,34.522Z" transform="translate(-58.059 -34.522)" fill="#fc685b" fill-rule="evenodd"/>
          <path id="Trazado_1001520" data-name="Trazado 1001520" d="M148.756,116.909l-2.876-1.661a19.373,19.373,0,1,0-33.56,0l-2.876,1.661a22.694,22.694,0,1,1,39.313,0Z" transform="translate(-99.071 -75.532)" fill="#f35244" fill-rule="evenodd"/>
          <path id="Trazado_1001521" data-name="Trazado 1001521" d="M62.079,72.006A29.89,29.89,0,0,0,58.06,87.023H68.715A19.364,19.364,0,0,1,78.4,70.242l-5.329-9.229A30.173,30.173,0,0,0,62.079,72.006Z" transform="translate(-58.06 -56.994)" fill="#f35244" fill-rule="evenodd"/>
          <path id="Trazado_1001522" data-name="Trazado 1001522" d="M106.4,122.547h3.321a19.364,19.364,0,0,1,9.685-16.781l-1.66-2.876A22.685,22.685,0,0,0,106.4,122.547Z" transform="translate(-99.071 -92.518)" fill="#eb423f" fill-rule="evenodd"/>
          <path id="Trazado_1001523" data-name="Trazado 1001523" d="M84.551,49.534l9.229,5.329a19.364,19.364,0,0,1,16.781-9.685q0-5.328,0-10.655a30.014,30.014,0,0,0-26.01,15.012Z" transform="translate(-80.532 -34.522)" fill="#ffda2d" fill-rule="evenodd"/>
          <path id="Trazado_1001524" data-name="Trazado 1001524" d="M126.429,94.213l2.876,1.66a19.364,19.364,0,0,1,16.781-9.685V82.867h0A22.685,22.685,0,0,0,126.429,94.213Z" transform="translate(-116.057 -75.533)" fill="#ffc700" fill-rule="evenodd"/>
          <path id="Trazado_1001525" data-name="Trazado 1001525" d="M157.014,38.541l5.329,9.229a19.285,19.285,0,0,1,9.688-2.593h0a19.285,19.285,0,0,1,9.688,2.593l5.328-9.229a30.067,30.067,0,0,0-30.034,0Z" transform="translate(-142.002 -34.522)" fill="#ffc700" fill-rule="evenodd"/>
          <path id="Trazado_1001526" data-name="Trazado 1001526" d="M181.193,85.9l1.66,2.876a19.285,19.285,0,0,1,9.688-2.593h0a19.285,19.285,0,0,1,9.688,2.593l1.66-2.876a22.718,22.718,0,0,0-22.7,0Z" transform="translate(-162.513 -75.533)" fill="#fdb800" fill-rule="evenodd"/>
          <path id="Trazado_1001527" data-name="Trazado 1001527" d="M256,34.522q0,5.328,0,10.655a19.364,19.364,0,0,1,16.781,9.685l9.229-5.329A30.015,30.015,0,0,0,256,34.522Z" transform="translate(-225.971 -34.522)" fill="#72d561" fill-rule="evenodd"/>
          <path id="Trazado_1001528" data-name="Trazado 1001528" d="M256,82.867v3.321a19.364,19.364,0,0,1,16.781,9.685l2.876-1.66A22.685,22.685,0,0,0,256,82.867Z" transform="translate(-225.971 -75.533)" fill="#57ca5a" fill-rule="evenodd"/>
          <path id="Trazado_1001529" data-name="Trazado 1001529" d="M325.192,61.013l-5.329,9.229a19.364,19.364,0,0,1,9.685,16.781H340.2a30.015,30.015,0,0,0-15.012-26.01Z" transform="translate(-280.146 -56.994)" fill="#57ca5a" fill-rule="evenodd"/>
          <path id="Trazado_1001530" data-name="Trazado 1001530" d="M321.523,102.891l-1.66,2.876a19.364,19.364,0,0,1,9.685,16.781h3.321A22.685,22.685,0,0,0,321.523,102.891Z" transform="translate(-280.146 -92.519)" fill="#3cbe52" fill-rule="evenodd"/>
          <path id="Trazado_1001531" data-name="Trazado 1001531" d="M375.84,133.476l-9.229,5.329a19.4,19.4,0,0,1,0,19.377l9.229,5.328a30.063,30.063,0,0,0,0-30.033Z" transform="translate(-319.801 -118.464)" fill="#64b5f6" fill-rule="evenodd"/>
          <path id="Trazado_1001532" data-name="Trazado 1001532" d="M369.486,157.655l-2.876,1.66a19.4,19.4,0,0,1,0,19.377l2.876,1.661a22.718,22.718,0,0,0,0-22.7Z" transform="translate(-319.8 -138.975)" fill="#42a5f5" fill-rule="evenodd"/>
          <path id="Trazado_1001533" data-name="Trazado 1001533" d="M379.858,232.462H369.2a19.285,19.285,0,0,1-2.593,9.688l9.229,5.328A29.888,29.888,0,0,0,379.858,232.462Z" transform="translate(-319.8 -202.433)" fill="#42a5f5" fill-rule="evenodd"/>
          <path id="Trazado_1001534" data-name="Trazado 1001534" d="M372.524,232.462H369.2a19.285,19.285,0,0,1-2.593,9.688l2.876,1.661A22.589,22.589,0,0,0,372.524,232.462Z" transform="translate(-319.801 -202.433)" fill="#2d90f1" fill-rule="evenodd"/>
        </g>
        <g id="Grupo_1179010" data-name="Grupo 1179010" transform="translate(37.323 16.235)">
          <path id="Trazado_1001535" data-name="Trazado 1001535" d="M271.811,148.38l1.123,1.945a.61.61,0,0,0,1.093-.073l2.82-6.875a.61.61,0,0,0-.483-.836l-7.364-1a.61.61,0,0,0-.61.91l1.123,1.945-14.089,8.134a.8.8,0,0,0-.293,1.092l1.5,2.595a.8.8,0,0,0,1.092.293Z" transform="translate(-255.025 -141.539)" fill="#ffd6bd" fill-rule="evenodd"/>
          <path id="Trazado_1001536" data-name="Trazado 1001536" d="M276.88,154.255l.763,1.322a.61.61,0,0,0,1.093-.073l2.82-6.875a.61.61,0,0,0-.483-.836l-.455-.062-2.646,6.45A.61.61,0,0,1,276.88,154.255Zm-16.3,5.9.762,1.32a.8.8,0,0,0,1.092.293l14.089-8.134-.764-1.323-14.089,8.134A.8.8,0,0,1,260.577,160.154Z" transform="translate(-259.735 -146.792)" fill="#f9c6aa" fill-rule="evenodd"/>
        </g>
        <g id="Grupo_1179012" data-name="Grupo 1179012" transform="translate(18.429 10.994)">
          <circle id="Elipse_13747" data-name="Elipse 13747" cx="13.462" cy="13.462" r="13.462" transform="translate(0 19.035) rotate(-45)" fill="#fdb800"/>
          <path id="Trazado_1001537" data-name="Trazado 1001537" d="M207.41,164.9a13.461,13.461,0,1,1-18.975,18.976A13.461,13.461,0,0,0,207.41,164.9Z" transform="translate(-179.642 -156.113)" fill="#f4a40e" fill-rule="evenodd"/>
          <circle id="Elipse_13748" data-name="Elipse 13748" cx="9.396" cy="9.396" r="9.396" transform="translate(9.647 9.638)" fill="#ffda2d"/>
          <g id="Grupo_1179011" data-name="Grupo 1179011" transform="translate(9.646 9.638)">
            <path id="Trazado_1001538" data-name="Trazado 1001538" d="M203.46,170.527a9.37,9.37,0,0,1,6.88,3,9.4,9.4,0,0,0-12.447,13.967,9.4,9.4,0,0,1,5.568-16.965Z" transform="translate(-194.064 -170.527)" fill="#ffc700" fill-rule="evenodd"/>
            <path id="Trazado_1001539" data-name="Trazado 1001539" d="M230.163,192.376a1.214,1.214,0,1,1,2.427,0v.568a3.211,3.211,0,0,1,1.751,1.212,1.209,1.209,0,0,1-1.963,1.413.756.756,0,0,0-.267-.23.738.738,0,0,0-.338-.077h-.616a.743.743,0,0,0,0,1.486h.437a3.171,3.171,0,0,1,.995,6.18v.618a1.214,1.214,0,0,1-2.427,0v-.568a3.209,3.209,0,0,1-1.751-1.212,1.209,1.209,0,0,1,1.963-1.413.759.759,0,0,0,.267.23.739.739,0,0,0,.338.077h.616a.743.743,0,0,0,0-1.486h-.437a3.171,3.171,0,0,1-1-6.18v-.618Z" transform="translate(-222.842 -188.032)" fill="#ffc700" fill-rule="evenodd"/>
          </g>
        </g>
      </g>
      <path id="Trazado_1001540" data-name="Trazado 1001540" d="M43.073,59.723a3.176,3.176,0,0,1-2.175,3.01v.617a1.214,1.214,0,0,1-2.428,0v-.566a3.2,3.2,0,0,1-1.753-1.209,1.213,1.213,0,1,1,1.967-1.421.751.751,0,0,0,.6.311H39.9a.743.743,0,1,0,0-1.485h-.437a3.17,3.17,0,0,1-1-6.18v-.617a1.214,1.214,0,0,1,2.428,0v.566a3.183,3.183,0,0,1,1.754,1.209,1.214,1.214,0,1,1-1.968,1.422.746.746,0,0,0-.6-.313h-.616a.743.743,0,0,0,0,1.487H39.9a3.174,3.174,0,0,1,3.17,3.171Zm-3.389,6.226A8.183,8.183,0,1,0,31.5,57.766,8.192,8.192,0,0,0,39.684,65.949Zm0-18.793a10.61,10.61,0,1,0,10.61,10.61,10.623,10.623,0,0,0-10.61-10.61ZM73.243,84.611H6.125a2.7,2.7,0,0,1-2.7-2.7V80.487H75.942v1.425A2.7,2.7,0,0,1,73.243,84.611ZM57,93.722H22.365l3.9-6.684H53.108ZM6.125,32.116a2.7,2.7,0,0,0-2.7,2.7V78.06H75.942V34.815a2.7,2.7,0,0,0-2.7-2.7H57.5A31.233,31.233,0,0,1,66.744,73.39a1.214,1.214,0,0,1-1.658.444l-9.228-5.328a1.216,1.216,0,0,1-.445-1.66A18.21,18.21,0,0,0,57.5,54.215a1.808,1.808,0,0,1-1.1-.85l-.516-.893-2.1,1.21A14.707,14.707,0,1,1,50.262,47.6l2.1-1.213-.516-.894a1.809,1.809,0,0,1-.185-1.376A18.162,18.162,0,0,0,23.954,66.846a1.215,1.215,0,0,1-.444,1.66l-9.229,5.328a1.213,1.213,0,0,1-1.657-.444,31.233,31.233,0,0,1,9.244-41.274H6.125ZM40.9,28.978a28.64,28.64,0,0,1,12.127,3.253l-4.113,7.123A20.427,20.427,0,0,0,40.9,37.216ZM30.461,39.364l-4.118-7.133A28.634,28.634,0,0,1,38.47,28.978v8.238a20.436,20.436,0,0,0-8.009,2.148ZM22.5,46.443l-7.134-4.119a29.058,29.058,0,0,1,8.876-8.876l4.119,7.133A20.75,20.75,0,0,0,22.5,46.443Zm-3.366,10.11H10.9A28.613,28.613,0,0,1,14.15,44.425l7.132,4.117A20.457,20.457,0,0,0,19.134,56.553Zm0,2.427a20.594,20.594,0,0,0,2.144,8.012l-7.136,4.121A28.8,28.8,0,0,1,10.9,58.98ZM61.364,43.847a1.908,1.908,0,0,0-.326-.076l-7.225-.977a20.556,20.556,0,0,0-2.8-2.224l4.112-7.122A29.071,29.071,0,0,1,64,42.324ZM60.234,56.553a20.526,20.526,0,0,0-.517-3.542l2.766-6.74a1.878,1.878,0,0,0,.1-.32l2.64-1.525a28.6,28.6,0,0,1,3.254,12.127Zm0,2.427H68.47a28.794,28.794,0,0,1-3.243,12.132l-7.134-4.119A20.6,20.6,0,0,0,60.235,58.98Zm-8.424-9.468,2.82-1.628a1.213,1.213,0,0,0,.444-1.658l-.509-.88,5.373.725-2.058,5.016-.508-.88a1.214,1.214,0,0,0-1.659-.444L52.9,51.389a14.584,14.584,0,0,0-1.088-1.877Zm.121,8.254A12.248,12.248,0,1,0,39.684,70.015,12.263,12.263,0,0,0,51.932,57.766ZM73.243,29.689H53.377a31.2,31.2,0,0,0-27.385,0H6.125A5.132,5.132,0,0,0,1,34.815v47.1a5.132,5.132,0,0,0,5.126,5.126H23.451l-3.713,6.374a1.8,1.8,0,0,0-.012,1.817,1.837,1.837,0,0,0,1.586.921H58.057a1.835,1.835,0,0,0,1.585-.921,1.8,1.8,0,0,0-.01-1.817l-3.714-6.374H73.243a5.132,5.132,0,0,0,5.126-5.126v-47.1A5.132,5.132,0,0,0,73.243,29.689Z" fill-rule="evenodd"/>
    </g>
  </g>
</svg>
