<svg xmlns="http://www.w3.org/2000/svg" width="128" height="128" viewBox="0 0 128 128">
  <g id="img33" transform="translate(-383.746 -8399.753)">
    <circle id="Ellipse_13609" data-name="Ellipse 13609" cx="64" cy="64" r="64" transform="translate(383.746 8399.753)" fill="#b1ec6f"/>
    <g id="Group_1178429" data-name="Group 1178429" transform="translate(404.746 8375.285)">
      <g id="Group_1178424" data-name="Group 1178424" transform="translate(51.197 61.468)">
        <g id="Group_1178423" data-name="Group 1178423">
          <path id="Path_999750" data-name="Path 999750" d="M232.737,87.551l-25.6-24.58a5.512,5.512,0,0,0-7.565,0,5.143,5.143,0,0,0,0,7.462h0l19.153,18.392-19.154,18.391a5.146,5.146,0,0,0,0,7.463,5.51,5.51,0,0,0,7.563,0l25.6-24.58a1.765,1.765,0,0,0,0-2.547Zm-28.045,24.582a1.972,1.972,0,0,1-2.672,0,1.617,1.617,0,0,1,0-2.371L222.5,90.1a1.765,1.765,0,0,0,0-2.547L202.02,67.886h0a1.614,1.614,0,0,1,0-2.368,1.972,1.972,0,0,1,2.674,0l24.273,23.308Z" transform="translate(-197.972 -61.468)" fill="#283760"/>
        </g>
      </g>
      <g id="Group_1178426" data-name="Group 1178426" transform="translate(24.715 61.468)">
        <g id="Group_1178425" data-name="Group 1178425">
          <path id="Path_999751" data-name="Path 999751" d="M130.337,87.552l-25.6-24.581a5.514,5.514,0,0,0-7.565,0,5.143,5.143,0,0,0,0,7.462h0l19.153,18.392L97.174,107.217a5.146,5.146,0,0,0,0,7.463,5.513,5.513,0,0,0,7.565,0l25.6-24.58a1.765,1.765,0,0,0,0-2.547ZM102.3,112.133a1.975,1.975,0,0,1-2.676,0,1.617,1.617,0,0,1,0-2.371L120.1,90.1a1.765,1.765,0,0,0,0-2.547L99.62,67.887h0a1.614,1.614,0,0,1,0-2.368,1.976,1.976,0,0,1,2.676,0l24.271,23.307Z" transform="translate(-95.572 -61.469)" fill="#283760"/>
        </g>
      </g>
      <g id="Group_1178428" data-name="Group 1178428" transform="translate(0 61.47)">
        <g id="Group_1178427" data-name="Group 1178427" transform="translate(0 0)">
          <path id="Path_999752" data-name="Path 999752" d="M34.765,87.556,9.169,62.975a5.518,5.518,0,0,0-7.565,0,5.143,5.143,0,0,0,0,7.462h0L20.756,88.829,1.6,107.22a5.146,5.146,0,0,0,0,7.463,5.443,5.443,0,0,0,3.781,1.5,5.453,5.453,0,0,0,3.785-1.5l25.6-24.58a1.765,1.765,0,0,0,0-2.547ZM6.723,112.136a1.952,1.952,0,0,1-2.676,0,1.617,1.617,0,0,1,0-2.371L24.526,90.1a1.765,1.765,0,0,0,0-2.547L4.048,67.891h0a1.614,1.614,0,0,1,0-2.368,1.952,1.952,0,0,1,2.676,0L31,88.829Z" transform="translate(0 -61.475)" fill="#283760"/>
        </g>
      </g>
    </g>
  </g>
</svg>
